<?xml version="1.0" encoding="UTF-8" standalone="no"?>
<!-- Created with Inkscape (http://www.inkscape.org/) -->

<svg
   xmlns:dc="http://purl.org/dc/elements/1.1/"
   xmlns:cc="http://creativecommons.org/ns#"
   xmlns:rdf="http://www.w3.org/1999/02/22-rdf-syntax-ns#"
   xmlns:svg="http://www.w3.org/2000/svg"
   xmlns="http://www.w3.org/2000/svg"
   xmlns:sodipodi="http://sodipodi.sourceforge.net/DTD/sodipodi-0.dtd"
   xmlns:inkscape="http://www.inkscape.org/namespaces/inkscape"
   width="56.152252mm"
   height="22.665789mm"
   viewBox="0 0 56.152252 22.665789"
   version="1.1"
   id="svg8"
   inkscape:version="0.92.5 (2060ec1f9f, 2020-04-08)"
   sodipodi:docname="fcen.svg">
  <defs
     id="defs2">
    <inkscape:path-effect
       effect="skeletal"
       id="path-effect1784"
       is_visible="true"
       pattern="M 0,5 C 0,2.24 2.24,0 5,0 7.76,0 10,2.24 10,5 10,7.76 7.76,10 5,10 2.24,10 0,7.76 0,5 Z"
       copytype="single_stretched"
       prop_scale="0.26458333"
       scale_y_rel="false"
       spacing="0"
       normal_offset="0"
       tang_offset="0"
       prop_units="false"
       vertical_pattern="false"
       fuse_tolerance="0" />
    <inkscape:path-effect
       effect="skeletal"
       id="path-effect1780"
       is_visible="true"
       pattern="M 0,5 C 0,2.24 2.24,0 5,0 7.76,0 10,2.24 10,5 10,7.76 7.76,10 5,10 2.24,10 0,7.76 0,5 Z"
       copytype="single_stretched"
       prop_scale="0.26458333"
       scale_y_rel="false"
       spacing="0"
       normal_offset="0"
       tang_offset="0"
       prop_units="false"
       vertical_pattern="false"
       fuse_tolerance="0" />
    <inkscape:path-effect
       effect="skeletal"
       id="path-effect1776"
       is_visible="true"
       pattern="M 0,5 C 0,2.24 2.24,0 5,0 7.76,0 10,2.24 10,5 10,7.76 7.76,10 5,10 2.24,10 0,7.76 0,5 Z"
       copytype="single_stretched"
       prop_scale="0.19411933"
       scale_y_rel="false"
       spacing="0"
       normal_offset="0"
       tang_offset="0"
       prop_units="false"
       vertical_pattern="false"
       fuse_tolerance="0" />
    <inkscape:path-effect
       effect="skeletal"
       id="path-effect1772"
       is_visible="true"
       pattern="M 0,5 C 0,2.24 2.24,0 5,0 7.76,0 10,2.24 10,5 10,7.76 7.76,10 5,10 2.24,10 0,7.76 0,5 Z"
       copytype="single_stretched"
       prop_scale="0.19213399"
       scale_y_rel="false"
       spacing="0"
       normal_offset="0"
       tang_offset="0"
       prop_units="false"
       vertical_pattern="false"
       fuse_tolerance="0" />
    <inkscape:path-effect
       effect="skeletal"
       id="path-effect1768"
       is_visible="true"
       pattern="M 0,5 C 0,2.24 2.24,0 5,0 7.76,0 10,2.24 10,5 10,7.76 7.76,10 5,10 2.24,10 0,7.76 0,5 Z"
       copytype="single_stretched"
       prop_scale="0.19748026"
       scale_y_rel="false"
       spacing="0"
       normal_offset="0"
       tang_offset="0"
       prop_units="false"
       vertical_pattern="false"
       fuse_tolerance="0" />
    <inkscape:path-effect
       effect="skeletal"
       id="path-effect1391"
       is_visible="true"
       pattern="M 0,5 C 0,2.24 2.24,0 5,0 7.76,0 10,2.24 10,5 10,7.76 7.76,10 5,10 2.24,10 0,7.76 0,5 Z"
       copytype="single_stretched"
       prop_scale="0.26458333"
       scale_y_rel="false"
       spacing="0"
       normal_offset="0"
       tang_offset="0"
       prop_units="false"
       vertical_pattern="false"
       fuse_tolerance="0" />
    <inkscape:path-effect
       fuse_tolerance="0"
       vertical_pattern="false"
       prop_units="false"
       tang_offset="0"
       normal_offset="0"
       spacing="0"
       scale_y_rel="false"
       prop_scale="0.052424569"
       copytype="single_stretched"
       pattern="M 0,5 C 0,2.24 2.24,0 5,0 7.76,0 10,2.24 10,5 10,7.76 7.76,10 5,10 2.24,10 0,7.76 0,5 Z"
       is_visible="true"
       id="path-effect1387"
       effect="skeletal" />
    <inkscape:path-effect
       effect="skeletal"
       id="path-effect1383"
       is_visible="true"
       pattern="M 0,5 C 0,2.24 2.24,0 5,0 7.76,0 10,2.24 10,5 10,7.76 7.76,10 5,10 2.24,10 0,7.76 0,5 Z"
       copytype="single_stretched"
       prop_scale="0.052424569"
       scale_y_rel="false"
       spacing="0"
       normal_offset="0"
       tang_offset="0"
       prop_units="false"
       vertical_pattern="false"
       fuse_tolerance="0" />
    <inkscape:path-effect
       effect="skeletal"
       id="path-effect974"
       is_visible="true"
       pattern="M 0,5 C 0,2.24 2.24,0 5,0 7.76,0 10,2.24 10,5 10,7.76 7.76,10 5,10 2.24,10 0,7.76 0,5 Z"
       copytype="single_stretched"
       prop_scale="0.37932389"
       scale_y_rel="false"
       spacing="0"
       normal_offset="0"
       tang_offset="0"
       prop_units="false"
       vertical_pattern="false"
       fuse_tolerance="0" />
    <inkscape:path-effect
       is_visible="true"
       id="path-effect3852"
       effect="spiro" />
    <inkscape:path-effect
       effect="spiro"
       id="path-effect4098"
       is_visible="true" />
    <inkscape:path-effect
       effect="spiro"
       id="path-effect3842"
       is_visible="true" />
    <inkscape:path-effect
       is_visible="true"
       id="path-effect3073"
       effect="spiro" />
    <inkscape:path-effect
       effect="spiro"
       id="path-effect3071"
       is_visible="true" />
    <inkscape:path-effect
       effect="spiro"
       id="path-effect3031"
       is_visible="true" />
    <inkscape:path-effect
       effect="spiro"
       id="path-effect3035"
       is_visible="true" />
    <inkscape:path-effect
       is_visible="true"
       id="path-effect3027"
       effect="spiro" />
    <inkscape:path-effect
       is_visible="true"
       id="path-effect4354"
       effect="spiro" />
    <inkscape:path-effect
       is_visible="true"
       id="path-effect4175"
       effect="spiro" />
    <inkscape:path-effect
       is_visible="true"
       id="path-effect4173"
       effect="spiro" />
    <inkscape:path-effect
       is_visible="true"
       id="path-effect4171"
       effect="spiro" />
    <inkscape:path-effect
       is_visible="true"
       id="path-effect4169"
       effect="spiro" />
    <inkscape:path-effect
       effect="spiro"
       id="path-effect4159"
       is_visible="true" />
    <inkscape:path-effect
       is_visible="true"
       id="path-effect4155"
       effect="spiro" />
    <inkscape:path-effect
       effect="spiro"
       id="path-effect4151"
       is_visible="true" />
    <inkscape:path-effect
       is_visible="true"
       id="path-effect4147"
       effect="spiro" />
    <clipPath
       clipPathUnits="userSpaceOnUse"
       id="clipPath1191">
      <path
         id="path1193"
         transform="matrix(1.2417348,0,0,1,1025.6517,-61.404632)"
         d="m -1011.5148,520.08562 c 6.8503,-18.54155 14.90868,-40.00089 15.79462,-59.27854 -19.79722,1.11535 -39.58822,6.32734 -59.38542,15.68771 -5.8391,-10.81498 -11.8778,-19.482 -18.3587,-23.23776 9.192,-6.7038 13.5081,-14.79495 18.3587,-22.73917 20.1152,10.00432 39.8385,14.95462 59.26072,15.81236 -1.20561,-20.66871 -6.80532,-41.00635 -15.66992,-61.09483 8.6892,-3.34059 15.97272,-9.46332 22.73922,-16.64927 6.9841,6.81955 14.3393,13.02027 23.2378,16.64927 -9.6085,20.32207 -14.8741,40.66592 -15.7946,60.98799 20.6608,-1.20858 40.996,-6.84424 61.077,-15.70552 3.3406,8.68913 9.4633,15.97273 16.6493,22.73917 -6.8195,6.98418 -13.0203,14.33926 -16.6493,23.23776 -20.3333,-9.61379 -40.6725,-14.84265 -61.0058,-15.75894 1.1182,19.78953 6.3666,39.56023 15.7234,59.34977 -10.815,5.83908 -19.482,11.89569 -23.2378,18.37653 -5.86937,-8.05363 -14.26682,-13.17393 -22.73922,-18.37653 z"
         style="fill:#ffffff;stroke:none"
         inkscape:connector-curvature="0" />
    </clipPath>
  </defs>
  <sodipodi:namedview
     id="base"
     pagecolor="#7c7c7c"
     bordercolor="#4d4d4d"
     borderopacity="1"
     inkscape:pageopacity="0"
     inkscape:pageshadow="2"
     inkscape:zoom="4.1323289"
     inkscape:cx="144.44189"
     inkscape:cy="43.619067"
     inkscape:document-units="mm"
     inkscape:current-layer="layer1"
     showgrid="false"
     showguides="true"
     inkscape:guide-bbox="true"
     inkscape:snap-global="true"
     inkscape:snap-page="true"
     inkscape:object-paths="true"
     inkscape:snap-intersection-paths="true"
     inkscape:snap-to-guides="false"
     inkscape:snap-grids="false"
     inkscape:window-width="1920"
     inkscape:window-height="1044"
     inkscape:window-x="0"
     inkscape:window-y="0"
     inkscape:window-maximized="1"
     fit-margin-top="0"
     fit-margin-bottom="0"
     fit-margin-right="0"
     fit-margin-left="0">
    <sodipodi:guide
       position="3.1928321,20.55328"
       orientation="1,0"
       id="guide176"
       inkscape:locked="false" />
    <sodipodi:guide
       position="12.316773,6.8833902"
       orientation="0,1"
       id="guide178"
       inkscape:locked="false" />
    <sodipodi:guide
       position="11.676497,19.40079"
       orientation="0,1"
       id="guide180"
       inkscape:locked="false" />
    <sodipodi:guide
       position="56.94405,11.62944"
       orientation="0,1"
       id="guide216"
       inkscape:locked="false" />
    <sodipodi:guide
       position="30.849417,13.43841"
       orientation="1,0"
       id="guide220"
       inkscape:locked="false" />
    <sodipodi:guide
       position="31.336116,12.82155"
       orientation="1,0"
       id="guide222"
       inkscape:locked="false" />
  </sodipodi:namedview>
  <metadata
     id="metadata5">
    <rdf:RDF>
      <cc:Work
         rdf:about="">
        <dc:format>image/svg+xml</dc:format>
        <dc:type
           rdf:resource="http://purl.org/dc/dcmitype/StillImage" />
        <dc:title></dc:title>
      </cc:Work>
    </rdf:RDF>
  </metadata>
  <g
     inkscape:label="Calque 1"
     inkscape:groupmode="layer"
     id="layer1"
     transform="translate(-20.4974,-22.577871)">
    <g
       id="g1120"
       transform="translate(-2,-2)">
      <rect
         y="24.577871"
         x="22.4974"
         height="22.665789"
         width="56.152252"
         id="rect224"
         style="opacity:1;fill:#ffffff;fill-opacity:1;stroke:none;stroke-width:0.5;stroke-miterlimit:4;stroke-dasharray:0, 0.50000001, 1.00000001, 1.50000002, 2.00000003, 2.50000004, 3.00000004, 3.50000005, 4.00000006, 4.50000007, 5.00000008, 5.50000008, 6.00000009, 6.5000001, 7.00000011;stroke-dashoffset:0;stroke-opacity:1" />
      <g
         id="g1052">
        <path
           inkscape:connector-curvature="0"
           style="fill:#84bd00;fill-opacity:1;fill-rule:evenodd;stroke:none;stroke-width:0.02709721;stroke-linecap:butt;stroke-linejoin:miter;stroke-miterlimit:4;stroke-dasharray:none;stroke-opacity:1"
           d="m 28.33012,25.936145 c -1.196819,0.0014 -2.502529,0.106007 -3.458567,0.585707 -1.04456,0.52412 -1.141899,1.857029 -1.09404,2.940779 0.07964,1.8034 0.126187,3.959679 0.314384,5.392483 1.081293,0.607313 1.695103,1.788635 2.494061,2.581234 0.634538,0.629487 1.432511,0.972045 2.277004,0.932296 0.835589,-0.03933 1.770798,-0.254689 2.406188,-0.822716 1.050387,-0.939031 1.400705,-1.770676 1.840438,-3.615761 0.386932,-1.623535 0.05001,-3.538477 2.153772,-3.614008 0.616872,-1.15282 0.412119,-1.975182 0.309483,-2.517518 -0.332079,-1.754725 -3.712168,-1.79867 -6.737887,-1.857593 -0.165203,-0.0033 -0.333862,-0.0051 -0.504836,-0.0049 z"
           id="path959"
           sodipodi:nodetypes="ccscsscscsccc" />
        <path
           inkscape:connector-curvature="0"
           id="path961"
           d="m 34.60742,34.215478 c -0.184951,0.915271 -0.428476,1.649335 -0.721435,2.505208 -0.325273,0.950278 -0.713565,1.718903 -1.37547,2.410788 -0.626935,0.655332 -1.526849,0.734873 -2.197903,0.900951 -0.590204,0.146074 -0.531627,0.905368 0.50523,1.429629 0.844335,0.426919 2.986947,0.682977 3.906854,0.221636 1.0346,-0.518861 1.499225,-1.859885 1.715868,-3.29757 0.194525,-1.290905 0.280441,-4.053873 -0.339934,-5.367914 -0.335191,-0.709983 -0.654194,-0.854409 -0.87888,-0.742873 -0.22172,0.110063 -0.498847,1.368655 -0.61433,1.940145 z"
           style="fill:#003594;fill-opacity:1;fill-rule:evenodd;stroke:none;stroke-width:0.02709721;stroke-linecap:butt;stroke-linejoin:miter;stroke-miterlimit:4;stroke-dasharray:none;stroke-opacity:1" />
        <path
           inkscape:connector-curvature="0"
           id="path963"
           d="m 23.710713,37.060111 c -0.134642,1.733536 -0.650609,2.794327 -0.178626,3.539243 0.776016,1.224767 4.000091,0.779174 4.531134,-0.484978 -1.977227,0.02976 -3.117486,-2.538952 -4.352508,-3.054265 z"
           style="fill:#e57200;fill-opacity:1;fill-rule:nonzero;stroke:none;stroke-width:0.02709721;stroke-linecap:butt;stroke-linejoin:miter;stroke-miterlimit:4;stroke-dasharray:none;stroke-opacity:1" />
        <path
           inkscape:connector-curvature="0"
           id="path965"
           d="m 40.353699,28.753419 c -0.577268,0 -1.028242,0.215665 -1.352959,0.646933 -0.324715,0.429143 -0.487018,1.027113 -0.487018,1.794048 0,0.788177 0.157227,1.391487 0.471336,1.810011 0.316224,0.416392 0.772271,0.624807 1.368641,0.624807 0.439318,0 0.801391,-0.116931 1.085781,-0.350631 0.204847,-0.169862 0.367237,-0.39862 0.4873,-0.68642 0.04455,-0.118976 0.05917,-0.343239 -0.04816,-0.378358 l -0.511946,0.0016 c -0.06728,0.226415 -0.161708,0.425819 -0.312544,0.562916 -0.182518,0.165707 -0.409438,0.248412 -0.681099,0.248412 -0.379897,0 -0.6698,-0.155003 -0.869299,-0.465176 -0.199498,-0.3123 -0.2991,-0.765949 -0.2991,-1.3608 0,-0.599104 0.09768,-1.06096 0.292939,-1.386003 0.195257,-0.325046 0.471023,-0.48758 0.827571,-0.48758 0.265291,0 0.481786,0.07641 0.649452,0.229367 0.129884,0.117012 0.229954,0.304154 0.300222,0.509424 l 0.674657,-2.87e-4 C 41.849076,29.65173 41.66841,29.305326 41.407556,29.091125 41.135902,28.865934 40.784536,28.753374 40.353701,28.753374 Z M 68.94,28.817279 v 0.659815 h 0.649734 v -0.659815 z m -5.278242,0.195198 v 3.856672 c 0,0.246485 0.06291,0.429357 0.188758,0.548352 0.12586,0.116849 0.320948,0.175037 0.585039,0.175037 0.115541,0 0.218689,-0.0051 0.309465,-0.0157 0.313213,-0.05109 0.267239,-0.221371 0.281736,-0.564314 -0.04952,0.01488 -0.142606,0.02556 -0.198279,0.03192 -0.0557,0.0046 -0.120643,0.0064 -0.194921,0.0064 -0.140301,0 -0.238384,-0.02986 -0.294059,-0.08934 -0.05367,-0.06162 -0.08038,-0.177287 -0.08038,-0.347272 v -1.982526 h 0.727311 v -0.522794 h -0.727311 v -1.096425 z m -16.201883,1.02165 c -0.968708,0.0065 -1.609209,0.69883 -1.609209,0.915789 v 2.272946 c 0,0.338494 0.594281,0.408894 0.594281,0 v -2.223104 c 0.144422,-0.150866 0.285778,-0.263378 0.424007,-0.337749 0.1403,-0.07649 0.275262,-0.114822 0.405243,-0.114822 0.167118,0 0.289871,0.05435 0.368276,0.162722 0.08046,0.106236 0.120708,0.271863 0.120708,0.497103 v 2.015854 c 0,0.322435 0.603523,0.397608 0.603523,0 v -2.184729 c 0,-0.320852 -0.07946,-0.568469 -0.238328,-0.742713 -0.158863,-0.174238 -0.381725,-0.263129 -0.668497,-0.261294 z m 2.622178,0.002 c -0.320523,0 -0.581369,0.08924 -0.78248,0.267735 -0.199019,0.176361 -0.298541,0.402625 -0.298541,0.67886 0,0.227361 0.067,0.415291 0.201081,0.564034 0.13407,0.146614 0.373096,0.28678 0.716667,0.420648 0.0419,0.01699 0.09946,0.03933 0.172795,0.06694 0.435742,0.161496 0.653654,0.352852 0.653654,0.573839 0,0.138109 -0.05237,0.251866 -0.157113,0.341108 -0.102654,0.08712 -0.236941,0.130505 -0.402444,0.130505 -0.163392,0 -0.316279,-0.04244 -0.458734,-0.127431 -0.07678,-0.04581 -0.15273,-0.09003 -0.227687,-0.163 H 49.00523 c -0.113594,0 -0.179596,0.05174 -0.110618,0.156557 0.08496,0.129115 0.307664,0.350713 0.527629,0.465457 0.222064,0.11263 0.466016,0.168873 0.732071,0.168873 0.356131,0 0.643305,-0.09335 0.861176,-0.280337 0.217871,-0.189114 0.326547,-0.436731 0.326547,-0.742711 0,-0.24861 -0.07742,-0.451609 -0.232448,-0.608846 -0.152926,-0.159369 -0.448266,-0.321843 -0.886101,-0.48758 -0.25768,-0.09775 -0.425194,-0.181647 -0.502704,-0.251772 -0.07753,-0.07223 -0.116227,-0.162722 -0.116227,-0.271095 0,-0.118991 0.04393,-0.214536 0.131911,-0.286778 0.09008,-0.07436 0.209452,-0.111469 0.358193,-0.111469 0.13407,0 0.263867,0.0349 0.38956,0.105025 0.125697,0.07011 0.247315,0.174425 0.364635,0.312544 l 0.39264,-0.373036 c -0.159223,-0.18486 -0.333914,-0.321882 -0.52455,-0.411126 -0.188545,-0.0914 -0.400258,-0.136948 -0.634891,-0.136948 z m 11.617903,0.01904 c -0.301223,0 -0.555898,0.0575 -0.764278,0.172236 -0.208385,0.114739 -0.406687,0.281246 -0.54079,0.519226 h 0.712185 c 0.129982,-0.07861 0.378256,-0.181477 0.543312,-0.181477 0.179501,0 0.322887,0.04244 0.430169,0.12743 0.107265,0.08287 0.161037,0.195664 0.161037,0.33803 v 0.257932 c -0.684973,0.116865 -1.181084,0.283725 -1.488506,0.500465 -0.305352,0.216737 -0.458174,0.505828 -0.458174,0.867057 0,0.28261 0.08149,0.507917 0.244491,0.675777 0.165056,0.165738 0.385874,0.248411 0.662336,0.248411 0.183624,0 0.361142,-0.03614 0.532389,-0.108378 0.171241,-0.07438 0.333227,-0.183737 0.4859,-0.328228 l 0.06497,0.392082 c 0.407661,0 0.600923,0.07793 0.544712,-0.516428 v -1.950598 c 0,-0.314482 -0.1011,-0.562106 -0.303302,-0.742713 -0.200128,-0.180655 -0.475703,-0.270855 -0.826445,-0.270855 z m -4.949456,0.0059 c -0.191878,0 -0.361994,0.06064 -0.510546,0.181756 -0.148543,0.118992 -0.278706,0.301587 -0.390119,0.548075 v -0.685029 h -0.587841 v 3.130482 c 0,0.350464 0.612766,0.368456 0.612766,0 v -1.696307 c 0.1011,-0.267734 0.230976,-0.473878 0.389841,-0.618367 0.160924,-0.144487 0.731471,-0.216764 0.535469,-0.216764 h 0.05237 v -0.637411 l 2.86e-4,-2.86e-4 c -0.01243,-0.0018 -0.02589,-0.0031 -0.04033,-0.0031 -0.01439,-0.0018 -0.0351,-0.0031 -0.06188,-0.0031 z m 15.197596,0 c -0.191878,0 -0.361996,0.06064 -0.510546,0.181756 -0.148543,0.118992 -0.278426,0.301587 -0.389838,0.548075 V 30.105875 H 70.45959 v 3.130483 c 0,0.350464 0.612766,0.368455 0.612766,0 v -1.696307 c 0.101101,-0.267735 0.230976,-0.473878 0.38984,-0.618367 0.160923,-0.144488 0.731476,-0.216764 0.535472,-0.216764 h 0.05264 v -0.637411 -2.87e-4 c -0.01243,-0.0018 -0.02589,-0.0031 -0.04033,-0.0031 -0.01439,-0.0018 -0.03509,-0.0031 -0.0619,-0.0031 z m -28.118044,0.0087 c -0.446245,0 -0.794665,0.155004 -1.044896,0.465176 -0.248145,0.31017 -0.372195,0.744646 -0.372195,1.303387 0,0.560861 0.124045,0.997534 0.372195,1.309829 0.250231,0.310173 0.598651,0.465175 1.044896,0.465175 0.446243,0 0.792389,-0.155003 1.038453,-0.465175 0.248144,-0.312295 0.372195,-0.748968 0.372195,-1.309829 0,-0.558741 -0.124045,-0.993217 -0.372195,-1.303387 -0.246064,-0.310174 -0.59221,-0.465176 -1.038453,-0.465176 z m 22.973669,0 c -0.44987,0 -0.801031,0.155004 -1.053294,0.465176 -0.250162,0.31017 -0.374999,0.744646 -0.374999,1.303387 0,0.560861 0.12483,0.997534 0.374999,1.309829 0.252263,0.310173 0.603424,0.465175 1.053294,0.465175 0.449871,0 0.798793,-0.155003 1.046855,-0.465175 0.250162,-0.312295 0.375278,-0.748968 0.375278,-1.309829 0,-0.558741 -0.125124,-0.993217 -0.375278,-1.303387 -0.248062,-0.310174 -0.596984,-0.465176 -1.046855,-0.465176 z m -13.576344,0.009 c -0.444978,0 -0.788108,0.157129 -1.029491,0.471616 -0.241383,0.314482 -0.362113,0.760709 -0.362113,1.338675 0,0.560966 0.122982,0.990224 0.368555,1.287705 0.245578,0.297479 0.599085,0.446131 1.060858,0.446131 0.289659,0 0.545314,-0.06375 0.765116,-0.19436 0.09837,-0.05847 0.715127,-0.591813 0.324027,-0.581958 l -0.431289,-0.0056 c -0.04819,0.05 -0.09945,0.09281 -0.154038,0.128543 -0.136425,0.08926 -0.292781,0.133857 -0.469095,0.133857 -0.270768,0 -0.479566,-0.09335 -0.626488,-0.280337 -0.146941,-0.189114 -0.220406,-0.454658 -0.220406,-0.796764 v -0.06694 h 2.090348 2.86e-4 c 0,-0.01915 0.0013,-0.04801 0.0031,-0.08627 0.0018,-0.04034 0.0031,-0.0699 0.0031,-0.08906 0,-0.53122 -0.117504,-0.947888 -0.352592,-1.249616 -0.235126,-0.30389 -0.558482,-0.455686 -0.969881,-0.455686 z m 20.424869,0 c -0.44498,0 -0.788108,0.157129 -1.029491,0.471616 -0.241383,0.314482 -0.362115,0.760709 -0.362115,1.338675 0,0.560966 0.122704,0.990224 0.368277,1.287705 0.245578,0.297479 0.599364,0.446131 1.061136,0.446131 0.28966,0 0.545034,-0.06375 0.764837,-0.19436 0.09839,-0.05847 0.715406,-0.591813 0.324306,-0.581958 l -0.431287,-0.0056 c -0.0482,0.05 -0.09973,0.09281 -0.154317,0.128543 -0.136425,0.08926 -0.292782,0.133857 -0.469097,0.133857 -0.270768,0 -0.479564,-0.09335 -0.626489,-0.280337 -0.146924,-0.189165 0.118997,-0.75388 -0.220404,-0.796815 v -0.06694 h 2.090628 2.88e-4 c 0,-0.01915 0.0013,-0.04801 0.0031,-0.08627 0.0018,-0.04034 0.0028,-0.0699 0.0028,-0.08906 0,-0.53122 -0.117503,-0.947888 -0.352592,-1.249616 -0.235087,-0.303859 -0.558161,-0.455655 -0.969559,-0.455655 z m -16.42929,0.05153 1.01997,3.147283 c 0.115198,0.355344 0.739112,0.396917 0.865658,0.0054 l 1.018848,-3.152605 h -0.615566 l -0.637691,2.039657 c -0.0064,0.01915 -0.01603,0.04774 -0.02857,0.08597 -0.07789,0.254939 -0.135754,0.466214 -0.173635,0.63405 -0.0358,-0.140219 -0.0715,-0.27194 -0.107266,-0.395161 -0.03367,-0.125337 -0.06424,-0.23256 -0.09158,-0.321786 l -0.63461,-2.042738 z m 11.74785,0 v 3.13104 c 0,0.336993 0.594282,0.366401 0.594282,0 v -3.13104 z m -15.762192,0.44557 c 0.216194,0 0.38713,0.08076 0.513064,0.24225 0.128052,0.15937 0.195355,0.380572 0.201641,0.663176 l -1.464139,0.0031 c 0.01259,-0.288982 0.08411,-0.512096 0.214245,-0.669338 0.130129,-0.159369 0.3085,-0.239168 0.535189,-0.239168 z m 20.424588,0 c 0.216193,0 0.387409,0.08076 0.513345,0.24225 0.128052,0.15937 0.195075,0.380572 0.201362,0.663176 l -1.46386,0.0031 c 0.01259,-0.288982 0.08383,-0.512096 0.213962,-0.669338 0.130129,-0.159369 0.308503,-0.239168 0.535191,-0.239168 z m -29.80315,0.02941 c 0.260656,0 0.457461,0.105025 0.59092,0.315344 0.135542,0.208196 0.203322,0.51629 0.203322,0.92419 0,0.403652 -0.06779,0.710508 -0.203322,0.920829 -0.135542,0.210325 -0.332351,0.315623 -0.59092,0.315623 -0.260657,0 -0.458743,-0.105303 -0.594283,-0.315623 -0.133465,-0.210321 -0.200241,-0.519372 -0.200241,-0.927271 0,-0.405779 0.06679,-0.712633 0.200241,-0.920829 0.135542,-0.2082 0.333626,-0.312263 0.594283,-0.312263 z m 22.973669,0 c 0.262775,0 0.46142,0.105025 0.595962,0.315344 0.136638,0.208196 0.205002,0.51629 0.205002,0.92419 0,0.403652 -0.06836,0.710508 -0.205002,0.920829 -0.136653,0.210325 -0.335289,0.315623 -0.595962,0.315623 -0.262775,0 -0.4624,-0.105303 -0.599043,-0.315623 -0.134544,-0.210321 -0.201921,-0.519372 -0.201921,-0.927271 0,-0.405779 0.06738,-0.712633 0.201921,-0.920829 0.136638,-0.2082 0.336268,-0.312263 0.599043,-0.312263 z m -4.577538,1.174281 v 0.841571 c -0.163,0.152992 -0.316834,0.267695 -0.461255,0.344191 -0.144422,0.07649 -0.279386,0.114821 -0.405243,0.114821 -0.144422,0 -0.259041,-0.04051 -0.34363,-0.121264 -0.08458,-0.08287 -0.126858,-0.195391 -0.126858,-0.337751 0,-0.208239 0.105173,-0.379478 0.315624,-0.513345 0.210448,-0.133874 0.550961,-0.243231 1.02137,-0.328226 z m -19.638467,3.146428 c -0.159778,1.19e-4 -0.289297,0.358561 -0.289298,0.800685 1e-6,0.442123 0.129507,0.800565 0.289298,0.800684 0.159795,-1.19e-4 0.289297,-0.358561 0.289299,-0.800684 -2e-6,-0.442124 -0.129507,-0.800566 -0.289299,-0.800685 z m -1.890106,0.01737 v 1.673904 c -0.10097,-0.139761 -0.220766,-0.244626 -0.359595,-0.314505 -0.138829,-0.06988 -0.298838,-0.104748 -0.479739,-0.104748 -0.418592,0 -0.747685,0.155576 -0.987481,0.466856 -0.237694,0.309169 -0.356514,0.736886 -0.356514,1.283223 0,0.544218 0.119793,0.975107 0.359595,1.292745 0.239795,0.317639 0.563721,0.476657 0.971798,0.476657 0.191418,0 0.363015,-0.03706 0.514465,-0.111175 0.151454,-0.07623 0.287027,-0.192808 0.406924,-0.349511 l 0.104175,0.403564 h 0.476379 c -0.01259,-0.141887 -0.02324,-0.292353 -0.03164,-0.451173 -0.0083,-0.158814 -0.01259,-0.322934 -0.01259,-0.49234 v -3.773495 z m 10.655903,1.236371 c -0.180057,0 -0.343378,0.03689 -0.48954,0.110896 -0.144046,0.074 -0.281754,0.191337 -0.413083,0.352031 l -0.0857,-0.402722 h -0.460695 v 4.375898 c 0,0.381667 0.609966,0.36793 0.609966,0 v -1.318511 c 0.105908,0.137439 0.227786,0.238876 0.365474,0.304421 0.137684,0.06556 0.293429,0.0983 0.467137,0.0983 0.436366,0 0.777322,-0.153269 1.023047,-0.459852 0.247843,-0.308705 0.371918,-0.736715 0.371918,-1.284344 0,-0.551856 -0.124078,-0.985264 -0.371918,-1.300307 -0.247841,-0.317158 -0.586591,-0.475818 -1.016607,-0.475818 z m 6.497893,2.86e-4 c -0.421833,0 -0.755381,0.160596 -1.000925,0.48198 -0.243447,0.319275 -0.365196,0.759035 -0.365196,1.319349 0,0.551857 0.118518,0.976976 0.355673,1.275102 0.239246,0.296015 0.580231,0.443891 1.023052,0.443891 0.312699,0 0.578221,-0.07186 0.796481,-0.215643 0.136458,-0.0899 0.256206,-0.208772 0.359034,-0.356514 0.07489,-0.123064 0.04291,-0.175179 -0.04033,-0.19436 h -0.523988 c -0.03277,0.03361 -0.06731,0.06321 -0.103341,0.09073 -0.138518,0.105728 -0.292663,0.158519 -0.462654,0.158519 -0.264433,0 -0.461644,-0.102409 -0.591763,-0.307503 -0.130112,-0.207211 -0.195199,-0.519136 -0.195199,-0.935672 0,-0.399621 0.06703,-0.706158 0.20136,-0.919708 0.134315,-0.213557 0.327598,-0.320386 0.579439,-0.320386 0.169992,0 0.313766,0.05086 0.431289,0.152353 0.11963,0.09938 0.209676,0.24629 0.270536,0.440811 l 0.547791,-0.209483 c -0.102833,-0.29589 -0.263498,-0.519666 -0.481698,-0.671858 -0.21826,-0.154349 -0.484766,-0.231608 -0.799564,-0.231608 z m -12.781821,0.002 c -0.444978,0 -0.788108,0.157146 -1.029491,0.471618 -0.241383,0.314481 -0.362115,0.760707 -0.362115,1.338675 0,0.560966 0.122982,0.990224 0.368555,1.287703 0.24558,0.297482 0.599086,0.446132 1.060859,0.446132 0.28966,0 0.545313,-0.06375 0.765117,-0.194359 0.09837,-0.05847 0.715126,-0.591812 0.324027,-0.58196 l -0.431289,-0.0056 c -0.04819,0.04999 -0.09945,0.09281 -0.154038,0.128542 -0.136425,0.08926 -0.292782,0.133874 -0.469096,0.133874 -0.270768,0 -0.479565,-0.09335 -0.626489,-0.280337 -0.146924,-0.189114 0.118995,-0.754109 -0.220406,-0.797044 v -0.06694 h 2.090349 2.87e-4 c 0,-0.01915 0.0013,-0.04774 0.0031,-0.08597 0.0018,-0.04035 0.0031,-0.07019 0.0031,-0.08934 0,-0.53122 -0.117503,-0.94761 -0.352594,-1.249336 -0.235083,-0.303859 -0.558439,-0.455655 -0.969838,-0.455655 z m 15.80196,0 c -0.444979,0 -0.788107,0.157146 -1.02949,0.471618 -0.241383,0.314481 -0.362115,0.760707 -0.362115,1.338675 0,0.560966 0.122982,0.990224 0.368555,1.287703 0.24558,0.297482 0.599086,0.446132 1.060858,0.446132 0.289659,0 0.545314,-0.06375 0.765117,-0.194359 0.09837,-0.05847 0.715127,-0.591812 0.324026,-0.58196 l -0.431287,-0.0056 c -0.04819,0.04999 -0.09945,0.09281 -0.154038,0.128542 -0.136425,0.08926 -0.292783,0.133874 -0.469098,0.133874 -0.270768,0 -0.479564,-0.09335 -0.626488,-0.280337 -0.146925,-0.189114 -0.220406,-0.454938 -0.220406,-0.797044 v -0.06694 h 2.090349 2.87e-4 c 0,-0.01915 0.0013,-0.04774 0.0031,-0.08597 0.0018,-0.04035 0.0031,-0.07019 0.0031,-0.08934 0,-0.53122 -0.117503,-0.94761 -0.352592,-1.249336 -0.235071,-0.303859 -0.558427,-0.455655 -0.969826,-0.455655 z m -6.231838,0.0067 c -0.301222,0 -0.556177,0.05721 -0.764557,0.171955 -0.208385,0.11474 -0.406406,0.281526 -0.54051,0.519506 h 0.711907 c 0.129981,-0.07861 0.378534,-0.181477 0.54359,-0.181477 0.179501,0 0.322886,0.04242 0.430168,0.12743 0.107266,0.08287 0.161038,0.195383 0.161038,0.337749 v 0.258213 c -0.684972,0.116866 -1.181364,0.283725 -1.488785,0.500463 -0.305352,0.216738 -0.457893,0.50583 -0.457893,0.867057 0,0.282612 0.08149,0.507638 0.24449,0.6755 0.165056,0.165736 0.385872,0.24869 0.662335,0.24869 0.183626,0 0.360862,-0.03614 0.532109,-0.108378 0.171243,-0.07438 0.333226,-0.183735 0.4859,-0.328226 l 0.06497,0.39208 c 0.407663,0 0.600924,0.07793 0.544712,-0.516426 v -1.9506 c 0,-0.314481 -0.1011,-0.562104 -0.303301,-0.742711 -0.200133,-0.180615 -0.475426,-0.270816 -0.82617,-0.270816 z m -6.672647,0.01084 c -0.320524,0 -0.581371,0.08924 -0.782481,0.267736 -0.199018,0.17636 -0.298542,0.402625 -0.298542,0.678857 0,0.227363 0.067,0.415573 0.201082,0.564317 0.13407,0.146614 0.373097,0.286781 0.716668,0.420646 0.0419,0.01699 0.09946,0.03933 0.172794,0.06694 0.435742,0.161495 0.653654,0.352574 0.653654,0.573557 0,0.138109 -0.05236,0.251869 -0.157113,0.341111 -0.102654,0.08712 -0.236941,0.130783 -0.402443,0.130783 -0.163409,0 -0.31628,-0.04244 -0.458734,-0.12743 -0.07677,-0.04581 -0.15273,-0.09003 -0.227687,-0.163 h -0.494021 c -0.113595,0 -0.179596,0.05147 -0.110619,0.156278 0.08496,0.129115 0.307665,0.350713 0.527629,0.465454 0.222064,0.11263 0.466016,0.169156 0.732071,0.169156 0.356131,0 0.643305,-0.09363 0.861176,-0.280618 0.217872,-0.189114 0.326827,-0.436731 0.326827,-0.742713 0,-0.248608 -0.0777,-0.451325 -0.232727,-0.608564 -0.152926,-0.15937 -0.448266,-0.322123 -0.886102,-0.487859 -0.25768,-0.09775 -0.425193,-0.181647 -0.502703,-0.251771 -0.07753,-0.07224 -0.116228,-0.162444 -0.116228,-0.270816 0,-0.118991 0.04393,-0.214538 0.131911,-0.28678 0.09008,-0.07435 0.209452,-0.111747 0.358193,-0.111747 0.13407,0 0.263867,0.03518 0.389561,0.105304 0.125696,0.07013 0.247314,0.174145 0.364634,0.312264 l 0.39264,-0.372756 c -0.159222,-0.184862 -0.333911,-0.321882 -0.524547,-0.411124 -0.188544,-0.0914 -0.400258,-0.137227 -0.63489,-0.137227 z m 15.801959,0 c -0.320523,0 -0.581369,0.08924 -0.782481,0.267736 -0.199016,0.17636 -0.29854,0.402625 -0.29854,0.678857 0,0.227363 0.067,0.415573 0.201082,0.564317 0.13407,0.146614 0.373095,0.286781 0.716666,0.420646 0.0419,0.01699 0.09946,0.03933 0.172794,0.06694 0.435744,0.161495 0.653656,0.352574 0.653656,0.573557 0,0.138109 -0.05237,0.251869 -0.157113,0.341111 -0.102654,0.08712 -0.236941,0.130783 -0.402443,0.130783 -0.163393,0 -0.31628,-0.04244 -0.458735,-0.12743 -0.07676,-0.04581 -0.152729,-0.09003 -0.227686,-0.163 h -0.49402 c -0.113595,0 -0.179598,0.05147 -0.110618,0.156278 0.08496,0.129115 0.307662,0.350713 0.527627,0.465454 0.222066,0.11263 0.466018,0.169156 0.732071,0.169156 0.356133,0 0.643305,-0.09363 0.861176,-0.280618 0.217871,-0.189114 0.326828,-0.436731 0.326828,-0.742713 0,-0.248608 -0.0777,-0.451325 -0.232728,-0.608564 -0.152927,-0.15937 -0.448266,-0.322123 -0.886102,-0.487859 -0.25768,-0.09775 -0.425192,-0.181647 -0.502703,-0.251771 -0.07753,-0.07224 -0.116228,-0.162444 -0.116228,-0.270816 0,-0.118991 0.04393,-0.214538 0.131911,-0.28678 0.09008,-0.07435 0.209454,-0.111747 0.358195,-0.111747 0.13407,0 0.263867,0.03518 0.389558,0.105304 0.125697,0.07013 0.247317,0.174145 0.364635,0.312264 l 0.39264,-0.372756 C 64.769255,36.56304 64.59455,36.42602 64.403915,36.336778 c -0.188543,-0.0914 -0.400259,-0.137227 -0.634891,-0.137227 z m -18.718198,0.479502 c 0.216195,0 0.38713,0.08076 0.513067,0.24225 0.128052,0.15937 0.195353,0.380293 0.201641,0.662896 l -1.464141,0.0034 c 0.01259,-0.288981 0.08411,-0.512094 0.214244,-0.669337 0.130128,-0.15937 0.308501,-0.239169 0.535189,-0.239169 z m 15.801961,0 c 0.216194,0 0.387128,0.08076 0.513065,0.24225 0.128052,0.15937 0.195355,0.380293 0.201641,0.662896 l -1.464141,0.0034 c 0.01259,-0.288981 0.08411,-0.512094 0.214244,-0.669337 0.130129,-0.15937 0.308502,-0.239169 0.535191,-0.239169 z m -20.893404,0.02716 c 0.136719,0 0.265183,0.03487 0.385079,0.104748 0.122001,0.06777 0.239563,0.171384 0.353153,0.311144 v 1.661301 c -0.107282,0.139761 -0.220655,0.244626 -0.340551,0.314504 -0.117797,0.06777 -0.245273,0.101656 -0.381999,0.101656 -0.275553,0 -0.483594,-0.105827 -0.624528,-0.317586 -0.140938,-0.213881 -0.211444,-0.529429 -0.211444,-0.946595 0,-0.391751 0.07148,-0.69463 0.214525,-0.908506 0.143032,-0.213876 0.34493,-0.320666 0.605765,-0.320666 z m 11.292474,0 c 0.279616,0 0.492371,0.107806 0.638532,0.323467 0.146172,0.213551 0.219285,0.526442 0.219285,0.938753 0,0.39116 -0.07312,0.693555 -0.219285,0.907105 -0.146156,0.213552 -0.352581,0.320386 -0.619488,0.320386 -0.13981,0 -0.272416,-0.034 -0.397401,-0.101656 -0.124978,-0.06978 -0.246573,-0.174393 -0.365195,-0.313944 v -1.65878 c 0.11227,-0.139549 0.228773,-0.242925 0.349513,-0.310585 0.122867,-0.06977 0.254229,-0.104747 0.394039,-0.104746 z m 3.913804,1.206769 v 0.841291 c -0.163,0.152992 -0.316556,0.267975 -0.460976,0.344471 -0.144422,0.0765 -0.279665,0.114543 -0.405521,0.114543 -0.144423,0 -0.259041,-0.04023 -0.343632,-0.120987 -0.08458,-0.08286 -0.126874,-0.195669 -0.126874,-0.33803 0,-0.208238 0.10545,-0.379198 0.315905,-0.513065 0.210446,-0.133874 0.550681,-0.243231 1.02109,-0.328226 z"
           style="font-style:normal;font-variant:normal;font-weight:normal;font-stretch:normal;font-size:medium;line-height:97.00000286%;font-family:'NewsGoth Dm BT';-inkscape-font-specification:'NewsGoth Dm BT, Normal';font-variant-ligatures:normal;font-variant-caps:normal;font-variant-numeric:normal;font-feature-settings:normal;text-align:start;letter-spacing:0px;word-spacing:0px;writing-mode:lr-tb;text-anchor:start;fill:#003594;fill-opacity:1;stroke:none;stroke-width:0.02709721;stroke-linecap:butt;stroke-linejoin:miter;stroke-miterlimit:4;stroke-dasharray:none;stroke-opacity:1"
           sodipodi:nodetypes="ccscscccccscscsccccccccccccscscccscscccccccsssccscsssscccccscccscsccsccscscccscsccccccccccscsccscsccccsccccccccssccscccccccccccssccsccccccscscscscsscscscscsccscsccccscsccccscccccscsccccscsccccsccccccccccccccccssccccccccccccccccscscscscsscscscscscccscscccccccccccscscscccccscccccccssccscscccccscscccccscscsccccccccscsccccscsccccscccccscsccccscsccccscccccccscsccscsccccscccccscccscsccsccscscccscsccccccccscccscsccsccscscccscsccccccccccccccccccccsccccscscsccscsccccccccscsccc" />
        <path
           inkscape:connector-curvature="0"
           id="path965-3"
           d="m 55.562216,41.131326 v 4.395221 c 0,0.342851 0.594003,0.342778 0.594003,0 V 41.131231 Z M 44.99453,41.287509 v 3.856672 c 0,0.246486 0.06291,0.429076 0.188758,0.548071 0.12586,0.116849 0.320949,0.175316 0.585041,0.175316 0.115541,0 0.218687,-0.0054 0.309463,-0.01603 0.313215,-0.05109 0.267239,-0.221091 0.281738,-0.564034 -0.04952,0.01488 -0.142606,0.02556 -0.198282,0.03192 -0.0557,0.0046 -0.120643,0.0064 -0.194918,0.0064 -0.140301,0 -0.238384,-0.02986 -0.294061,-0.08934 -0.05367,-0.06162 -0.08038,-0.177565 -0.08038,-0.34755 V 42.906403 H 46.3192 V 42.383815 H 45.591889 V 41.28739 Z m 8.570318,1.035985 c -0.44498,0 -0.788108,0.157145 -1.029491,0.471618 -0.241383,0.31448 -0.362115,0.760707 -0.362115,1.338675 0,0.560966 0.122982,0.990223 0.368555,1.287702 0.24558,0.297483 0.599086,0.446132 1.060858,0.446132 0.289659,0 0.545314,-0.06375 0.765118,-0.194359 0.09837,-0.05846 0.715126,-0.591811 0.324025,-0.58196 l -0.431008,-0.0056 c -0.04821,0.04999 -0.09973,0.09281 -0.154316,0.128542 -0.136425,0.08926 -0.292782,0.133874 -0.469096,0.133874 -0.270769,0 -0.479564,-0.09335 -0.62649,-0.280337 -0.146924,-0.189114 -0.220404,-0.454938 -0.220404,-0.797044 v -0.06694 h 2.090628 2.91e-4 c 0,-0.01915 10e-4,-0.04774 0.0028,-0.08597 0.0018,-0.04035 0.0031,-0.07019 0.0031,-0.08934 0,-0.53122 -0.117502,-0.947611 -0.352592,-1.249337 -0.235085,-0.303858 -0.558438,-0.455654 -0.969837,-0.455654 z m -10.552564,0.0067 c -0.301224,0 -0.555897,0.05721 -0.764277,0.171956 -0.208385,0.114739 -0.406686,0.281525 -0.540791,0.519505 h 0.712187 c 0.129981,-0.07861 0.378254,-0.181477 0.54331,-0.181477 0.179502,0 0.323166,0.04242 0.43045,0.12743 0.107266,0.08287 0.16076,0.195383 0.16076,0.337749 v 0.258213 c -0.684974,0.116866 -1.181085,0.283726 -1.488505,0.500463 -0.305352,0.216738 -0.458174,0.505831 -0.458174,0.867058 0,0.282611 0.08149,0.507637 0.244491,0.675499 0.165056,0.165736 0.385872,0.24869 0.662334,0.24869 0.183626,0 0.361142,-0.03614 0.53239,-0.108378 0.171242,-0.07438 0.333225,-0.183735 0.485899,-0.328226 l 0.06498,0.392081 c 0.407662,0 0.600924,0.07793 0.544712,-0.516427 v -1.9506 c 0,-0.31448 -0.101101,-0.562104 -0.303301,-0.742711 -0.200132,-0.180615 -0.475708,-0.270815 -0.82645,-0.270815 z m -2.889072,0.0092 c -0.968709,0.0065 -1.60949,0.69883 -1.60949,0.915789 v 2.272665 c 0,0.338494 0.594281,0.408894 0.594281,0 v -2.222749 c 0.144422,-0.150866 0.285779,-0.263378 0.424008,-0.337749 0.1403,-0.07649 0.275541,-0.114822 0.405523,-0.114822 0.167118,0 0.289869,0.05407 0.368275,0.162428 0.08046,0.106252 0.120709,0.272143 0.120709,0.497382 v 2.015573 c 0,0.322436 0.603244,0.397611 0.603244,0 v -2.184539 c 0,-0.320852 -0.07919,-0.568467 -0.238048,-0.742711 -0.158863,-0.174238 -0.381725,-0.263131 -0.668497,-0.261296 z m 17.879985,0.0016 c -0.320522,0 -0.58109,0.08924 -0.7822,0.267736 -0.199018,0.176359 -0.298542,0.402625 -0.298542,0.678857 0,0.227363 0.067,0.415572 0.201082,0.564317 0.13407,0.146613 0.372815,0.28678 0.716386,0.420645 0.0419,0.01699 0.09948,0.03933 0.172797,0.06694 0.435742,0.161496 0.653654,0.352574 0.653654,0.573557 0,0.13811 -0.05237,0.25187 -0.157113,0.341112 -0.102654,0.08712 -0.23666,0.130783 -0.402163,0.130783 -0.163409,0 -0.316279,-0.04244 -0.458734,-0.127431 -0.07678,-0.04581 -0.15273,-0.09003 -0.227686,-0.163 h -0.494301 c -0.113595,0 -0.179596,0.05147 -0.110619,0.156279 0.08496,0.129115 0.307665,0.350713 0.527629,0.465454 0.222064,0.11263 0.466296,0.169156 0.732351,0.169156 0.356131,0 0.643024,-0.09363 0.860897,-0.280618 0.217871,-0.189115 0.326826,-0.436732 0.326826,-0.742713 0,-0.248609 -0.07742,-0.451326 -0.232448,-0.608565 -0.152926,-0.159369 -0.448545,-0.322122 -0.886382,-0.487859 -0.257678,-0.09775 -0.425192,-0.181647 -0.502702,-0.251771 -0.07753,-0.07223 -0.116228,-0.162444 -0.116228,-0.270815 0,-0.118992 0.04393,-0.214538 0.131911,-0.28678 0.09008,-0.07435 0.209452,-0.111747 0.358194,-0.111747 0.134069,0 0.264144,0.03518 0.389839,0.105303 0.125697,0.07013 0.247035,0.174146 0.364356,0.312265 l 0.392919,-0.37284 c -0.159223,-0.184826 -0.334191,-0.321846 -0.524827,-0.411088 -0.188544,-0.0914 -0.400258,-0.137226 -0.634891,-0.137226 z m -6.111973,0.0252 c -0.191878,0 -0.362275,0.06064 -0.510825,0.181758 -0.148543,0.118992 -0.278428,0.301586 -0.389839,0.548073 v -0.6853 h -0.587841 v 3.130468 c 0,0.350465 0.612766,0.368457 0.612766,0 v -1.696028 c 0.1011,-0.267733 0.230974,-0.473876 0.389839,-0.618365 0.160924,-0.144488 0.52363,-0.02113 0.535469,-0.216766 h 0.05237 v -0.637411 l 2.91e-4,-2.91e-4 c -0.01243,-0.0018 -0.02589,-0.0031 -0.04033,-0.0031 -0.01439,-0.0018 -0.03509,-0.0031 -0.0619,-0.0031 z m -4.832111,0.03781 v 2.507356 c 0,0.32085 0.07744,0.568467 0.232168,0.742712 0.156802,0.174213 0.431391,0.200623 0.716106,0.200801 1.034934,5.82e-4 1.567763,-0.742214 1.567763,-0.991123 v -2.459621 h -0.600443 v 2.498393 c -0.142361,0.148739 -0.282693,0.254813 -0.420927,0.331309 -0.13824,0.07649 -0.272182,0.114543 -0.402162,0.114543 -0.171243,0 -0.296032,-0.05187 -0.374438,-0.155984 -0.07636,-0.106237 -0.114543,-0.220288 -0.114543,-0.449773 V 42.40405 Z m 6.486971,0.416492 c 0.216194,0 0.387128,0.08076 0.513065,0.24225 0.128052,0.159369 0.195355,0.380292 0.201641,0.662895 l -1.464141,0.0034 c 0.01259,-0.288982 0.08411,-0.512094 0.214244,-0.669338 0.130129,-0.159369 0.308503,-0.239169 0.535191,-0.239169 z m -10.007572,1.233932 v 0.841292 c -0.163,0.152991 -0.316835,0.267974 -0.461256,0.34447 -0.144422,0.0765 -0.279384,0.114544 -0.405241,0.114544 -0.144422,0 -0.259041,-0.04023 -0.343632,-0.120987 -0.08458,-0.08287 -0.126858,-0.195669 -0.126858,-0.338031 0,-0.208238 0.105173,-0.379198 0.315626,-0.513065 0.210446,-0.133874 0.55096,-0.243231 1.02137,-0.328226 z"
           style="font-style:normal;font-variant:normal;font-weight:normal;font-stretch:normal;font-size:medium;line-height:97.00000286%;font-family:'NewsGoth Dm BT';-inkscape-font-specification:'NewsGoth Dm BT, Normal';font-variant-ligatures:normal;font-variant-caps:normal;font-variant-numeric:normal;font-feature-settings:normal;text-align:start;letter-spacing:0px;word-spacing:0px;writing-mode:lr-tb;text-anchor:start;fill:#003594;fill-opacity:1;stroke:none;stroke-width:0.02709721;stroke-linecap:butt;stroke-linejoin:miter;stroke-miterlimit:4;stroke-dasharray:none;stroke-opacity:1"
           sodipodi:nodetypes="csscccscscccscsccccccccscsccccscsccccscccccccscsccscsccccsccccsssccscsssscccccscccscsccsccscscccscscccccccccccssccscccccccsccsccccscsccccccccccccscsccc" />
        <path
           inkscape:connector-curvature="0"
           id="path965-7"
           d="m 76.549721,30.096306 c -0.320524,0 -0.581371,0.08924 -0.782481,0.267736 -0.199018,0.17636 -0.298542,0.402625 -0.298542,0.678857 0,0.227363 0.067,0.415573 0.201082,0.564317 0.13407,0.146614 0.373097,0.286781 0.716668,0.420646 0.0419,0.01699 0.09946,0.03933 0.172794,0.06694 0.435742,0.161495 0.653654,0.352574 0.653654,0.573558 0,0.138109 -0.05236,0.251869 -0.157113,0.341111 -0.102654,0.08712 -0.236941,0.130783 -0.402443,0.130783 -0.163409,0 -0.31628,-0.04244 -0.458734,-0.12743 -0.07677,-0.04581 -0.15273,-0.09003 -0.227687,-0.163 h -0.494021 c -0.113595,0 -0.179596,0.05147 -0.110619,0.156278 0.08496,0.129115 0.307665,0.350713 0.527629,0.465454 0.222064,0.11263 0.466016,0.169156 0.732071,0.169156 0.356131,0 0.643305,-0.09363 0.861176,-0.280618 0.217872,-0.189114 0.326827,-0.436731 0.326827,-0.742714 0,-0.248608 -0.0777,-0.451325 -0.232727,-0.608564 -0.152926,-0.15937 -0.448266,-0.322122 -0.886102,-0.487858 -0.25768,-0.09775 -0.425193,-0.181648 -0.502703,-0.251772 -0.07753,-0.07224 -0.116228,-0.162443 -0.116228,-0.270815 0,-0.118992 0.04393,-0.214538 0.131911,-0.286781 0.09008,-0.07435 0.209452,-0.111747 0.358193,-0.111747 0.13407,0 0.263867,0.03518 0.389561,0.105304 0.125696,0.07013 0.247314,0.174145 0.364634,0.312265 l 0.39264,-0.372757 c -0.159222,-0.184862 -0.333911,-0.321882 -0.524547,-0.411123 -0.188544,-0.0914 -0.400258,-0.137228 -0.63489,-0.137228 z"
           style="font-style:normal;font-variant:normal;font-weight:normal;font-stretch:normal;font-size:medium;line-height:97.00000286%;font-family:'NewsGoth Dm BT';-inkscape-font-specification:'NewsGoth Dm BT, Normal';font-variant-ligatures:normal;font-variant-caps:normal;font-variant-numeric:normal;font-feature-settings:normal;text-align:start;letter-spacing:0px;word-spacing:0px;writing-mode:lr-tb;text-anchor:start;fill:#003594;fill-opacity:1;stroke:none;stroke-width:0.02709721;stroke-linecap:butt;stroke-linejoin:miter;stroke-miterlimit:4;stroke-dasharray:none;stroke-opacity:1"
           sodipodi:nodetypes="ccscccscsccsccscscccscscccccc" />
      </g>
    </g>
  </g>
</svg>
