<?xml version="1.0" encoding="UTF-8" standalone="no"?>
<!-- Created with Inkscape (http://www.inkscape.org/) -->

<svg
   xmlns:dc="http://purl.org/dc/elements/1.1/"
   xmlns:cc="http://creativecommons.org/ns#"
   xmlns:rdf="http://www.w3.org/1999/02/22-rdf-syntax-ns#"
   xmlns:svg="http://www.w3.org/2000/svg"
   xmlns="http://www.w3.org/2000/svg"
   xmlns:sodipodi="http://sodipodi.sourceforge.net/DTD/sodipodi-0.dtd"
   xmlns:inkscape="http://www.inkscape.org/namespaces/inkscape"
   width="118.60612"
   height="41.838425"
   viewBox="0 0 31.381202 11.06975"
   version="1.1"
   id="svg8"
   inkscape:version="0.92.5 (2060ec1f9f, 2020-04-08)"
   sodipodi:docname="cen_occitanie.svg">
  <defs
     id="defs2">
    <inkscape:path-effect
       effect="skeletal"
       id="path-effect1784"
       is_visible="true"
       pattern="M 0,5 C 0,2.24 2.24,0 5,0 7.76,0 10,2.24 10,5 10,7.76 7.76,10 5,10 2.24,10 0,7.76 0,5 Z"
       copytype="single_stretched"
       prop_scale="0.26458333"
       scale_y_rel="false"
       spacing="0"
       normal_offset="0"
       tang_offset="0"
       prop_units="false"
       vertical_pattern="false"
       fuse_tolerance="0" />
    <inkscape:path-effect
       effect="skeletal"
       id="path-effect1780"
       is_visible="true"
       pattern="M 0,5 C 0,2.24 2.24,0 5,0 7.76,0 10,2.24 10,5 10,7.76 7.76,10 5,10 2.24,10 0,7.76 0,5 Z"
       copytype="single_stretched"
       prop_scale="0.26458333"
       scale_y_rel="false"
       spacing="0"
       normal_offset="0"
       tang_offset="0"
       prop_units="false"
       vertical_pattern="false"
       fuse_tolerance="0" />
    <inkscape:path-effect
       effect="skeletal"
       id="path-effect1776"
       is_visible="true"
       pattern="M 0,5 C 0,2.24 2.24,0 5,0 7.76,0 10,2.24 10,5 10,7.76 7.76,10 5,10 2.24,10 0,7.76 0,5 Z"
       copytype="single_stretched"
       prop_scale="0.19411933"
       scale_y_rel="false"
       spacing="0"
       normal_offset="0"
       tang_offset="0"
       prop_units="false"
       vertical_pattern="false"
       fuse_tolerance="0" />
    <inkscape:path-effect
       effect="skeletal"
       id="path-effect1772"
       is_visible="true"
       pattern="M 0,5 C 0,2.24 2.24,0 5,0 7.76,0 10,2.24 10,5 10,7.76 7.76,10 5,10 2.24,10 0,7.76 0,5 Z"
       copytype="single_stretched"
       prop_scale="0.19213399"
       scale_y_rel="false"
       spacing="0"
       normal_offset="0"
       tang_offset="0"
       prop_units="false"
       vertical_pattern="false"
       fuse_tolerance="0" />
    <inkscape:path-effect
       effect="skeletal"
       id="path-effect1768"
       is_visible="true"
       pattern="M 0,5 C 0,2.24 2.24,0 5,0 7.76,0 10,2.24 10,5 10,7.76 7.76,10 5,10 2.24,10 0,7.76 0,5 Z"
       copytype="single_stretched"
       prop_scale="0.19748026"
       scale_y_rel="false"
       spacing="0"
       normal_offset="0"
       tang_offset="0"
       prop_units="false"
       vertical_pattern="false"
       fuse_tolerance="0" />
    <inkscape:path-effect
       effect="skeletal"
       id="path-effect1391"
       is_visible="true"
       pattern="M 0,5 C 0,2.24 2.24,0 5,0 7.76,0 10,2.24 10,5 10,7.76 7.76,10 5,10 2.24,10 0,7.76 0,5 Z"
       copytype="single_stretched"
       prop_scale="0.26458333"
       scale_y_rel="false"
       spacing="0"
       normal_offset="0"
       tang_offset="0"
       prop_units="false"
       vertical_pattern="false"
       fuse_tolerance="0" />
    <inkscape:path-effect
       fuse_tolerance="0"
       vertical_pattern="false"
       prop_units="false"
       tang_offset="0"
       normal_offset="0"
       spacing="0"
       scale_y_rel="false"
       prop_scale="0.052424569"
       copytype="single_stretched"
       pattern="M 0,5 C 0,2.24 2.24,0 5,0 7.76,0 10,2.24 10,5 10,7.76 7.76,10 5,10 2.24,10 0,7.76 0,5 Z"
       is_visible="true"
       id="path-effect1387"
       effect="skeletal" />
    <inkscape:path-effect
       effect="skeletal"
       id="path-effect1383"
       is_visible="true"
       pattern="M 0,5 C 0,2.24 2.24,0 5,0 7.76,0 10,2.24 10,5 10,7.76 7.76,10 5,10 2.24,10 0,7.76 0,5 Z"
       copytype="single_stretched"
       prop_scale="0.052424569"
       scale_y_rel="false"
       spacing="0"
       normal_offset="0"
       tang_offset="0"
       prop_units="false"
       vertical_pattern="false"
       fuse_tolerance="0" />
    <inkscape:path-effect
       effect="skeletal"
       id="path-effect974"
       is_visible="true"
       pattern="M 0,5 C 0,2.24 2.24,0 5,0 7.76,0 10,2.24 10,5 10,7.76 7.76,10 5,10 2.24,10 0,7.76 0,5 Z"
       copytype="single_stretched"
       prop_scale="0.37932389"
       scale_y_rel="false"
       spacing="0"
       normal_offset="0"
       tang_offset="0"
       prop_units="false"
       vertical_pattern="false"
       fuse_tolerance="0" />
    <inkscape:path-effect
       is_visible="true"
       id="path-effect3852"
       effect="spiro" />
    <inkscape:path-effect
       effect="spiro"
       id="path-effect4098"
       is_visible="true" />
    <inkscape:path-effect
       effect="spiro"
       id="path-effect3842"
       is_visible="true" />
    <inkscape:path-effect
       is_visible="true"
       id="path-effect3073"
       effect="spiro" />
    <inkscape:path-effect
       effect="spiro"
       id="path-effect3071"
       is_visible="true" />
    <inkscape:path-effect
       effect="spiro"
       id="path-effect3031"
       is_visible="true" />
    <inkscape:path-effect
       effect="spiro"
       id="path-effect3035"
       is_visible="true" />
    <inkscape:path-effect
       is_visible="true"
       id="path-effect3027"
       effect="spiro" />
    <inkscape:path-effect
       is_visible="true"
       id="path-effect4354"
       effect="spiro" />
    <inkscape:path-effect
       is_visible="true"
       id="path-effect4175"
       effect="spiro" />
    <inkscape:path-effect
       is_visible="true"
       id="path-effect4173"
       effect="spiro" />
    <inkscape:path-effect
       is_visible="true"
       id="path-effect4171"
       effect="spiro" />
    <inkscape:path-effect
       is_visible="true"
       id="path-effect4169"
       effect="spiro" />
    <inkscape:path-effect
       effect="spiro"
       id="path-effect4159"
       is_visible="true" />
    <inkscape:path-effect
       is_visible="true"
       id="path-effect4155"
       effect="spiro" />
    <inkscape:path-effect
       effect="spiro"
       id="path-effect4151"
       is_visible="true" />
    <inkscape:path-effect
       is_visible="true"
       id="path-effect4147"
       effect="spiro" />
    <clipPath
       clipPathUnits="userSpaceOnUse"
       id="clipPath1191">
      <path
         id="path1193"
         transform="matrix(1.2417348,0,0,1,1025.6517,-61.404632)"
         d="m -1011.5148,520.08562 c 6.8503,-18.54155 14.90868,-40.00089 15.79462,-59.27854 -19.79722,1.11535 -39.58822,6.32734 -59.38542,15.68771 -5.8391,-10.81498 -11.8778,-19.482 -18.3587,-23.23776 9.192,-6.7038 13.5081,-14.79495 18.3587,-22.73917 20.1152,10.00432 39.8385,14.95462 59.26072,15.81236 -1.20561,-20.66871 -6.80532,-41.00635 -15.66992,-61.09483 8.6892,-3.34059 15.97272,-9.46332 22.73922,-16.64927 6.9841,6.81955 14.3393,13.02027 23.2378,16.64927 -9.6085,20.32207 -14.8741,40.66592 -15.7946,60.98799 20.6608,-1.20858 40.996,-6.84424 61.077,-15.70552 3.3406,8.68913 9.4633,15.97273 16.6493,22.73917 -6.8195,6.98418 -13.0203,14.33926 -16.6493,23.23776 -20.3333,-9.61379 -40.6725,-14.84265 -61.0058,-15.75894 1.1182,19.78953 6.3666,39.56023 15.7234,59.34977 -10.815,5.83908 -19.482,11.89569 -23.2378,18.37653 -5.86937,-8.05363 -14.26682,-13.17393 -22.73922,-18.37653 z"
         style="fill:#ffffff;stroke:none"
         inkscape:connector-curvature="0" />
    </clipPath>
  </defs>
  <sodipodi:namedview
     id="base"
     pagecolor="#7c7c7c"
     bordercolor="#4d4d4d"
     borderopacity="1"
     inkscape:pageopacity="0"
     inkscape:pageshadow="2"
     inkscape:zoom="5.8439955"
     inkscape:cx="3.1693074"
     inkscape:cy="-14.20306"
     inkscape:document-units="mm"
     inkscape:current-layer="layer1"
     showgrid="false"
     showguides="true"
     inkscape:guide-bbox="true"
     inkscape:snap-global="true"
     inkscape:snap-page="true"
     inkscape:object-paths="true"
     inkscape:snap-intersection-paths="true"
     inkscape:snap-to-guides="false"
     inkscape:snap-grids="false"
     fit-margin-top="0"
     fit-margin-left="0"
     fit-margin-right="0"
     fit-margin-bottom="0"
     units="px"
     inkscape:window-width="1600"
     inkscape:window-height="830"
     inkscape:window-x="1150"
     inkscape:window-y="1080"
     inkscape:window-maximized="1" />
  <metadata
     id="metadata5">
    <rdf:RDF>
      <cc:Work
         rdf:about="">
        <dc:format>image/svg+xml</dc:format>
        <dc:type
           rdf:resource="http://purl.org/dc/dcmitype/StillImage" />
        <dc:title></dc:title>
      </cc:Work>
    </rdf:RDF>
  </metadata>
  <g
     inkscape:label="Calque 1"
     inkscape:groupmode="layer"
     id="layer1"
     transform="translate(-97.683588,-195.95948)">
    <path
       inkscape:connector-curvature="0"
       id="rect938"
       d="m 97.683588,195.95948 h 31.381202 v 11.06975 H 97.683588 Z"
       style="opacity:1;vector-effect:none;fill:#ffffff;fill-opacity:1;fill-rule:evenodd;stroke:none;stroke-width:0.05311595px;stroke-linecap:butt;stroke-linejoin:miter;stroke-miterlimit:4;stroke-dasharray:none;stroke-dashoffset:0;stroke-opacity:1" />
    <g
       id="g73"
       transform="translate(8.37419,-10.775315)">
      <g
         inkscape:export-ydpi="300"
         inkscape:export-xdpi="300"
         id="g950"
         transform="matrix(0.31818181,0,0,0.31818181,75.780765,192.27346)">
        <path
           style="fill:#84bd00;fill-opacity:1;fill-rule:evenodd;stroke:none;stroke-width:0.151172;stroke-linecap:butt;stroke-linejoin:miter;stroke-miterlimit:4;stroke-dasharray:none;stroke-opacity:1"
           d="m 194.28125,179.52148 c -6.67691,0.008 -13.9613,0.59136 -19.29492,3.26758 -5.82747,2.92401 -6.37051,10.36014 -6.10352,16.40625 0.44429,10.06094 0.70402,22.09056 1.75391,30.08399 6.0324,3.38813 9.45678,9.97858 13.91406,14.40039 3.54001,3.51183 7.9918,5.42292 12.70313,5.20117 4.66164,-0.21941 9.87906,-1.42088 13.42382,-4.58984 5.85998,-5.23874 7.81437,-9.87838 10.26758,-20.17188 2.15864,-9.0575 0.27897,-19.74073 12.01563,-20.16211 3.44145,-6.43144 2.29916,-11.01929 1.72656,-14.04492 -1.85262,-9.78939 -20.70972,-10.03455 -37.58984,-10.36328 -0.92164,-0.018 -1.86257,-0.0285 -2.81641,-0.0274 z m 2.3125,2.41016 a 2.4127994,2.4127994 0 0 1 2.41406,2.41211 2.4127994,2.4127994 0 0 1 -0.88476,1.86523 c 0.12229,0.16245 0.23088,0.33753 0.35937,0.49414 v 42.25586 c -0.16369,0.20637 -0.31958,0.41938 -0.47265,0.63672 a 2.4127994,2.4127994 0 0 1 0.92382,1.89649 2.4127994,2.4127994 0 0 1 -2.41211,2.41406 2.4127994,2.4127994 0 0 1 -2.41406,-2.41406 2.4127994,2.4127994 0 0 1 0.94922,-1.91602 c -1.50408,-1.99336 -3.46314,-3.55864 -6.13476,-4.45312 a 2.4127994,2.4127994 0 0 1 -2.29297,1.66211 2.4127994,2.4127994 0 0 1 -2.41211,-2.41211 2.4127994,2.4127994 0 0 1 2.41211,-2.41211 2.4127994,2.4127994 0 0 1 1.27148,0.36328 c 1.89429,-2.1061 3.38901,-5.05021 4.84375,-10.75977 -5.68628,1.22159 -8.70952,3.04176 -10.76562,5.08008 a 2.4127994,2.4127994 0 0 1 0.5371,1.51758 2.4127994,2.4127994 0 0 1 -2.4121,2.41406 2.4127994,2.4127994 0 0 1 -2.41211,-2.41406 2.4127994,2.4127994 0 0 1 1.82226,-2.33594 c -0.86755,-3.02039 -2.48822,-4.99074 -4.61133,-6.48828 a 2.4127994,2.4127994 0 0 1 -1.91796,0.95703 2.4127994,2.4127994 0 0 1 -2.41407,-2.41406 2.4127994,2.4127994 0 0 1 2.41407,-2.41211 2.4127994,2.4127994 0 0 1 1.89843,0.92578 c 1.99882,-1.49793 3.57147,-3.44923 4.47461,-6.11133 a 2.4127994,2.4127994 0 0 1 -1.66601,-2.29297 2.4127994,2.4127994 0 0 1 2.41211,-2.41211 2.4127994,2.4127994 0 0 1 2.4121,2.41211 2.4127994,2.4127994 0 0 1 -0.33593,1.22461 c 2.10571,1.89173 5.04978,3.38454 10.7539,4.83789 -1.21838,-5.67132 -3.03264,-8.69224 -5.06445,-10.74804 a 2.4127994,2.4127994 0 0 1 -1.55664,0.57226 2.4127994,2.4127994 0 0 1 -2.41211,-2.41406 2.4127994,2.4127994 0 0 1 2.41211,-2.41211 2.4127994,2.4127994 0 0 1 2.32812,1.7793 c 3.01592,-0.8593 4.99147,-2.46457 6.49024,-4.57227 a 2.4127994,2.4127994 0 0 1 -0.94922,-1.91406 2.4127994,2.4127994 0 0 1 2.41211,-2.41211 z m 9.89258,7.11914 a 2.4127994,2.4127994 0 0 1 2.41211,2.41211 2.4127994,2.4127994 0 0 1 -2.41211,2.41406 2.4127994,2.4127994 0 0 1 -2.41406,-2.41406 2.4127994,2.4127994 0 0 1 2.41406,-2.41211 z m -5.33985,0.10547 c 0.71679,0.48769 1.50344,0.91029 2.36914,1.25781 v 5.51367 c -0.84639,1.46365 -1.6197,3.30877 -2.36914,5.78711 z m 11.86524,6.10547 a 2.4127994,2.4127994 0 0 1 2.41406,2.41211 2.4127994,2.4127994 0 0 1 -1.84375,2.34179 v 15.49024 a 2.4127994,2.4127994 0 0 1 1.84375,2.33984 2.4127994,2.4127994 0 0 1 -2.41406,2.41407 2.4127994,2.4127994 0 0 1 -2.41211,-2.41407 2.4127994,2.4127994 0 0 1 0.61328,-1.60351 v -16.96485 a 2.4127994,2.4127994 0 0 1 -0.61328,-1.60351 2.4127994,2.4127994 0 0 1 2.41211,-2.41211 z m -4.46289,5.99414 v 13.55664 c -0.6953,-0.40066 -1.47499,-0.78685 -2.36914,-1.16016 v -11.17382 c 0.89028,-0.38531 1.67345,-0.79357 2.36914,-1.22266 z m -5.03321,2.19531 v 9.23047 c -0.72861,-0.23372 -1.51673,-0.46381 -2.36914,-0.69336 v -7.90234 c 0.85139,-0.19795 1.63691,-0.41002 2.36914,-0.63477 z m 12.73047,1.25781 c 0.59755,0.65551 1.26706,1.23019 1.9961,1.74805 a 2.4127994,2.4127994 0 0 1 1.89062,-0.91406 2.4127994,2.4127994 0 0 1 2.41211,2.41211 2.4127994,2.4127994 0 0 1 -2.41211,2.41211 2.4127994,2.4127994 0 0 1 -1.89648,-0.91992 c -0.72428,0.54904 -1.39229,1.15652 -1.99024,1.83984 z m -15.09961,10.4336 c 0.68943,2.16094 1.49178,3.81704 2.36914,5.14258 v 5.02539 c -0.88182,0.32698 -1.66483,0.72679 -2.36914,1.18945 z m 5.65625,6.81836 a 2.4127994,2.4127994 0 0 1 2.41211,2.41211 2.4127994,2.4127994 0 0 1 -2.41211,2.41211 2.4127994,2.4127994 0 0 1 -2.41406,-2.41211 2.4127994,2.4127994 0 0 1 2.41406,-2.41211 z"
           transform="scale(0.26458333)"
           id="path940"
           inkscape:connector-curvature="0" />
        <path
           inkscape:connector-curvature="0"
           id="path942"
           transform="matrix(0.21165391,0,0,0.21165391,13.157849,18.35609)"
           d="m 224.47737,195.42865 c -1.28985,6.38312 -2.9882,11.50249 -5.0313,17.47137 -2.26845,6.62725 -4.97641,11.98765 -9.59255,16.81287 -4.37225,4.57029 -10.64826,5.12501 -15.32821,6.28324 -4.11609,1.01869 -3.70758,6.31405 3.52348,9.97026 5.88841,2.97734 20.83102,4.76309 27.24646,1.54569 7.21532,-3.61854 10.45562,-12.97086 11.9665,-22.9973 1.35662,-9.00279 1.9558,-28.27177 -2.37071,-37.43592 -2.33763,-4.95143 -4.56235,-5.95866 -6.12932,-5.18081 -1.54628,0.76757 -3.47897,9.54503 -4.28435,13.5306 z"
           style="fill:#003594;fill-opacity:1;fill-rule:evenodd;stroke:none;stroke-width:0.18897638;stroke-linecap:butt;stroke-linejoin:miter;stroke-miterlimit:4;stroke-dasharray:none;stroke-opacity:1" />
        <path
           inkscape:connector-curvature="0"
           id="path944"
           transform="matrix(0.21165391,0,0,0.21165391,13.157849,18.35609)"
           d="m 148.48356,215.26717 c -0.939,12.08971 -4.53735,19.48768 -1.24574,24.68274 5.41195,8.54155 27.8967,5.43397 31.6002,-3.38224 -13.78921,0.20759 -21.74139,-17.7067 -30.35446,-21.3005 z"
           style="fill:#e57200;fill-opacity:1;fill-rule:nonzero;stroke:none;stroke-width:0.18897638;stroke-linecap:butt;stroke-linejoin:miter;stroke-miterlimit:4;stroke-dasharray:none;stroke-opacity:1" />
        <path
           inkscape:connector-curvature="0"
           id="path946"
           transform="matrix(0.21165391,0,0,0.21165391,11.977374,-16.097437)"
           d="m 270.04883,320.00195 c -4.02588,0 -7.17098,1.50406 -9.43555,4.51172 -2.26457,2.99286 -3.39648,7.16311 -3.39648,12.51172 0,5.49676 1.09654,9.70426 3.28711,12.62305 2.20535,2.90393 5.38583,4.35742 9.54492,4.35742 3.06382,0 5.58891,-0.81552 7.57226,-2.44531 1.42861,-1.18462 2.56112,-2.77998 3.39844,-4.78711 0.31063,-0.82973 0.41268,-2.39375 -0.33594,-2.63867 l -3.57031,0.0117 c -0.4692,1.57902 -1.12778,2.96967 -2.17969,3.92579 -1.27289,1.15564 -2.85543,1.73242 -4.75,1.73242 -2.6494,0 -4.67119,-1.08101 -6.0625,-3.24414 -1.3913,-2.17799 -2.08593,-5.34174 -2.08593,-9.49024 0,-4.17816 0.68128,-7.39915 2.04296,-9.66601 1.36173,-2.26687 3.28492,-3.40039 5.77149,-3.40039 1.85015,0 3.35999,0.53285 4.5293,1.59961 0.90578,0.81602 1.6037,2.12118 2.09375,3.55273 l 4.70507,-0.002 c -0.7001,-2.88721 -1.96009,-5.30303 -3.77929,-6.79688 -1.89452,-1.57048 -4.34495,-2.35547 -7.34961,-2.35547 z m 199.36133,0.44532 v 4.60156 h 4.53125 v -4.60156 z m -36.81055,1.36132 v 26.89649 c 0,1.71899 0.43872,2.99434 1.31641,3.82422 0.87772,0.81494 2.2383,1.2207 4.08007,1.2207 0.80579,0 1.52514,-0.0355 2.15821,-0.10938 2.18435,-0.35636 1.86373,-1.54385 1.96484,-3.93554 -0.34531,0.10371 -0.99452,0.17827 -1.38281,0.22265 -0.3885,0.0316 -0.84138,0.0449 -1.35938,0.0449 -0.97842,0 -1.66249,-0.20822 -2.05078,-0.62305 -0.37428,-0.42973 -0.56055,-1.2364 -0.56055,-2.42188 v -13.82617 h 5.07227 v -3.64648 h -5.07227 v -7.64649 z m -112.99219,7.125 c -6.75579,0.0458 -11.22265,4.87365 -11.22265,6.38672 v 15.85157 c 0,2.36066 4.14453,2.85163 4.14453,0 v -15.50391 c 1.00722,-1.05215 1.99302,-1.8368 2.95703,-2.35547 0.97842,-0.53348 1.91968,-0.80078 2.82617,-0.80078 1.16548,0 2.02157,0.37897 2.56836,1.13476 0.56117,0.74094 0.8418,1.89598 0.8418,3.4668 v 14.0586 c 0,2.24867 4.20898,2.77293 4.20898,0 v -15.23633 c 0,-2.23763 -0.55418,-3.96451 -1.66211,-5.17969 -1.10797,-1.21514 -2.66216,-1.83507 -4.66211,-1.82227 z m 18.28711,0.0137 c -2.23533,0 -4.05448,0.62239 -5.45703,1.86718 -1.38795,1.22995 -2.08203,2.80792 -2.08203,4.73438 0,1.58562 0.46731,2.89625 1.40234,3.93359 0.93504,1.02249 2.60198,2.00001 4.99805,2.9336 0.29222,0.11851 0.69372,0.27431 1.20508,0.46679 3.03887,1.12624 4.55859,2.4608 4.55859,4.00196 0,0.9632 -0.3652,1.75652 -1.0957,2.3789 -0.7159,0.60753 -1.65243,0.91016 -2.80664,0.91016 -1.13957,0 -2.20574,-0.29592 -3.19922,-0.88867 -0.53543,-0.31949 -1.06517,-0.62787 -1.58789,-1.13672 h -3.44531 c -0.79219,0 -1.25251,0.36084 -0.77149,1.09179 0.59249,0.90047 2.14565,2.44588 3.67969,3.2461 1.54868,0.78545 3.25,1.17773 5.10547,1.17773 2.48367,0 4.48642,-0.65104 6.00586,-1.95508 1.51944,-1.31888 2.27734,-3.04577 2.27734,-5.17968 0,-1.73381 -0.53993,-3.14952 -1.62109,-4.2461 -1.06653,-1.11142 -3.12621,-2.24453 -6.17969,-3.40039 -1.79706,-0.68165 -2.9653,-1.26681 -3.50586,-1.75586 -0.54073,-0.50381 -0.81055,-1.13487 -0.81055,-1.89062 0,-0.82988 0.30632,-1.49618 0.91993,-2 0.62825,-0.51854 1.46072,-0.77735 2.49804,-0.77735 0.93503,0 1.84021,0.24338 2.7168,0.73243 0.87659,0.489 1.72478,1.21644 2.54297,2.17968 l 2.73828,-2.60156 c -1.11037,-1.28922 -2.3287,-2.24481 -3.6582,-2.86719 -1.31491,-0.63744 -2.79141,-0.95507 -4.42774,-0.95507 z m 81.02344,0.13281 c -2.10073,0 -3.87684,0.40095 -5.33008,1.20117 -1.45328,0.80022 -2.83624,1.96142 -3.77148,3.62109 h 4.96679 c 0.90649,-0.54828 2.63796,-1.26562 3.78907,-1.26562 1.25184,0 2.25181,0.29591 3,0.88867 0.7481,0.57795 1.12304,1.36456 1.12304,2.35742 v 1.79883 c -4.77701,0.81503 -8.2369,1.9787 -10.38086,3.49024 -2.12953,1.51153 -3.19531,3.52766 -3.19531,6.04687 0,1.97093 0.56835,3.54223 1.70508,4.71289 1.1511,1.15586 2.69109,1.73242 4.61914,1.73242 1.2806,0 2.51861,-0.25204 3.71289,-0.75586 1.19424,-0.51867 2.32393,-1.28138 3.38867,-2.28906 l 0.45313,2.73438 c 2.84303,0 4.19084,0.54343 3.79883,-3.60157 v -13.60351 c 0,-2.1932 -0.70514,-3.92013 -2.11524,-5.17969 -1.39572,-1.25961 -3.31758,-1.88867 -5.76367,-1.88867 z m -34.51758,0.041 c -1.33816,0 -2.52456,0.42294 -3.56055,1.26758 -1.03598,0.82988 -1.94371,2.10327 -2.7207,3.82227 v -4.77735 h -4.09961 v 21.83203 c 0,2.44415 4.27344,2.56962 4.27344,0 v -11.83007 c 0.70505,-1.86718 1.61082,-3.30483 2.71875,-4.3125 1.1223,-1.00768 2.36745,-1.51172 3.73437,-1.51172 h 0.36524 v -4.44531 l 0.002,-0.002 c -0.0862,-0.0128 -0.18055,-0.0215 -0.28125,-0.0215 -0.10057,-0.0128 -0.24475,-0.0215 -0.43164,-0.0215 z m 105.98828,0 c -1.33816,0 -2.52456,0.42294 -3.56055,1.26758 -1.03598,0.82988 -1.94176,2.10327 -2.71874,3.82227 v -4.77735 h -4.10157 v 21.83203 c 0,2.44415 4.27344,2.56962 4.27344,0 v -11.83007 c 0.70505,-1.86718 1.61082,-3.30483 2.71875,-4.3125 1.1223,-1.00768 2.36745,-1.51172 3.73438,-1.51172 h 0.36718 v -4.44531 -0.002 c -0.0862,-0.0128 -0.18055,-0.0215 -0.28125,-0.0215 -0.10057,-0.0128 -0.24475,-0.0215 -0.43164,-0.0215 z m -196.0957,0.0606 c -3.11211,0 -5.542,1.08098 -7.28711,3.24414 -1.73057,2.16313 -2.5957,5.19318 -2.5957,9.08984 0,3.91146 0.86513,6.95682 2.5957,9.13477 1.74511,2.16316 4.175,3.24414 7.28711,3.24414 3.11211,0 5.52614,-1.08098 7.24219,-3.24414 1.73056,-2.17795 2.5957,-5.22331 2.5957,-9.13477 0,-3.89666 -0.86514,-6.92671 -2.5957,-9.08984 -1.71605,-2.16316 -4.13008,-3.24414 -7.24219,-3.24414 z m 160.21875,0 c -3.1374,0 -5.58641,1.08098 -7.3457,3.24414 -1.74463,2.16313 -2.61524,5.19318 -2.61524,9.08984 0,3.91146 0.87061,6.95682 2.61524,9.13477 1.75929,2.16316 4.2083,3.24414 7.3457,3.24414 3.1374,0 5.57079,-1.08098 7.30078,-3.24414 1.74463,-2.17795 2.61719,-5.22331 2.61719,-9.13477 0,-3.89666 -0.87256,-6.92671 -2.61719,-9.08984 -1.72999,-2.16316 -4.16338,-3.24414 -7.30078,-3.24414 z m -94.68164,0.0625 c -3.1033,0 -5.49628,1.09587 -7.17969,3.28906 -1.68341,2.1932 -2.52539,5.30519 -2.52539,9.33594 0,3.91219 0.85764,6.90584 2.57031,8.98047 1.71267,2.07463 4.17803,3.11133 7.39844,3.11133 2.02009,0 3.80303,-0.44459 5.33594,-1.35547 0.68608,-0.40771 4.9873,-4.12731 2.25976,-4.05859 l -3.00781,-0.0391 c -0.33617,0.34864 -0.69353,0.64725 -1.07422,0.89649 -0.95146,0.62246 -2.04186,0.93359 -3.27148,0.93359 -1.88834,0 -3.34449,-0.651 -4.36914,-1.95508 -1.0247,-1.31888 -1.53711,-3.17079 -1.53711,-5.55664 v -0.46679 h 14.57812 0.002 c 0,-0.1335 0.009,-0.33483 0.0215,-0.60157 0.0127,-0.28138 0.0215,-0.48751 0.0215,-0.62109 0,-3.70473 -0.8195,-6.61059 -2.45898,-8.71484 -1.63948,-2.11911 -3.89457,-3.17774 -6.76367,-3.17774 z m 142.44336,0 c -3.1033,0 -5.49628,1.09587 -7.17969,3.28906 -1.68341,2.1932 -2.52539,5.30519 -2.52539,9.33594 0,3.91219 0.85569,6.90584 2.56836,8.98047 1.71267,2.07463 4.17998,3.11133 7.40039,3.11133 2.02009,0 3.80108,-0.44459 5.33398,-1.35547 0.68608,-0.40771 4.98926,-4.12731 2.26172,-4.05859 l -3.00781,-0.0391 c -0.33617,0.34864 -0.69548,0.64725 -1.07617,0.89649 -0.95147,0.62246 -2.04186,0.93359 -3.27149,0.93359 -1.88834,0 -3.34449,-0.651 -4.36914,-1.95508 -1.02469,-1.31888 -1.53711,-3.17079 -1.53711,-5.55664 v -0.46679 h 14.58008 0.002 c 0,-0.1335 0.009,-0.33483 0.0215,-0.60157 0.0127,-0.28138 0.0195,-0.48751 0.0195,-0.62109 0,-3.70473 -0.8195,-6.61059 -2.45898,-8.71484 -1.63949,-2.11911 -3.89262,-3.17774 -6.76172,-3.17774 z m -114.57813,0.35938 7.11328,21.94921 c 0.80344,2.47817 5.15458,2.76811 6.03711,0.0371 l 7.10547,-21.98632 h -4.29297 l -4.44726,14.2246 c -0.0444,0.13352 -0.11129,0.33292 -0.19922,0.59961 -0.54328,1.77795 -0.94672,3.25139 -1.21094,4.42188 -0.24963,-0.97788 -0.49862,-1.89652 -0.74805,-2.75586 -0.23479,-0.87415 -0.44801,-1.62188 -0.63867,-2.24414 l -4.42578,-14.24609 z m 81.92969,0 v 21.83593 c 0,2.3502 4.14453,2.55528 4.14453,0 V 329.60358 Z M 359.69922,332.711 c 1.50774,0 2.69985,0.56321 3.57812,1.68945 0.89304,1.11143 1.36241,2.65412 1.40625,4.625 l -10.21093,0.0215 c 0.0878,-2.01536 0.58656,-3.57136 1.49414,-4.66797 0.90753,-1.11139 2.15149,-1.66797 3.73242,-1.66797 z m 142.4414,0 c 1.50774,0 2.7018,0.56321 3.58008,1.68945 0.89304,1.11143 1.36046,2.65412 1.4043,4.625 l -10.20898,0.0215 c 0.0878,-2.01536 0.58461,-3.57136 1.49218,-4.66797 0.90754,-1.11139 2.1515,-1.66797 3.73242,-1.66797 z m -207.84765,0.20508 c 1.81782,0 3.19035,0.7324 4.12109,2.19921 0.94527,1.45196 1.41797,3.60062 1.41797,6.44532 0,2.81508 -0.4727,4.95509 -1.41797,6.42187 -0.94529,1.46681 -2.31782,2.20117 -4.12109,2.20117 -1.81782,0 -3.19927,-0.73436 -4.14453,-2.20117 -0.93075,-1.46678 -1.39649,-3.6221 -1.39649,-6.4668 0,-2.8299 0.46574,-4.96991 1.39649,-6.42187 0.94526,-1.45199 2.32671,-2.17773 4.14453,-2.17773 z m 160.21875,0 c 1.83259,0 3.21794,0.7324 4.15625,2.19921 0.95295,1.45196 1.42969,3.60062 1.42969,6.44532 0,2.81508 -0.47674,4.95509 -1.42969,6.42187 -0.95298,1.46681 -2.33832,2.20117 -4.15625,2.20117 -1.8326,0 -3.22479,-0.73436 -4.17774,-2.20117 -0.93831,-1.46678 -1.4082,-3.6221 -1.4082,-6.4668 0,-2.8299 0.46989,-4.96991 1.4082,-6.42187 0.95295,-1.45199 2.34514,-2.17773 4.17774,-2.17773 z m -31.92383,8.18945 v 5.86914 c -1.13672,1.06696 -2.20961,1.86691 -3.2168,2.40039 -1.00718,0.53348 -1.94844,0.80078 -2.82617,0.80078 -1.00723,0 -1.80655,-0.28256 -2.39648,-0.8457 -0.58985,-0.57795 -0.88477,-1.36265 -0.88477,-2.35547 0,-1.45226 0.73351,-2.64649 2.20117,-3.58008 1.46766,-0.93359 3.84241,-1.6963 7.12305,-2.28906 z m -136.95898,21.94336 a 2.018119,5.584051 0 0 0 -2.01758,5.58398 2.018119,5.584051 0 0 0 2.01758,5.58399 2.018119,5.584051 0 0 0 2.01757,-5.58399 2.018119,5.584051 0 0 0 -2.01757,-5.58398 z m -13.18164,0.12109 v 11.67383 c -0.70415,-0.97469 -1.53962,-1.70603 -2.50782,-2.19336 -0.9682,-0.48736 -2.0841,-0.73047 -3.3457,-0.73047 -2.91927,0 -5.21437,1.08494 -6.88672,3.25586 -1.65767,2.15615 -2.48633,5.13905 -2.48633,8.94922 0,3.79539 0.83547,6.80041 2.50782,9.01562 1.67234,2.21522 3.93141,3.32422 6.77734,3.32422 1.33495,0 2.53167,-0.25851 3.58789,-0.77539 1.05622,-0.53165 2.00173,-1.34465 2.83789,-2.4375 l 0.72656,2.81446 h 3.32227 c -0.0882,-0.98947 -0.16212,-2.03887 -0.2207,-3.14649 -0.0586,-1.10759 -0.0879,-2.25214 -0.0879,-3.43359 v -26.31641 z m 304.86132,0.32422 v 30.65234 c 0,2.39105 4.14258,2.39054 4.14258,0 V 363.4942 Z m -73.69921,1.08984 v 26.89649 c 0,1.71899 0.43871,2.99239 1.3164,3.82226 0.87773,0.81495 2.2383,1.22266 4.08008,1.22266 0.80579,0 1.52513,-0.0375 2.1582,-0.11133 2.18436,-0.35636 1.86373,-1.5419 1.96485,-3.93359 -0.34532,0.10371 -0.99453,0.17827 -1.38282,0.22265 -0.38849,0.0316 -0.84138,0.0449 -1.35937,0.0449 -0.97843,0 -1.66249,-0.20822 -2.05078,-0.62305 -0.37428,-0.42973 -0.56055,-1.23835 -0.56055,-2.42383 V 375.875 h 5.07227 v -3.64453 h -5.07227 v -7.64649 z m -156.84766,7.20899 c -1.25572,0 -2.39473,0.25732 -3.41406,0.77344 -1.00457,0.51611 -1.96496,1.33439 -2.88086,2.45507 l -0.59766,-2.80859 h -3.21289 v 30.51758 c 0,2.66176 4.25391,2.56595 4.25391,0 v -9.19531 c 0.73865,0.95845 1.58859,1.66592 2.54882,2.12304 0.96024,0.45721 2.04639,0.68555 3.25782,0.68555 3.04323,0 5.42107,-1.0689 7.13476,-3.20703 1.72846,-2.15291 2.59375,-5.13785 2.59375,-8.95703 0,-3.84865 -0.86529,-6.87124 -2.59375,-9.06836 -1.72845,-2.21186 -4.0909,-3.31836 -7.08984,-3.31836 z m 45.3164,0.002 c -2.94187,0 -5.26804,1.12 -6.98046,3.36133 -1.6978,2.22663 -2.54688,5.29353 -2.54688,9.20117 0,3.84865 0.82659,6.81344 2.48047,8.89258 1.6685,2.06441 4.04654,3.0957 7.13477,3.0957 2.18077,0 4.03253,-0.50119 5.55468,-1.5039 0.95167,-0.62691 1.78678,-1.45598 2.50391,-2.48633 0.52226,-0.85828 0.29931,-1.2217 -0.28125,-1.35547 h -3.6543 c -0.2285,0.23438 -0.46947,0.44086 -0.7207,0.63281 -0.966,0.73733 -2.04104,1.10547 -3.22656,1.10547 -1.84415,0 -3.21951,-0.71417 -4.12696,-2.14453 -0.90744,-1.4451 -1.36132,-3.62046 -1.36132,-6.52539 0,-2.78696 0.46755,-4.92476 1.40429,-6.41406 0.9367,-1.48935 2.28467,-2.23438 4.04102,-2.23438 1.18552,0 2.18821,0.35469 3.00781,1.0625 0.83427,0.69308 1.46229,1.71763 1.88672,3.07422 l 3.82031,-1.46094 c -0.7172,-2.06353 -1.83765,-3.62415 -3.35937,-4.68554 -1.52215,-1.07644 -3.38077,-1.61524 -5.57618,-1.61524 z m -89.14062,0.0137 c -3.10329,0 -5.49628,1.09587 -7.17969,3.28907 -1.68341,2.19319 -2.52539,5.30518 -2.52539,9.33593 0,3.91219 0.85764,6.90584 2.57031,8.98047 1.71267,2.07464 4.17803,3.11133 7.39844,3.11133 2.02009,0 3.80303,-0.44459 5.33594,-1.35547 0.68608,-0.4077 4.9873,-4.1273 2.25977,-4.05859 l -3.00782,-0.0391 c -0.33617,0.34863 -0.69353,0.64724 -1.07422,0.89648 -0.95146,0.62246 -2.04186,0.93359 -3.27148,0.93359 -1.88834,0 -3.34449,-0.651 -4.36914,-1.95507 -1.02469,-1.31889 -1.53711,-3.17275 -1.53711,-5.5586 v -0.46679 h 14.57812 0.002 c 0,-0.1335 0.009,-0.33288 0.0215,-0.59961 0.0127,-0.28138 0.0215,-0.48947 0.0215,-0.62305 0,-3.70473 -0.8195,-6.60864 -2.45899,-8.71289 -1.63948,-2.11911 -3.89456,-3.17774 -6.76367,-3.17774 z m 110.20312,0 c -3.10329,0 -5.49627,1.09587 -7.17968,3.28907 -1.68341,2.19319 -2.52539,5.30518 -2.52539,9.33593 0,3.91219 0.85764,6.90584 2.57031,8.98047 1.71267,2.07464 4.17803,3.11133 7.39844,3.11133 2.02008,0 3.80303,-0.44459 5.33593,-1.35547 0.68608,-0.4077 4.98731,-4.1273 2.25977,-4.05859 l -3.00781,-0.0391 c -0.33617,0.34863 -0.69353,0.64724 -1.07422,0.89648 -0.95147,0.62246 -2.04186,0.93359 -3.27149,0.93359 -1.88834,0 -3.34449,-0.651 -4.36914,-1.95507 -1.02469,-1.31889 -1.53711,-3.17275 -1.53711,-5.5586 v -0.46679 h 14.57813 0.002 c 0,-0.1335 0.009,-0.33288 0.0215,-0.59961 0.0126,-0.28138 0.0215,-0.48947 0.0215,-0.62305 0,-3.70473 -0.8195,-6.60864 -2.45898,-8.71289 -1.63949,-2.11911 -3.89457,-3.17774 -6.76368,-3.17774 z m 150.23829,0 c -3.1033,0 -5.49628,1.09587 -7.17969,3.28907 -1.68341,2.19319 -2.52539,5.30518 -2.52539,9.33593 0,3.91219 0.85764,6.90584 2.57031,8.98047 1.71267,2.07464 4.17803,3.11133 7.39844,3.11133 2.02008,0 3.80303,-0.44459 5.33594,-1.35547 0.68608,-0.4077 4.9873,-4.1273 2.25976,-4.05859 l -3.00586,-0.0391 c -0.33617,0.34863 -0.69548,0.64724 -1.07617,0.89648 -0.95146,0.62246 -2.04186,0.93359 -3.27148,0.93359 -1.88835,0 -3.34449,-0.651 -4.36915,-1.95507 -1.02469,-1.31889 -1.5371,-3.17275 -1.5371,-5.5586 v -0.46679 h 14.58007 0.002 c 0,-0.1335 0.007,-0.33288 0.0195,-0.59961 0.0127,-0.28138 0.0215,-0.48947 0.0215,-0.62305 0,-3.70473 -0.8195,-6.60864 -2.45898,-8.71289 -1.63949,-2.11911 -3.89457,-3.17774 -6.76367,-3.17774 z m -193.69922,0.0469 c -2.10073,0 -3.87879,0.399 -5.33203,1.19922 -1.45329,0.80022 -2.83429,1.96337 -3.76954,3.62304 h 4.96485 c 0.90649,-0.54828 2.63991,-1.26562 3.79101,-1.26562 1.25185,0 2.25182,0.29591 3,0.88867 0.74811,0.57795 1.12305,1.3626 1.12305,2.35547 v 1.80078 c -4.77701,0.81503 -8.23886,1.9787 -10.38281,3.49024 -2.12953,1.51153 -3.19336,3.52766 -3.19336,6.04687 0,1.97093 0.56835,3.54027 1.70508,4.71094 1.1511,1.15585 2.69108,1.73437 4.61914,1.73437 1.2806,0 2.51665,-0.25204 3.71094,-0.75586 1.19424,-0.51867 2.32392,-1.28138 3.38867,-2.28906 l 0.45312,2.73438 c 2.84304,0 4.19085,0.54343 3.79883,-3.60157 v -13.60351 c 0,-2.1932 -0.70513,-3.92013 -2.11523,-5.17969 -1.39573,-1.25961 -3.31563,-1.88867 -5.76172,-1.88867 z m 120.10547,0 c -2.10074,0 -3.87684,0.399 -5.33008,1.19922 -1.45328,0.80022 -2.83624,1.96337 -3.77149,3.62304 h 4.9668 c 0.90649,-0.54828 2.63796,-1.26562 3.78906,-1.26562 1.25185,0 2.25377,0.29591 3.00196,0.88867 0.7481,0.57795 1.12109,1.3626 1.12109,2.35547 v 1.80078 c -4.77702,0.81503 -8.23691,1.9787 -10.38086,3.49024 -2.12953,1.51153 -3.19531,3.52766 -3.19531,6.04687 0,1.97093 0.56835,3.54027 1.70508,4.71094 1.1511,1.15585 2.69108,1.73437 4.61914,1.73437 1.2806,0 2.5186,-0.25204 3.71289,-0.75586 1.19424,-0.51867 2.32392,-1.28138 3.38867,-2.28906 l 0.45312,2.73438 c 2.84304,0 4.19085,0.54343 3.79883,-3.60157 v -13.60351 c 0,-2.1932 -0.70513,-3.92013 -2.11523,-5.17969 -1.39572,-1.25961 -3.31759,-1.88867 -5.76367,-1.88867 z m -20.14844,0.0644 c -6.75579,0.0458 -11.22461,4.87365 -11.22461,6.38672 v 15.84961 c 0,2.36066 4.14453,2.85163 4.14453,0 V 378.6543 c 1.00723,-1.05215 1.99303,-1.8368 2.95703,-2.35547 0.97843,-0.53348 1.92164,-0.80078 2.82813,-0.80078 1.16548,0 2.02156,0.37702 2.56836,1.13281 0.56117,0.74094 0.84179,1.89793 0.84179,3.46875 v 14.05664 c 0,2.24868 4.20703,2.77294 4.20703,0 v -15.23437 c 0,-2.23763 -0.55223,-3.96451 -1.66015,-5.17969 -1.10797,-1.21514 -2.66216,-1.83507 -4.66211,-1.82227 z m -146.49219,0.0117 c -2.23533,0 -4.05448,0.62239 -5.45703,1.86719 -1.38795,1.22994 -2.08203,2.80792 -2.08203,4.73437 0,1.58563 0.46731,2.89821 1.40234,3.93555 0.93504,1.02249 2.60198,2.00001 4.99805,2.93359 0.29222,0.11852 0.69372,0.27432 1.20508,0.4668 3.03887,1.12624 4.55859,2.45885 4.55859,4 0,0.96321 -0.3652,1.75653 -1.0957,2.37891 -0.7159,0.60752 -1.65243,0.91211 -2.80664,0.91211 -1.13957,0 -2.20574,-0.29592 -3.19922,-0.88868 -0.53543,-0.31949 -1.06517,-0.62786 -1.58789,-1.13671 h -3.44531 c -0.79219,0 -1.25251,0.35889 -0.77149,1.08984 0.59249,0.90047 2.14565,2.44588 3.67969,3.24609 1.54868,0.78545 3.25,1.17969 5.10547,1.17969 2.48367,0 4.48642,-0.653 6.00586,-1.95703 1.51944,-1.31889 2.27929,-3.04577 2.27929,-5.17969 0,-1.7338 -0.54188,-3.14756 -1.62304,-4.24414 -1.06653,-1.11143 -3.12621,-2.24649 -6.17969,-3.40234 -1.79706,-0.68166 -2.9653,-1.26681 -3.50586,-1.75586 -0.54073,-0.50382 -0.81055,-1.13293 -0.81055,-1.88867 0,-0.82988 0.30632,-1.49619 0.91993,-2 0.62825,-0.51854 1.46072,-0.7793 2.49804,-0.7793 0.93503,0 1.84021,0.24532 2.7168,0.73437 0.87659,0.48901 1.72478,1.21449 2.54297,2.17774 l 2.73828,-2.59961 c -1.11037,-1.28923 -2.3287,-2.24481 -3.6582,-2.86719 -1.31491,-0.63744 -2.79141,-0.95703 -4.42774,-0.95703 z m 110.20313,0 c -2.23534,0 -4.05449,0.62239 -5.45704,1.86719 -1.38794,1.22994 -2.08203,2.80792 -2.08203,4.73437 0,1.58563 0.46731,2.89821 1.40235,3.93555 0.93503,1.02249 2.60198,2.00001 4.99804,2.93359 0.29223,0.11852 0.69372,0.27432 1.20508,0.4668 3.03888,1.12624 4.5586,2.45885 4.5586,4 0,0.96321 -0.36521,1.75653 -1.09571,2.37891 -0.71589,0.60752 -1.65243,0.91211 -2.80664,0.91211 -1.13957,0 -2.20574,-0.29592 -3.19922,-0.88868 -0.53542,-0.31949 -1.06517,-0.62786 -1.58789,-1.13671 h -3.44531 c -0.79218,0 -1.25251,0.35889 -0.77148,1.08984 0.59248,0.90047 2.14564,2.44588 3.67968,3.24609 1.54869,0.78545 3.25001,1.17969 5.10547,1.17969 2.48368,0 4.48642,-0.653 6.00586,-1.95703 1.51944,-1.31889 2.2793,-3.04577 2.2793,-5.17969 0,-1.7338 -0.54188,-3.14756 -1.62305,-4.24414 -1.06652,-1.11143 -3.12621,-2.24649 -6.17969,-3.40234 -1.79706,-0.68166 -2.96529,-1.26681 -3.50586,-1.75586 -0.54073,-0.50382 -0.81054,-1.13293 -0.81054,-1.88867 0,-0.82988 0.30631,-1.49619 0.91992,-2 0.62825,-0.51854 1.46073,-0.7793 2.49805,-0.7793 0.93503,0 1.84021,0.24532 2.71679,0.73437 0.87659,0.48901 1.72479,1.21449 2.54297,2.17774 l 2.73828,-2.59961 c -1.11036,-1.28923 -2.3287,-2.24481 -3.6582,-2.86719 -1.3149,-0.63744 -2.79141,-0.95703 -4.42773,-0.95703 z m 160.98437,0 c -2.23533,0 -4.05253,0.62239 -5.45508,1.86719 -1.38795,1.22994 -2.08203,2.80792 -2.08203,4.73437 0,1.58563 0.46731,2.89821 1.40235,3.93555 0.93503,1.02249 2.60002,2.00001 4.99609,2.93359 0.29222,0.11852 0.69372,0.27432 1.20508,0.4668 3.03887,1.12624 4.55859,2.45885 4.55859,4 0,0.96321 -0.3652,1.75653 -1.0957,2.37891 -0.7159,0.60752 -1.65048,0.91211 -2.80469,0.91211 -1.13957,0 -2.20574,-0.29592 -3.19922,-0.88868 -0.53543,-0.31949 -1.06517,-0.62786 -1.58789,-1.13671 h -3.44726 c -0.79219,0 -1.25251,0.35889 -0.77149,1.08984 0.59249,0.90047 2.14565,2.44588 3.67969,3.24609 1.54868,0.78545 3.25196,1.17969 5.10742,1.17969 2.48367,0 4.48447,-0.653 6.00391,-1.95703 1.51944,-1.31889 2.27929,-3.04577 2.27929,-5.17969 0,-1.7338 -0.53992,-3.14756 -1.62109,-4.24414 -1.06652,-1.11143 -3.12816,-2.24649 -6.18164,-3.40234 -1.79706,-0.68166 -2.9653,-1.26681 -3.50586,-1.75586 -0.54073,-0.50382 -0.81055,-1.13293 -0.81055,-1.88867 0,-0.82988 0.30632,-1.49619 0.91993,-2 0.62825,-0.51854 1.46072,-0.7793 2.49804,-0.7793 0.93503,0 1.84216,0.24532 2.71875,0.73437 0.87659,0.48901 1.72283,1.21449 2.54102,2.17774 l 2.74023,-2.59961 c -1.11037,-1.28923 -2.33065,-2.24481 -3.66015,-2.86719 -1.31491,-0.63744 -2.79141,-0.95703 -4.42774,-0.95703 z m -42.625,0.17578 c -1.33816,0 -2.52651,0.42293 -3.5625,1.26758 -1.03598,0.82988 -1.94176,2.10327 -2.71875,3.82227 v -4.7793 h -4.09961 V 394.25 c 0,2.44414 4.27344,2.56962 4.27344,0 v -11.82812 c 0.70505,-1.86718 1.61082,-3.30483 2.71875,-4.3125 1.1223,-1.00768 2.36745,-1.51172 3.73437,-1.51172 h 0.36524 v -4.44532 l 0.002,-0.002 c -0.0862,-0.0128 -0.18055,-0.0215 -0.28125,-0.0215 -0.10057,-0.0128 -0.24475,-0.0215 -0.43164,-0.0215 z m -33.69922,0.26367 v 17.48633 c 0,2.23762 0.54002,3.96451 1.61914,5.17969 1.09355,1.21496 3.00853,1.39915 4.99414,1.40039 7.21764,0.004 10.9336,-5.17621 10.9336,-6.91211 v -17.1543 h -4.1875 v 17.42383 c -0.99285,1.0373 -1.9715,1.77707 -2.93555,2.31055 -0.96405,0.53348 -1.8982,0.79883 -2.80469,0.79883 -1.19424,0 -2.06453,-0.36177 -2.61133,-1.08789 -0.53253,-0.74094 -0.79882,-1.53629 -0.79882,-3.13672 v -16.3086 z m -215.20117,2.9043 c 1.50774,0 2.69985,0.56322 3.57813,1.68945 0.89303,1.11143 1.3624,2.65217 1.40625,4.62305 l -10.21094,0.0234 c 0.0878,-2.01536 0.58656,-3.57135 1.49414,-4.66797 0.90753,-1.11139 2.15149,-1.66797 3.73242,-1.66797 z m 110.20313,0 c 1.50774,0 2.69984,0.56322 3.57812,1.68945 0.89303,1.11143 1.36241,2.65217 1.40625,4.62305 l -10.21094,0.0234 c 0.0878,-2.01536 0.58657,-3.57135 1.49414,-4.66797 0.90754,-1.11139 2.1515,-1.66797 3.73243,-1.66797 z m 150.23828,0 c 1.50774,0 2.69984,0.56322 3.57812,1.68945 0.89304,1.11143 1.36241,2.65217 1.40625,4.62305 l -10.21094,0.0234 c 0.0878,-2.01536 0.58657,-3.57135 1.49414,-4.66797 0.90754,-1.11139 2.1515,-1.66797 3.73243,-1.66797 z m -295.94922,0.18945 c 0.95352,0 1.84939,0.24314 2.68555,0.73047 0.85086,0.47259 1.67072,1.19523 2.46289,2.16992 v 11.58594 c -0.74817,0.9747 -1.53885,1.70603 -2.375,2.19336 -0.82152,0.47259 -1.71054,0.70899 -2.66407,0.70899 -1.92172,0 -3.37259,-0.73805 -4.35547,-2.21485 -0.98287,-1.4916 -1.47461,-3.69225 -1.47461,-6.60156 0,-2.73209 0.49855,-4.84437 1.4961,-6.33594 0.99752,-1.49157 2.40555,-2.23633 4.22461,-2.23633 z m 78.7539,0 c 1.95004,0 3.4338,0.75178 4.45313,2.25586 1.01937,1.48931 1.5293,3.67142 1.5293,6.54688 0,2.72796 -0.50993,4.83686 -1.5293,6.32617 -1.01933,1.48931 -2.4589,2.23437 -4.32031,2.23437 -0.97504,0 -1.89984,-0.23712 -2.77149,-0.70898 -0.87161,-0.48664 -1.7196,-1.21622 -2.54687,-2.18945 v -11.56836 c 0.78298,-0.97324 1.59546,-1.69416 2.4375,-2.16602 0.85684,-0.48659 1.773,-0.73047 2.74804,-0.73047 z m 27.29493,8.41602 v 5.86719 c -1.13673,1.06695 -2.20766,1.86886 -3.21485,2.40234 -1.00718,0.53348 -1.95039,0.79883 -2.82812,0.79883 -1.00723,0 -1.80655,-0.28061 -2.39649,-0.84375 -0.58985,-0.57795 -0.88476,-1.3646 -0.88476,-2.35742 0,-1.45226 0.73546,-2.64454 2.20312,-3.57813 1.46766,-0.93359 3.84046,-1.6963 7.1211,-2.28906 z m 120.10742,0 v 5.86719 c -1.13673,1.06695 -2.20961,1.86886 -3.2168,2.40234 -1.00718,0.53348 -1.94844,0.79883 -2.82617,0.79883 -1.00723,0 -1.80655,-0.28061 -2.39649,-0.84375 -0.58984,-0.57795 -0.88476,-1.3646 -0.88476,-2.35742 0,-1.45226 0.73351,-2.64454 2.20117,-3.57813 1.46766,-0.93359 3.84241,-1.6963 7.12305,-2.28906 z"
           style="font-style:normal;font-variant:normal;font-weight:normal;font-stretch:normal;font-size:medium;line-height:97.00000286%;font-family:'NewsGoth Dm BT';-inkscape-font-specification:'NewsGoth Dm BT, Normal';font-variant-ligatures:normal;font-variant-caps:normal;font-variant-numeric:normal;font-feature-settings:normal;text-align:start;letter-spacing:0px;word-spacing:0px;writing-mode:lr-tb;text-anchor:start;fill:#003594;fill-opacity:1;stroke:none;stroke-width:0.18897639;stroke-linecap:butt;stroke-linejoin:miter;stroke-miterlimit:4;stroke-dasharray:none;stroke-opacity:1" />
        <path
           inkscape:connector-curvature="0"
           id="path948"
           transform="matrix(0.21165391,0,0,0.21165391,-4.4063969,17.806555)"
           d="m 348.24805,252.10156 v 0.002 c -3.98304,0 -7.23108,1.5188 -9.57617,4.48632 h -0.008 c -2.33284,2.9559 -3.46484,6.9694 -3.46484,11.98047 0,4.99796 1.14313,9.02763 3.48828,12.00977 2.34434,2.98107 5.59021,4.5039 9.56055,4.5039 3.97038,0 7.21424,-1.52283 9.55859,-4.5039 v -0.008 c 2.34402,-2.99513 3.49805,-7.01953 3.49805,-12.00391 0,-5.00864 -1.15363,-9.02322 -3.49805,-11.97852 -2.33133,-2.96844 -5.57554,-4.48828 -9.55859,-4.48828 z m 59.03125,0.42188 v 0.5625 4.87695 h 5.50195 v -5.43945 z m 70.96289,0 v 0.5625 4.87695 h 5.50195 v -5.43945 z m -59.13281,1.41406 v 0.56836 25.17773 c 0,1.70878 0.46119,3.08531 1.45117,3.99414 v 0.008 c 0.99279,0.89517 2.45925,1.28906 4.3164,1.28906 0.79379,0 1.51233,-0.0132 2.14649,-0.10938 1.4419,-0.2187 2.12304,-0.68949 2.12304,-1.98242 v -3.01953 l -0.72656,0.21875 c -0.29888,0.0871 -0.61426,0.14914 -0.95898,0.1875 -0.35322,0.024 -0.76703,0.041 -1.25,0.041 -0.8616,0 -1.34938,-0.19782 -1.56055,-0.41407 -1.6e-4,-1.6e-4 -0.008,2e-4 -0.008,0 -0.1866,-0.21497 -0.38281,-0.83362 -0.38281,-1.87304 v -12.37696 h 4.88671 v -4.55078 h -4.88671 v -7.15625 z m -70.86133,3.21484 c 2.3694,0 4.09135,0.91549 5.37695,2.86328 v 0.008 c 1.29838,1.94761 1.99023,4.78603 1.99023,8.54687 0,3.73259 -0.68998,6.57368 -1.99023,8.53711 -1.2856,1.94785 -3.00755,2.86328 -5.37695,2.86328 -2.3704,0 -4.09384,-0.91254 -5.39258,-2.84765 -1.28547,-1.94773 -1.9668,-4.79122 -1.9668,-8.55274 0,-3.77563 0.68289,-6.62226 1.9668,-8.55469 1.28512,-1.94707 3.00848,-2.86328 5.39258,-2.86328 z m 25.23828,3.55078 c -2.93164,0 -5.3513,1.14568 -7.07031,3.37891 -1.70702,2.22207 -2.52934,5.24645 -2.5293,9.00586 0,3.70302 0.80003,6.62735 2.47461,8.7168 v 0.008 c 1.68977,2.07523 4.15024,3.12305 7.20312,3.12305 2.15351,0 4.0334,-0.49453 5.58008,-1.50586 0.60863,-0.39795 1.16709,-0.8751 1.67578,-1.42969 0.62506,-0.68145 1.17573,-1.47759 1.65235,-2.38477 0.12082,-0.22997 -0.0795,-0.87304 -0.34766,-0.87304 h -4.73633 c -0.21623,0 -0.51995,0.48532 -0.9375,0.73828 -0.82676,0.6263 -1.70767,0.92773 -2.71484,0.92773 -1.59982,0 -2.66753,-0.56133 -3.4336,-1.75586 -0.76842,-1.21463 -1.20312,-3.16409 -1.20312,-5.83789 0,-2.55824 0.43981,-4.46225 1.24219,-5.72851 0.80223,-1.26601 1.84177,-1.8418 3.34765,-1.8418 1.01184,0 1.80606,0.28901 2.48047,0.86719 h 0.01 v 0.01 c 0.68715,0.56659 1.23659,1.42181 1.61523,2.62305 l 0.17969,0.56836 4.69727,-1.7793 -0.1875,-0.52148 c -0.71112,-2.03184 -1.84447,-3.61832 -3.39454,-4.69141 -1.54652,-1.08409 -3.43317,-1.61523 -5.60351,-1.61523 z m 20.84961,0 c -2.93164,0 -5.35131,1.14568 -7.07032,3.37891 -1.70701,2.22207 -2.52933,5.24645 -2.52929,9.00586 0,3.70302 0.80003,6.62735 2.47461,8.7168 v 0.008 c 1.68977,2.07523 4.15024,3.12305 7.20312,3.12305 2.15351,0 4.0334,-0.49453 5.58008,-1.50586 0.60863,-0.39795 1.16709,-0.8751 1.67578,-1.42969 0.62506,-0.68145 1.17573,-1.47759 1.65235,-2.38477 0.12082,-0.22997 -0.0795,-0.87304 -0.34766,-0.87304 h -4.73633 c -0.21623,0 -0.51995,0.48532 -0.9375,0.73828 -0.82676,0.6263 -1.70767,0.92773 -2.71484,0.92773 -1.59982,0 -2.66753,-0.56133 -3.4336,-1.75586 -0.76842,-1.21463 -1.20312,-3.16409 -1.20312,-5.83789 0,-2.55824 0.43981,-4.46225 1.24219,-5.72851 0.80223,-1.26601 1.84177,-1.8418 3.34765,-1.8418 1.01184,0 1.80606,0.28901 2.48047,0.86719 h 0.01 v 0.01 c 0.68715,0.56659 1.23659,1.42181 1.61523,2.62305 l 0.17969,0.56836 4.69726,-1.7793 -0.1875,-0.52148 c -0.71112,-2.03184 -1.84446,-3.61832 -3.39453,-4.69141 -1.54652,-1.08409 -3.43317,-1.61523 -5.60351,-1.61523 z m 46.53125,0 c -2.09553,0 -3.8989,0.38288 -5.40039,1.18555 -1.50044,0.80219 -2.73761,2.03802 -3.6836,3.66797 l -0.28125,0.49219 4.07422,2.35742 0.28906,-0.48437 c 0.55677,-0.94527 1.21693,-1.62387 1.98243,-2.06836 0.78373,-0.46027 1.67081,-0.6875 2.69336,-0.6875 1.12017,0 1.9426,0.2493 2.54296,0.71093 l 0.008,0.008 c 0.59677,0.44757 0.85156,0.96511 0.85156,1.74804 v 1.28711 c -4.32173,0.76283 -7.67545,1.77169 -9.76367,3.20117 -2.17456,1.49873 -3.32422,3.60184 -3.32422,6.125 0,1.95752 0.602,3.60785 1.81055,4.81641 l 0.008,0.01 c 1.22326,1.19261 2.87655,1.77929 4.8457,1.77929 1.30701,0 2.57562,-0.25133 3.79297,-0.75 h 0.01 c 0.93273,-0.39319 1.78477,-1.05445 2.63085,-1.72461 l 0.375,2.18555 h 3.5879 c 1.05274,0 1.11718,-1.68413 1.11718,-3.94141 v -12.73632 c 0,-2.17853 -0.74971,-3.98938 -2.23242,-5.27539 -1.46935,-1.28743 -3.47853,-1.9043 -5.93164,-1.9043 z m 56.68164,0 c -3.07329,0 -5.55084,1.10625 -7.25,3.29297 -1.69875,2.18628 -2.51171,5.23809 -2.51172,9.0918 0,3.74657 0.83066,6.69454 2.56641,8.77149 1.7354,2.07653 4.27269,3.11523 7.44531,3.11523 1.9982,0 4.69609,-0.8773 5.64258,-1.58008 1.35636,-1.00711 3.95028,-3.9252 2.88086,-4.76562 l -4.27735,-0.0527 c -0.37874,0.4477 -0.78742,0.80931 -1.22461,1.0918 -0.80834,0.52233 -1.71613,0.7793 -2.78711,0.7793 -1.66088,0 -2.83362,-0.52708 -3.69922,-1.61524 -0.8463,-1.07598 -1.27948,-2.65182 -1.30273,-4.7207 h 13.2207 0.56836 v -0.5625 c 0,-0.10468 0.004,-0.29428 0.0176,-0.53906 0.012,-0.26811 0.0234,-0.4643 0.0234,-0.60938 0,-3.55323 -0.79705,-6.40869 -2.45117,-8.50586 -1.65388,-2.11044 -4.00412,-3.19141 -6.86133,-3.19141 z m -31.27539,0.20899 c -0.21517,-0.008 -0.42412,-0.007 -0.62305,0.004 -3.58965,0.20322 -11.01562,4.11399 -11.01562,7.26171 v 16.38282 h 5.12695 v -16.60743 c 1.50689,-1.54324 2.96721,-2.65852 5.00976,-2.6621 2.31478,-0.004 2.70942,1.69572 2.72461,3.74023 v 15.53125 h 5.18946 v -16.63086 c 0,-2.19139 -0.46445,-4.07875 -1.75586,-5.23633 -1.3094,-1.1737 -3.15008,-1.72447 -4.65625,-1.7832 z m -58.79102,0.18164 v 0.56836 21.19141 c 0,2.78259 5.13477,2.62009 5.13477,0 v -21.75977 z m 70.9707,0 v 0.56836 21.5625 c 0,2.76067 5.12696,2.78242 5.12696,0 v -22.13086 z m 18.97266,3.98633 c 1.28959,0 2.21448,0.43658 2.94922,1.36719 l 0.008,0.008 c 0.63768,0.78397 0.90418,2.00806 1.03125,3.40234 l -8.1875,0.0234 c 0.15823,-1.42437 0.45333,-2.67003 1.09961,-3.44141 0.75719,-0.91599 1.73238,-1.35742 3.09961,-1.35742 z m -53.58398,8.20312 v 4.44922 c -0.99414,0.88394 -1.94013,1.58774 -2.79492,2.02735 -0.91163,0.46886 -1.73003,0.6875 -2.46485,0.6875 -0.86544,0 -1.46959,-0.22563 -1.91992,-0.64063 h -0.008 c -0.44664,-0.42839 -0.67188,-0.97741 -0.67188,-1.78711 0,-1.16297 0.55405,-2.06606 1.85742,-2.87109 1.17091,-0.72319 3.34463,-1.34192 6.00196,-1.86524 z"
           style="color:#000000;font-style:normal;font-variant:normal;font-weight:normal;font-stretch:normal;font-size:medium;line-height:121.00000381%;font-family:'NewsGoth Dm BT';-inkscape-font-specification:'NewsGoth Dm BT, Normal';font-variant-ligatures:normal;font-variant-position:normal;font-variant-caps:normal;font-variant-numeric:normal;font-variant-alternates:normal;font-feature-settings:normal;text-indent:0;text-align:center;text-decoration:none;text-decoration-line:none;text-decoration-style:solid;text-decoration-color:#000000;letter-spacing:0.12763555px;word-spacing:0px;text-transform:none;writing-mode:lr-tb;direction:ltr;text-orientation:mixed;dominant-baseline:auto;baseline-shift:baseline;text-anchor:middle;white-space:normal;shape-padding:0;clip-rule:nonzero;display:inline;overflow:visible;visibility:visible;opacity:1;isolation:auto;mix-blend-mode:normal;color-interpolation:sRGB;color-interpolation-filters:linearRGB;solid-color:#000000;solid-opacity:1;vector-effect:none;fill:#84bd00;fill-opacity:1;fill-rule:nonzero;stroke:none;stroke-width:0.18897638;stroke-linecap:butt;stroke-linejoin:miter;stroke-miterlimit:4;stroke-dasharray:none;stroke-dashoffset:0;stroke-opacity:1;color-rendering:auto;image-rendering:auto;shape-rendering:auto;text-rendering:auto;enable-background:accumulate" />
      </g>
    </g>
  </g>
</svg>
