<?xml version="1.0" encoding="UTF-8" standalone="no"?>
<!-- Created with Inkscape (http://www.inkscape.org/) -->

<svg
   xmlns:dc="http://purl.org/dc/elements/1.1/"
   xmlns:cc="http://creativecommons.org/ns#"
   xmlns:rdf="http://www.w3.org/1999/02/22-rdf-syntax-ns#"
   xmlns:svg="http://www.w3.org/2000/svg"
   xmlns="http://www.w3.org/2000/svg"
   xmlns:sodipodi="http://sodipodi.sourceforge.net/DTD/sodipodi-0.dtd"
   xmlns:inkscape="http://www.inkscape.org/namespaces/inkscape"
   width="296.62775mm"
   height="368.19568mm"
   viewBox="0 0 296.62774 368.19567"
   version="1.1"
   id="svg8"
   inkscape:version="0.92.5 (2060ec1f9f, 2020-04-08)"
   sodipodi:docname="cistude_dossiere_etiquette.svg">
  <defs
     id="defs2" />
  <sodipodi:namedview
     id="base"
     pagecolor="#ffffff"
     bordercolor="#666666"
     borderopacity="1.0"
     inkscape:pageopacity="0.0"
     inkscape:pageshadow="2"
     inkscape:zoom="0.49497476"
     inkscape:cx="2.5936628"
     inkscape:cy="747.45138"
     inkscape:document-units="mm"
     inkscape:current-layer="layer1"
     showgrid="false"
     inkscape:window-width="1920"
     inkscape:window-height="1016"
     inkscape:window-x="0"
     inkscape:window-y="34"
     inkscape:window-maximized="1"
     showguides="false"
     scale-x="1"
     fit-margin-left="0.1"
     fit-margin-top="0.1"
     fit-margin-right="0.1"
     fit-margin-bottom="0.1" />
  <metadata
     id="metadata5">
    <rdf:RDF>
      <cc:Work
         rdf:about="">
        <dc:format>image/svg+xml</dc:format>
        <dc:type
           rdf:resource="http://purl.org/dc/dcmitype/StillImage" />
        <dc:title></dc:title>
      </cc:Work>
    </rdf:RDF>
  </metadata>
  <g
     inkscape:label="Calque 1"
     inkscape:groupmode="layer"
     id="layer1"
     transform="translate(-15.383773,239.10901)">
    <path
       inkscape:connector-curvature="0"
       id="path822"
       d="m 120.07816,-238.62333 c -1.43401,0.23592 -2.19477,0.62617 -3.15426,0.91881 -0.95948,0.29261 -2.11791,0.48728 -4.34871,0.33187 -1.44404,0.11626 -2.95232,0.44619 -4.21765,0.88438 -1.26525,0.43822 -2.28747,0.98535 -2.76312,1.53403 -3.69481,1.42254 -5.114,1.43438 -7.820068,2.37185 -0.373112,0.12924 -1.644083,0.6835 -2.697658,1.20413 -1.053525,0.52066 -1.889278,1.00746 -1.393161,1.00177 -2.337455,1.07911 -3.506591,1.59985 -4.644692,2.32529 -1.138113,0.72545 -2.24479,1.65491 -4.458659,3.54969 0,0.37208 -0.578144,1.13385 -1.864648,2.51148 -1.286519,1.37764 -3.282227,3.3719 -6.114003,6.21297 -2.831738,2.84108 -5.728271,5.93631 -8.116078,8.63334 -2.387719,2.69708 -4.265882,4.99635 -5.056923,6.24736 -1.582108,2.50202 -4.731491,6.58098 -6.999781,9.06444 -1.134132,1.24174 -2.268578,2.79399 -3.181749,4.29644 -0.913196,1.50244 -1.606914,2.95505 -1.858306,3.99289 -0.502786,2.07566 -1.677047,5.01703 -2.610903,6.53675 -0.846606,1.37768 -1.860039,3.46332 -2.938646,5.97414 -1.078606,2.51083 -2.223688,5.44723 -3.33183,8.52815 -1.108102,3.08091 -2.178934,6.30636 -3.114064,9.3943 -0.935133,3.08795 -1.734197,6.03867 -2.293811,8.57062 -1.259592,5.69892 -3.085918,11.69298 -3.469249,13.43374 -0.248328,0.99065 -0.646632,1.81916 -1.16063,3.05386 -0.514041,1.23469 -1.144554,2.87501 -1.856193,5.48843 0,1.29367 -1.464798,8.71362 -3.01682,15.89463 -1.552062,7.181016 -3.190729,14.124324 -3.543255,14.4618 -0.07569,2.972639 0.439255,5.679772 0.186143,7.566838 0.247917,0.618929 0.276145,2.508402 0.122745,5.055351 -0.153831,2.546954 -0.489128,5.750215 -0.9704,8.995618 -0.481271,3.24541 -0.806754,6.90651 -0.94499,10.187614 -0.138281,3.281115 -0.0896,6.184127 0.181643,7.916961 l 0.02046,5.375109 c -0.425509,0.561177 -0.721621,1.272919 -0.928097,2.133043 -0.206595,0.860131 -0.323191,1.868629 -0.389057,3.021478 -0.131724,2.305697 -0.06013,5.190033 -0.09942,8.629318 l 1.640548,15.888555 c 0.362058,3.508247 0.824961,7.051523 1.386824,10.6085852 0.561863,3.5571012 1.222815,7.12783003 1.974586,10.6875146 0.751812,3.5596857 1.594405,7.1086002 2.526344,10.6247382 0.931984,3.516179 1.952535,7.000007 3.054909,10.426421 0.660133,2.051904 1.581723,4.338467 3.828648,9.131212 2.246926,4.792786 5.819638,12.091406 11.784021,24.169793 0.873684,1.769275 1.805996,3.463121 2.826576,5.118111 1.020606,1.654992 2.129732,3.271058 3.352987,4.885367 2.446497,3.228536 5.353179,6.449897 8.944786,9.956855 1.787307,1.751036 3.060109,3.349044 4.135199,4.830743 1.075089,1.4817 1.951963,2.845552 2.949157,4.124443 0.997233,1.27889 2.114334,2.473909 3.667996,3.616434 1.553622,1.142554 3.545085,2.234184 6.289446,3.306847 0.155865,-0.156299 0.663688,-0.0843 1.452393,0.178184 0.788681,0.262002 1.857678,0.713401 3.133144,1.311383 2.55088,1.196011 5.928873,2.981804 9.551527,5.027064 3.622647,2.04522 7.489339,4.34974 11.016589,6.58531 3.5273,2.23557 6.71604,4.40144 8.98069,6.16842 1.36448,1.06451 3.58781,2.31642 6.24723,3.59624 2.65941,1.27979 5.75565,2.58803 8.86658,3.76418 3.11091,1.17616 6.23642,2.22128 8.95533,2.97492 2.7189,0.75364 5.03016,1.21623 6.51356,1.22845 0.68233,0.002 1.7081,0.22596 2.81178,0.57877 1.10365,0.35285 2.28465,0.83638 3.27684,1.36606 0.63815,0.34071 1.74832,0.63845 3.21768,0.89044 1.4694,0.25217 3.2983,0.45918 5.37406,0.62332 4.1516,0.32818 9.29151,0.48182 14.5197,0.46346 5.22819,-0.0196 10.54429,-0.20796 15.05037,-0.56667 2.25303,-0.17936 4.30477,-0.40256 6.03998,-0.66582 1.73522,-0.26317 3.15535,-0.5684 4.14786,-0.91475 3.17511,-1.10797 8.22113,-2.50544 11.21537,-3.10644 1.49712,-0.30038 3.62627,-1.05425 5.84975,-2.02782 2.22342,-0.97357 4.54201,-2.1667 6.4184,-3.34327 3.7529,-2.3532 10.37572,-6.29996 14.71632,-8.77097 2.56722,-1.4615 5.57303,-3.58393 8.81585,-6.17655 3.24271,-2.59261 6.72216,-5.655831 10.23856,-8.997624 3.51649,-3.34178 7.06822,-6.962248 10.4564,-10.67129 3.38819,-3.70904 6.61317,-7.507204 9.47124,-11.201523 2.42626,-3.136256 4.85059,-6.639125 7.20487,-10.377865 2.35423,-3.738724 4.63821,-7.712432 6.78208,-11.790428 2.14381,-4.077966 4.14769,-8.259735 5.9427,-12.413747 1.79503,-4.15401 3.38127,-8.280998 4.68912,-12.247813 4.57313,-13.553876 3.38166,-10.253405 6.3381,-20.0271478 0.40706,-1.9749116 0.85413,-6.07327237 1.28539,-11.2622205 0.43121,-5.1889897 0.84666,-11.4702647 1.19024,-17.8091647 0.34365,-6.338892 0.61497,-12.736482 0.75891,-18.161236 0.14405,-5.424755 0.15921,-9.876175 -0.009,-12.322688 -0.34654,-5.061111 -0.77939,-9.955766 -1.30231,-14.692505 -0.52295,-4.736735 -1.13585,-9.315116 -1.83718,-13.739313 -0.70128,-4.424184 -1.49259,-8.695009 -2.37413,-12.818503 -0.88159,-4.123476 -1.85376,-8.099502 -2.91748,-11.934122 -2.42468,-8.74098 -4.98103,-18.20185 -5.68059,-21.02485 -0.69956,-2.82301 -2.84174,-8.5327 -4.76097,-12.68696 -0.95961,-2.07713 -2.0216,-4.86856 -2.96188,-7.69435 -0.94026,-2.82578 -1.75911,-5.68644 -2.22616,-7.89672 -0.46699,-2.21027 -1.50337,-5.46273 -2.79904,-8.92278 -1.29571,-3.46002 -2.84986,-7.12592 -4.34876,-10.16534 -2.9977,-6.07885 -5.78887,-12.01343 -6.20275,-13.18684 -0.35102,-0.99497 -0.9511,-2.18742 -1.75474,-3.52741 -0.80365,-1.33999 -1.81059,-2.82773 -2.97878,-4.41587 -2.33639,-3.17626 -5.3135,-6.75173 -8.57905,-10.33939 -3.26555,-3.58765 -6.81904,-7.18818 -10.30837,-10.41225 -3.48934,-3.22407 -6.91592,-6.07226 -9.92362,-8.15778 l -4.32974,-3.00124 c -1.62773,-1.24993 -2.72836,-1.88992 -3.86457,-2.34756 -1.1362,-0.45762 -2.30655,-0.73364 -4.07176,-1.25677 -1.64528,-0.28878 -3.37715,-0.7805 -5.17534,-1.34377 -1.79818,-0.56328 -3.66435,-1.19849 -5.5749,-1.77484 -1.91054,-0.57635 -3.86524,-1.09265 -5.84761,-1.42066 -1.98238,-0.32804 -3.9925,-0.46704 -6.00616,-0.28535 -4.63492,0.1188 -9.23799,0.16542 -10.23022,0.10317 -2.17864,-0.30485 -5.41207,-0.80344 -5.41207,-0.80344 l -5.62141,0.43915 c -1.77259,0.139 -3.40323,0.51493 -4.78211,1.0827 -1.3789,0.56779 -2.50777,1.32754 -3.27478,2.23426 -0.48755,0.57639 -1.15702,0.95046 -1.94074,1.17174 -0.78373,0.22128 -1.68171,0.29048 -2.62359,0.26106 -1.8838,-0.0587 -3.94565,-0.51437 -5.63412,-0.94914 -1.15842,-0.29819 -1.72882,-0.26986 -2.25787,-0.18213 -0.52902,0.0877 -1.01619,0.23488 -2.00838,0.16999 -1.98446,-0.1298 -14.48538,-2.45052 -16.7543,-2.5985 -7.62062,-1.39177 -12.82089,-2.12524 -16.47524,-2.45077 -3.65438,-0.32557 -5.76245,-0.24399 -7.19643,-0.009 z"
       style="opacity:1;vector-effect:none;fill:#ffffff;fill-opacity:0.96923062;stroke:#000000;stroke-width:0.35643876;stroke-linecap:butt;stroke-linejoin:round;stroke-miterlimit:3.79999995;stroke-dasharray:none;stroke-dashoffset:0;stroke-opacity:1"
       sodipodi:nodetypes="ccccccccccsccsccccscsccccccccsccccsccscccsccccsccccccccssscccccccscccccccscccsccsccccccccccccccssssccsccscccccccccccccccc" />
    <path
       inkscape:connector-curvature="0"
       id="path930"
       d="m 192.59045,112.15122 c -1.19018,-0.0645 -2.57447,0.13987 -4.34234,0.60106 -1.76787,0.46133 -3.91948,1.18052 -6.64677,2.14724 -2.36029,0.8366 -4.34412,1.61146 -5.96812,2.3374 -1.62397,0.72595 -2.88815,1.40237 -3.81382,2.044 -0.92574,0.64167 -1.51247,1.24776 -1.77798,1.8315 -0.26549,0.58381 -0.21067,1.14567 0.14612,1.69796 0.29866,0.46262 1.03851,0.95708 2.02532,1.42675 0.9868,0.46967 2.22111,0.91433 3.50944,1.28104 1.28837,0.36656 2.62962,0.6538 3.83289,0.80748 1.20326,0.15353 2.26832,0.17349 2.99992,0.002 1.19063,-0.27568 5.38465,-1.17697 9.32107,-2.00353 2.64945,-0.55629 4.71543,-1.06582 6.2472,-1.5927 1.53177,-0.52691 2.52984,-1.07072 3.04853,-1.69387 0.25937,-0.31173 0.39928,-0.64258 0.42495,-1.00176 0.0246,-0.35912 -0.063,-0.74722 -0.25816,-1.16975 -0.38987,-0.84506 -1.20795,-1.8329 -2.40159,-3.02551 -1.18046,-1.17949 -2.17252,-2.06976 -3.16692,-2.68151 -0.99442,-0.61169 -1.98941,-0.94503 -3.17966,-1.00983 z"
       style="opacity:1;vector-effect:none;fill:#ffffff;fill-opacity:0.96923062;stroke:#000000;stroke-width:0.35643876;stroke-linecap:butt;stroke-linejoin:round;stroke-miterlimit:3.79999995;stroke-dasharray:none;stroke-dashoffset:0;stroke-opacity:1" />
    <path
       inkscape:connector-curvature="0"
       id="path926"
       d="m 141.42483,111.20412 c -0.82594,-0.0838 -1.44129,0.0163 -2.01685,0.2812 -0.57555,0.26628 -1.11081,0.69936 -1.78218,1.28102 -1.20902,1.04741 -1.98095,1.95822 -2.25577,2.7867 -0.13746,0.41426 -0.15019,0.80786 -0.0329,1.18792 0.11855,0.38029 0.36778,0.74727 0.75684,1.10703 0.77841,0.71948 2.11282,1.41265 4.06329,2.13304 1.95054,0.72039 4.51722,1.46777 7.75881,2.29901 7.66796,1.9663 11.25827,2.9297 13.06096,3.07813 0.90132,0.074 1.35511,-0.055 1.64898,-0.36423 0.29373,-0.30938 0.42809,-0.79887 0.68709,-1.44494 0.30969,-0.7728 0.35714,-1.48867 0.0782,-2.19173 -0.27903,-0.70312 -0.8841,-1.39486 -1.8816,-2.12295 -0.99741,-0.72806 -2.38678,-1.49173 -4.23242,-2.33947 -1.84561,-0.8477 -4.14877,-1.7793 -6.97233,-2.84133 -4.7311,-1.77957 -7.22941,-2.68187 -8.88134,-2.84948 z"
       style="opacity:1;vector-effect:none;fill:#ffffff;fill-opacity:0.96923062;stroke:#000000;stroke-width:0.35643876;stroke-linecap:butt;stroke-linejoin:round;stroke-miterlimit:3.79999995;stroke-dasharray:none;stroke-dashoffset:0;stroke-opacity:1" />
    <path
       inkscape:connector-curvature="0"
       id="20"
       d="m 221.76728,97.025651 c -1.43842,-0.01201 -3.00686,0.307039 -4.87934,0.94709 -1.87248,0.640145 -4.04772,1.604018 -6.6954,2.891969 -3.25396,1.58287 -5.72805,2.84364 -7.4966,3.94634 -0.88429,0.55131 -1.59258,1.06417 -2.13316,1.55627 -0.5406,0.4921 -0.91354,0.96339 -1.12894,1.43685 -0.21518,0.47348 -0.27327,0.94962 -0.18163,1.44499 0.0913,0.49538 0.33055,1.01054 0.71031,1.56842 0.75945,1.11576 2.07746,2.39803 3.87941,4.00704 1.65621,1.47887 3.28973,2.82015 4.5876,3.79253 1.29792,0.97234 2.25986,1.57603 2.57288,1.57245 0.62608,-0.009 4.38607,-1.83419 8.35497,-4.05967 3.96889,-2.22545 9.16381,-5.59982 11.54513,-7.49803 l 4.32969,-3.45053 -5.0506,-4.17703 c -1.59351,-1.317547 -2.97797,-2.308255 -4.32335,-2.970848 -1.34537,-0.662629 -2.65243,-0.997826 -4.0908,-1.007841 z"
       style="opacity:1;vector-effect:none;fill:#ffffff;fill-opacity:0.96923062;stroke:#000000;stroke-width:0.35643876;stroke-linecap:butt;stroke-linejoin:round;stroke-miterlimit:3.79999995;stroke-dasharray:none;stroke-dashoffset:0;stroke-opacity:1"
       inkscape:label="20">
      <title
         id="title874">20</title>
    </path>
    <path
       inkscape:connector-curvature="0"
       id="30"
       d="m 113.16555,94.497962 c -0.80347,-0.01948 -1.5215,0.119028 -2.32763,0.412866 -0.80612,0.293707 -1.70032,0.742592 -2.86252,1.341716 -1.31929,0.680146 -2.51201,1.457028 -3.36777,2.161363 -0.85573,0.704384 -1.37606,1.335753 -1.35511,1.724263 0.0245,0.46248 1.3035,1.67876 3.24725,3.24612 1.94375,1.56739 4.55386,3.4849 7.24503,5.34677 2.6912,1.8619 5.46204,3.66894 7.72923,5.01489 2.26717,1.34593 4.03005,2.23091 4.70174,2.2504 0.56976,0.0163 1.46297,-0.30625 2.44392,-0.83983 0.98097,-0.53353 2.04965,-1.2766 2.96821,-2.1027 0.91857,-0.82607 1.75393,-1.83481 2.35934,-2.79282 0.60546,-0.95793 0.98096,-1.86582 0.98096,-2.49324 0,-0.87098 -0.37432,-1.81337 -1.06764,-2.7847 -0.69311,-0.97135 -1.70426,-1.97213 -2.98299,-2.96074 -1.2787,-0.98863 -2.82448,-1.96515 -4.5813,-2.887941 -1.75676,-0.922745 -3.72441,-1.792298 -5.85181,-2.566102 -1.8585,-0.676034 -3.27693,-1.182185 -4.4312,-1.525907 -1.15428,-0.343853 -2.04419,-0.523957 -2.84771,-0.544408 z"
       style="opacity:1;vector-effect:none;fill:#ffffff;fill-opacity:0.96923062;stroke:#000000;stroke-width:0.35643876;stroke-linecap:butt;stroke-linejoin:round;stroke-miterlimit:3.79999995;stroke-dasharray:none;stroke-dashoffset:0;stroke-opacity:1"
       inkscape:label="30">
      <title
         id="title876">30</title>
    </path>
    <path
       inkscape:connector-curvature="0"
       id="10"
       d="m 246.90404,74.812841 -8.33171,8.534215 c -2.29112,2.346597 -4.37648,4.736862 -5.89202,6.698601 -1.51554,1.961799 -2.46092,3.494562 -2.46927,4.124442 -0.009,0.567432 0.4674,1.334382 1.23885,2.169467 0.77147,0.835132 1.83967,1.739288 3.01897,2.57828 1.17923,0.83898 2.47068,1.612784 3.68696,2.191744 1.21634,0.57895 2.35837,0.96287 3.24095,1.01795 0.50444,0.0315 2.10033,-1.05713 4.26417,-2.83529 2.16381,-1.77817 4.89557,-4.246574 7.67417,-6.975885 2.77866,-2.729375 5.25199,-5.362244 6.99772,-7.406972 1.74576,-2.044782 2.76407,-3.50048 2.63419,-3.873497 -0.13023,-0.372822 -1.12513,-0.986888 -2.6236,-1.673623 -1.49849,-0.68679 -3.50103,-1.447911 -5.64467,-2.11688 z"
       style="opacity:1;vector-effect:none;fill:#ffffff;fill-opacity:0.96923062;stroke:#000000;stroke-width:0.35643876;stroke-linecap:butt;stroke-linejoin:round;stroke-miterlimit:3.79999995;stroke-dasharray:none;stroke-dashoffset:0;stroke-opacity:1"
       inkscape:label="10">
      <title
         id="title872">10</title>
    </path>
    <path
       inkscape:connector-curvature="0"
       id="40"
       d="m 81.771063,69.886972 c -1.323744,0.556302 -5.167447,1.677712 -8.540994,2.491266 -1.686792,0.406819 -3.220069,0.943722 -4.331819,1.481392 -1.111738,0.537655 -1.801236,1.076485 -1.801236,1.485452 0,0.420886 0.37228,1.066899 1.035928,1.878079 0.663688,0.811125 1.617401,1.786289 2.775823,2.861561 2.316833,2.150556 5.455364,4.703617 8.737615,7.153992 3.282252,2.450367 6.708173,4.797477 9.60438,6.538788 1.448108,0.870662 2.764254,1.590375 3.862479,2.094578 1.098212,0.504239 1.978691,0.793786 2.558051,0.805461 0.515836,0.01201 1.463249,-0.217746 2.574992,-0.592956 1.111743,-0.375174 2.389208,-0.897711 3.560158,-1.477359 1.17097,-0.579634 2.2345,-1.316511 3.00627,-2.035881 0.77179,-0.719402 1.25154,-1.420887 1.25154,-1.932696 0,-0.511852 -1.2321,-2.096854 -3.21554,-4.237774 -1.98345,-2.14091 -4.719843,-4.838475 -7.729176,-7.574933 -4.030212,-3.664673 -6.923166,-6.084232 -9.031471,-7.495999 -1.05419,-0.705895 -1.912326,-1.159775 -2.617295,-1.390342 -0.704933,-0.230651 -1.256513,-0.238886 -1.699705,-0.05247 z"
       style="opacity:1;vector-effect:none;fill:#ffffff;fill-opacity:0.96923062;stroke:#000000;stroke-width:0.35643876;stroke-linecap:butt;stroke-linejoin:round;stroke-miterlimit:3.79999995;stroke-dasharray:none;stroke-dashoffset:0;stroke-opacity:1"
       inkscape:label="40">
      <title
         id="title878">40</title>
    </path>
    <path
       inkscape:connector-curvature="0"
       id="path912"
       d="m 170.34796,63.431202 c -1.83749,-0.110117 -3.58904,-0.04535 -5.17954,0.20052 -1.59055,0.245543 -3.0198,0.670574 -4.21132,1.281039 -1.79861,0.921391 -5.66891,2.392136 -8.60019,3.268351 -0.89625,0.267859 -1.88981,0.71674 -2.98512,1.349841 -1.09536,0.633132 -2.29077,1.451794 -3.59401,2.456877 -2.60645,2.010158 -5.63783,4.770733 -9.12871,8.309539 -2.85439,2.893577 -5.45038,5.666571 -7.33175,7.803673 -1.88125,2.137026 -3.04852,3.637914 -3.04852,3.986777 0,0.348925 0.4909,0.944235 1.28116,1.621038 0.7903,0.676788 1.87909,1.434781 3.07815,2.112788 1.199,0.678029 2.64674,1.75523 4.01044,2.944568 1.36372,1.189364 2.6436,2.491977 3.51364,3.618517 1.04773,1.35654 2.45198,2.55661 4.19651,3.59016 1.74457,1.03351 3.8294,1.9001 6.23662,2.5904 1.99902,0.57327 4.38409,1.39239 6.61718,2.25043 2.23307,0.85802 4.31475,1.75455 5.70384,2.48314 1.38914,0.72857 2.89494,1.3002 4.20289,1.63319 1.30789,0.33287 2.41721,0.42781 3.01255,0.2044 1.19068,-0.44686 7.33359,-2.62038 13.65081,-4.82868 3.15862,-1.10418 6.28994,-2.33172 8.79049,-3.42218 2.50052,-1.09047 4.3709,-2.0441 5.00616,-2.59446 1.27062,-1.10072 5.19352,-3.45946 8.71859,-5.24357 1.76255,-0.892084 3.41801,-1.961398 4.66372,-2.964827 1.24573,-1.003405 2.08178,-1.941837 2.20926,-2.572207 0.086,-0.423732 -0.18533,-1.115306 -0.73991,-2.009562 -0.55478,-0.894302 -1.3932,-1.991639 -2.44395,-3.221812 -2.10149,-2.460493 -5.04997,-5.458433 -8.26827,-8.455269 -3.21829,-2.996906 -6.70662,-5.992569 -9.88556,-8.449251 -1.58946,-1.228328 -3.10212,-2.322286 -4.465,-3.213727 -1.36287,-0.8914 -2.57474,-1.579531 -3.5665,-1.999468 -1.87531,-0.794099 -3.81798,-1.421423 -5.75038,-1.878051 -1.93242,-0.456599 -3.85578,-0.741973 -5.69328,-0.852015 z"
       style="opacity:1;vector-effect:none;fill:#ffffff;fill-opacity:0.96923062;stroke:#000000;stroke-width:0.35643876;stroke-linecap:butt;stroke-linejoin:round;stroke-miterlimit:3.79999995;stroke-dasharray:none;stroke-dashoffset:0;stroke-opacity:1" />
    <path
       inkscape:connector-curvature="0"
       id="path910"
       d="m 115.14009,39.245234 c -1.71704,0.126872 -3.66657,0.595773 -6.01673,1.331633 -1.9828,0.620798 -4.16002,1.187474 -6.07169,1.600793 -1.9117,0.413277 -3.557939,0.673707 -4.475618,0.679969 -1.132427,0.0078 -2.619934,0.370478 -4.223959,0.953208 -1.604012,0.582853 -3.32557,1.386263 -4.921644,2.276728 -1.596048,0.890478 -3.066803,1.868314 -4.175364,2.798852 -1.108511,0.930522 -1.854275,1.812496 -1.995696,2.515546 -0.170194,0.84598 -0.255286,1.688548 -0.247512,2.537782 0.0088,0.849266 0.109646,1.705035 0.310925,2.582358 0.402561,1.754547 1.20738,3.590617 2.477734,5.605786 1.270316,2.015211 3.005475,4.210719 5.268339,6.684483 2.262876,2.473736 5.052966,5.225839 8.433183,8.356108 4.290102,3.972923 7.579422,6.963074 10.293602,9.023976 1.35711,1.030445 2.5713,1.828954 3.69334,2.402163 1.12205,0.573257 2.1528,0.920471 3.14583,1.050373 0.99299,0.129932 1.94755,0.0406 2.91746,-0.259261 0.9699,-0.299581 1.9556,-0.810678 3.00838,-1.525905 2.10559,-1.430521 4.48295,-3.67662 7.55583,-6.686507 3.24697,-3.180441 5.74871,-5.778456 7.56425,-7.975639 0.9078,-1.098633 1.64418,-2.098723 2.21558,-3.019499 0.57145,-0.920751 0.97892,-1.763696 1.22832,-2.551934 0.24959,-0.788236 0.34162,-1.521082 0.28312,-2.22208 -0.0581,-0.701053 -0.26796,-1.368738 -0.61942,-2.027825 -0.35141,-0.659104 -0.8451,-1.308616 -1.47566,-1.971153 -0.63058,-0.662507 -1.39856,-1.33883 -2.2938,-2.050058 -0.65872,-0.523324 -1.90152,-1.906841 -3.37413,-3.715635 -1.47262,-1.808771 -3.17478,-4.04251 -4.75041,-6.263512 -1.84702,-2.603664 -3.41807,-4.639585 -4.88356,-6.182617 -0.73278,-0.771493 -1.43869,-1.42037 -2.13948,-1.954936 -0.70081,-0.534602 -1.39665,-0.9545 -2.10775,-1.270928 -0.7111,-0.316431 -1.43712,-0.528455 -2.20079,-0.64559 -0.76371,-0.117104 -1.56426,-0.140197 -2.42281,-0.07676 z"
       style="opacity:1;vector-effect:none;fill:#ffffff;fill-opacity:0.96923062;stroke:#000000;stroke-width:0.35643876;stroke-linecap:butt;stroke-linejoin:round;stroke-miterlimit:3.79999995;stroke-dasharray:none;stroke-dashoffset:0;stroke-opacity:1" />
    <path
       inkscape:connector-curvature="0"
       id="path906"
       d="m 223.05899,35.946484 -2.93438,3.013375 c -1.6132,1.657618 -2.93226,3.496673 -2.93226,4.085986 0,0.294499 -1.13711,1.772872 -2.96821,3.915983 -1.83107,2.143112 -4.35689,4.949903 -7.13512,7.906843 -3.13517,3.33686 -5.65964,6.325308 -7.40147,8.722398 -0.87091,1.198544 -1.5469,2.249001 -2.00416,3.122662 -0.45727,0.873676 -0.69558,1.569359 -0.69558,2.058181 0,0.508211 0.21397,1.170047 0.63636,1.971138 0.4222,0.801077 1.05251,1.742371 1.87734,2.810985 1.64969,2.137283 4.08501,4.784366 7.22811,7.840085 3.38957,3.295271 6.02338,5.760284 8.2979,7.376568 1.13725,0.808152 2.18427,1.404565 3.19017,1.784978 1.00593,0.380274 1.97214,0.546393 2.94494,0.493792 0.97285,-0.05247 1.95347,-0.324645 2.99151,-0.815577 1.03798,-0.490946 2.13245,-1.200442 3.33391,-2.135043 2.40291,-1.869201 5.23085,-4.63187 8.87717,-8.307556 3.24804,-3.274241 6.11427,-6.447341 8.53675,-9.420607 2.42245,-2.973279 4.40084,-5.746273 5.87931,-8.220497 1.47853,-2.474268 2.45693,-4.650404 2.87307,-6.427491 0.20824,-0.88856 0.27656,-1.676496 0.19677,-2.35362 -0.0798,-0.677143 -0.30886,-1.242843 -0.69131,-1.683766 -0.52225,-0.602392 -2.58173,-1.91273 -5.48186,-3.537569 -2.90012,-1.624841 -6.63976,-3.56485 -10.51767,-5.427718 z"
       style="opacity:1;vector-effect:none;fill:#ffffff;fill-opacity:0.96923062;stroke:#000000;stroke-width:0.35643876;stroke-linecap:butt;stroke-linejoin:round;stroke-miterlimit:3.79999995;stroke-dasharray:none;stroke-dashoffset:0;stroke-opacity:1" />
    <path
       inkscape:connector-curvature="0"
       id="50"
       d="m 58.257929,35.143075 c -0.70983,-0.08106 -1.366974,-0.03916 -1.955555,0.143726 -1.604514,0.494146 -4.753847,1.229181 -6.999793,1.633139 -1.122953,0.202078 -2.216129,0.567029 -3.073925,0.993663 -0.85777,0.42667 -1.481041,0.914672 -1.659578,1.359984 -0.19473,0.486161 0.135822,1.877435 0.818173,3.804684 0.682539,1.92725 1.716922,4.391099 2.936523,7.024445 1.219538,2.633381 2.623813,5.435908 4.040022,8.040418 1.416246,2.604532 2.845805,5.009743 4.118294,6.850461 0.840111,1.215237 1.512088,2.149047 2.124683,2.853466 0.612595,0.704445 1.164715,1.179439 1.765289,1.48142 0.600526,0.301938 1.248878,0.431297 2.052754,0.439127 0.803954,0.0084 1.764537,-0.105369 2.987264,-0.283533 2.911216,-0.423731 7.403032,-1.58712 9.982837,-2.586345 1.509075,-0.584536 2.641549,-1.21313 3.397373,-1.993398 0.378018,-0.390044 0.662318,-0.818689 0.851968,-1.29928 0.189814,-0.480562 0.28391,-1.012231 0.285543,-1.610904 0.0025,-1.197331 -0.369428,-2.659072 -1.118319,-4.494766 -0.749105,-1.835684 -1.873454,-4.04584 -3.374138,-6.741137 -1.331317,-2.391078 -2.899448,-4.64404 -4.574935,-6.656158 -1.675477,-2.012151 -3.459468,-3.782281 -5.223941,-5.209195 -1.764512,-1.426875 -3.509305,-2.509553 -5.107715,-3.144919 -0.79918,-0.317605 -1.562816,-0.523991 -2.27266,-0.605094 z"
       style="opacity:1;vector-effect:none;fill:#ffffff;fill-opacity:0.96923062;stroke:#000000;stroke-width:0.35643876;stroke-linecap:butt;stroke-linejoin:round;stroke-miterlimit:3.79999995;stroke-dasharray:none;stroke-dashoffset:0;stroke-opacity:1"
       inkscape:label="50">
      <title
         id="title873">50</title>
    </path>
    <path
       inkscape:connector-curvature="0"
       id="9"
       d="m 274.98573,34.740331 c -1.17805,0.250247 -2.227,0.79029 -3.23672,1.637214 -1.00969,0.846923 -1.9813,2.002322 -3.00625,3.484925 -1.43843,2.080725 -3.23129,5.045341 -5.09712,8.337909 -1.86582,3.29255 -3.80416,6.911994 -5.53049,10.302975 -1.72639,3.39094 -3.242,6.552889 -4.26206,8.928822 -1.02007,2.375961 -1.54477,3.965916 -1.2917,4.213453 0.46182,0.451772 3.35453,1.443125 6.51777,2.351609 3.16323,0.908536 6.5963,1.735209 8.14142,1.85985 0.46235,0.03531 1.45005,-0.669165 2.66805,-1.835511 1.21796,-1.166421 2.66707,-2.793023 4.05274,-4.600052 1.55342,-2.025733 3.29256,-4.602618 5.02733,-7.380651 1.73476,-2.778047 3.46526,-5.757513 5.00197,-8.58886 1.53669,-2.831349 2.88001,-5.514805 3.83922,-7.700417 0.95924,-2.18556 1.53458,-3.874548 1.53697,-4.715359 0.001,-0.384181 -0.11794,-0.779407 -0.34446,-1.175804 -0.22663,-0.39636 -0.56184,-0.793938 -0.99364,-1.181875 -0.86357,-0.775882 -2.11398,-1.512837 -3.65952,-2.13101 -2.06558,-0.826166 -3.81867,-1.402595 -5.34868,-1.710096 -1.53,-0.307422 -2.83661,-0.347369 -4.01467,-0.09712 z"
       style="opacity:1;vector-effect:none;fill:#ffffff;fill-opacity:0.96923062;stroke:#000000;stroke-width:0.35643876;stroke-linecap:butt;stroke-linejoin:round;stroke-miterlimit:3.79999995;stroke-dasharray:none;stroke-dashoffset:0;stroke-opacity:1"
       inkscape:label="9">
      <title
         id="title870">9</title>
    </path>
    <path
       inkscape:connector-curvature="0"
       id="path894"
       d="m 158.73516,-1.314997 c -4.95512,0.054055 -9.48531,0.202078 -13.08211,0.43912689 -3.59675,0.23693112 -6.26086,0.56256345 -7.48603,0.97141676 -0.82518,0.27531049 -1.56013,0.61151801 -2.23463,1.03819055 -0.6745,0.4266711 -1.28777,0.9434153 -1.86887,1.5846178 -1.16218,1.2824051 -2.19526,3.0577466 -3.32762,5.5774781 -1.66325,3.7010989 -3.04697,7.2352129 -3.07386,7.8542089 -0.0288,0.619001 -1.30346,3.612713 -2.83717,6.652129 -0.97717,1.936532 -1.69206,3.513396 -2.11835,4.909644 -0.42627,1.396211 -0.563,2.611178 -0.38701,3.820858 0.17591,1.209641 0.66673,2.41568 1.49674,3.792505 0.8301,1.376865 1.99936,2.924908 3.53484,4.822627 2.97662,3.678974 8.65865,10.7555 12.62758,15.726676 3.96888,4.971155 7.37201,9.045231 7.56213,9.052291 0.19021,0.0084 4.57986,-1.6092 9.7545,-3.592186 2.62154,-1.00464 4.86816,-1.74731 6.95541,-2.216037 2.08725,-0.468686 4.01381,-0.664419 5.99352,-0.578772 1.97967,0.0857 4.01393,0.452567 6.31269,1.111027 2.2988,0.658474 4.86216,1.609802 7.90675,2.859594 l 6.9618,2.857541 8.91516,-9.424661 c 4.39909,-4.650903 7.70777,-8.175724 10.07374,-11.144845 1.18297,-1.484562 2.13006,-2.82904 2.8604,-4.108231 0.73027,-1.279233 1.24339,-2.492363 1.55806,-3.70956 0.31461,-1.217239 0.42957,-2.439294 0.36574,-3.737913 -0.0638,-1.298617 -0.30721,-2.673875 -0.71245,-4.197246 -0.81059,-3.046816 -2.26571,-6.686744 -4.21977,-11.492963 -1.73873,-4.27663 -3.03368,-7.476376 -4.21551,-9.8860625 -0.59091,-1.2048648 -1.15347,-2.2119593 -1.72933,-3.0579005 -0.57586,-0.8459808 -1.16612,-1.5295964 -1.80966,-2.0885192 -0.64358,-0.5589601 -1.34123,-0.9938982 -2.13525,-1.3377403 -0.79407,-0.34384325 -1.6851,-0.59675281 -2.7124,-0.79734242 -2.05462,-0.40121516 -4.65722,-0.58833434 -8.14146,-0.8479778 -4.63192,-0.34502031 -9.85164,-0.58437768 -15.1518,-0.72450058 -5.30016,-0.1401975 -10.68083,-0.1813205 -15.63594,-0.1276697 z"
       style="opacity:1;vector-effect:none;fill:#ffffff;fill-opacity:0.96923062;stroke:#000000;stroke-width:0.35643876;stroke-linecap:butt;stroke-linejoin:round;stroke-miterlimit:3.79999995;stroke-dasharray:none;stroke-dashoffset:0;stroke-opacity:1" />
    <path
       inkscape:connector-curvature="0"
       id="60"
       d="m 31.651883,-11.579521 c -1.503297,0.0235 -2.557603,0.158218 -2.73777,0.437128 -0.201281,0.311732 -0.01632,2.1588941 0.418595,4.879295 0.434184,2.720399 1.11653,6.31447021 1.909046,10.1147288 0.79256,3.8002971 1.694883,7.8079992 2.568647,11.3594202 0.873808,3.551386 1.719468,6.645432 2.397397,8.619168 0.777707,2.264239 1.527554,4.047174 2.365688,5.409549 0.419045,0.681147 0.858914,1.258593 1.336097,1.736371 0.477262,0.47778 0.991914,0.856362 1.555988,1.145455 0.564112,0.289017 1.17867,0.48796 1.858316,0.603059 0.679647,0.11513 1.423402,0.147254 2.247299,0.103 1.647795,-0.08852 3.613423,-0.481892 6.010397,-1.119137 1.605772,-0.426867 2.83866,-0.909148 3.714516,-1.540092 0.437903,-0.315645 0.787034,-0.667166 1.048564,-1.068539 0.261415,-0.401374 0.435089,-0.851426 0.524313,-1.361982 0.178371,-1.021116 0.01633,-2.284056 -0.469315,-3.8816 -0.486434,-1.597457 -1.297734,-3.529055 -2.41643,-5.889125 C 53.172798,16.257513 52.204892,13.547491 51.298327,10.558204 50.391713,7.5689136 49.546326,4.2993433 48.981219,1.4735178 48.41615,-1.3522704 47.779365,-4.0284939 47.207514,-6.0650056 46.635662,-8.1014796 46.129536,-9.4983546 45.827,-9.7623845 45.455525,-10.08665 44.25685,-10.403705 42.657949,-10.681208 c -1.598946,-0.27727 -3.598652,-0.514514 -5.574913,-0.6759 -1.976263,-0.161341 -3.927816,-0.246724 -5.431153,-0.222443 z"
       style="opacity:1;vector-effect:none;fill:#ffffff;fill-opacity:0.96923062;stroke:#000000;stroke-width:0.35643876;stroke-linecap:butt;stroke-linejoin:round;stroke-miterlimit:3.79999995;stroke-dasharray:none;stroke-dashoffset:0;stroke-opacity:1"
       inkscape:label="60">
      <title
         id="title880">60</title>
    </path>
    <path
       inkscape:connector-curvature="0"
       id="8"
       d="m 288.37224,-13.002243 c -0.48825,-0.0235 -0.92387,0.143336 -1.34248,0.603097 -0.41854,0.459646 -0.82065,1.210542 -1.24306,2.351611 -0.84481,2.2820966 -1.7705,6.1273527 -3.07179,12.3267259 -0.88878,4.2340581 -1.96795,8.5819211 -2.98936,12.1790051 -1.02144,3.59705 -1.98589,6.442457 -2.64688,7.666 -0.87311,1.616262 -1.36446,2.832521 -1.49467,3.782401 -0.065,0.474959 -0.041,0.884046 0.0741,1.242615 0.11379,0.358724 0.31461,0.667401 0.60254,0.943064 0.82148,0.786417 3.97376,2.299211 7.2704,3.648858 3.29665,1.349609 6.73877,2.535361 8.14565,2.661227 0.22011,0.01959 0.51293,-0.204037 0.85201,-0.62534 0.33914,-0.421348 0.72442,-1.041755 1.13313,-1.811252 0.81737,-1.539074 1.72442,-3.68058 2.52427,-6.0551 1.22666,-3.641574 2.43266,-7.579998 3.5369,-11.474754 1.10421,-3.894718 2.10726,-7.7460849 2.92805,-11.213661 0.82075,-3.46753539 1.45877,-6.5506165 1.83504,-8.9106071 0.37639,-2.3599923 0.48933,-3.9975603 0.26021,-4.5696409 -0.14818,-0.369298 -0.40543,-0.693405 -0.78014,-0.975491 -0.37473,-0.281965 -0.86669,-0.520425 -1.47773,-0.718429 -1.22212,-0.395928 -2.92656,-0.627926 -5.15211,-0.706291 -3.59687,-0.126478 -7.62995,-0.280793 -8.96379,-0.344235 z"
       style="opacity:1;vector-effect:none;fill:#ffffff;fill-opacity:0.96923062;stroke:#000000;stroke-width:0.35643876;stroke-linecap:butt;stroke-linejoin:round;stroke-miterlimit:3.79999995;stroke-dasharray:none;stroke-dashoffset:0;stroke-opacity:1"
       inkscape:label="8">
      <title
         id="title868">8</title>
    </path>
    <path
       inkscape:connector-curvature="0"
       id="path882"
       d="m 101.45972,-35.318255 c -2.394902,0.01145 -4.958754,0.232702 -7.629805,0.677966 -2.455665,0.409368 -5.485883,0.787795 -8.390907,1.066513 -2.904999,0.278717 -5.684213,0.458007 -7.636138,0.471541 -1.73104,0.01214 -3.966386,0.197534 -6.393077,0.497844 -2.426641,0.300335 -5.045255,0.716645 -7.545245,1.187953 -2.5,0.471302 -4.881729,0.998907 -6.832787,1.523891 -1.951059,0.524984 -3.471664,1.046352 -4.251451,1.507704 -0.275746,0.163191 -0.513562,0.523979 -0.712468,1.054372 -0.198831,0.530401 -0.358778,1.230084 -0.482051,2.070313 -0.246268,1.680453 -0.342011,3.922828 -0.291683,6.4983 0.05024,2.575466 0.245878,5.484304 0.583506,8.495758 0.337514,3.0114151 0.817064,6.1266483 1.433327,9.1149964 0.943615,4.5754752 2.016281,8.8291523 3.217695,12.7598216 1.201414,3.930671 2.532531,7.537937 3.991428,10.823096 1.458912,3.285158 3.0449,6.247386 4.761007,8.886328 1.71607,2.638945 3.561803,4.955545 5.53469,6.947567 1.953848,1.972757 3.925291,3.775117 5.528411,5.08975 1.603108,1.314639 2.838571,2.141548 3.31703,2.16344 0.47852,0.0235 1.504865,-0.344238 2.773725,-0.949174 1.268833,-0.604979 2.779464,-1.450294 4.22608,-2.39003 1.446678,-0.939774 3.353929,-1.883035 5.262021,-2.647089 1.908117,-0.764093 3.817806,-1.348902 5.266254,-1.568406 4.199438,-0.636462 7.665728,-1.272534 10.502868,-1.961046 2.83717,-0.68851 5.04397,-1.429539 6.72711,-2.274696 0.84159,-0.4226 1.55159,-0.870536 2.14374,-1.351879 0.59208,-0.481342 1.06674,-0.994994 1.43546,-1.548197 0.36862,-0.553166 0.63204,-1.146828 0.80337,-1.784935 0.17142,-0.638108 0.25159,-1.322036 0.25159,-2.058166 0,-0.79374 0.56646,-2.804247 1.48202,-5.405479 0.91554,-2.60123 2.17949,-5.792085 3.56864,-8.945035 1.27427,-2.8923613 2.29127,-5.3703506 3.06542,-7.4980284 0.77415,-2.1276826 1.30492,-3.904432 1.60463,-5.39533646 0.29986,-1.49090324 0.36902,-2.69717714 0.2197,-3.67920874 -0.14884,-0.9820305 -0.51673,-1.740405 -1.08876,-2.3415049 -0.68702,-0.7218387 -2.9615,-5.6859175 -5.05694,-11.0315075 -1.04772,-2.67281 -2.24918,-5.443954 -3.3403,-7.753038 -1.09114,-2.309078 -2.07294,-4.155919 -2.68072,-4.986548 -0.83809,-1.145387 -2.02675,-2.115989 -3.5052,-2.900042 -1.47845,-0.784071 -3.2456,-1.382402 -5.24299,-1.780911 -1.99737,-0.398511 -4.22433,-0.59816 -6.61929,-0.586897 z"
       style="opacity:1;vector-effect:none;fill:#ffffff;fill-opacity:0.96923062;stroke:#000000;stroke-width:0.35643876;stroke-linecap:butt;stroke-linejoin:round;stroke-miterlimit:3.79999995;stroke-dasharray:none;stroke-dashoffset:0;stroke-opacity:1" />
    <path
       inkscape:connector-curvature="0"
       id="path880"
       d="m 231.59154,-35.718958 c -2.21037,0.0095 -4.57386,0.351205 -7.75241,1.032111 -2.19918,0.471125 -4.07429,1.031019 -5.65101,1.701988 -1.5768,0.67097 -2.85551,1.454828 -3.85826,2.369826 -1.00275,0.914995 -1.72996,1.961957 -2.20714,3.165165 -0.47717,1.203207 -0.70397,2.56253 -0.70397,4.098117 0,1.005756 -0.3232,2.89015 -0.84567,5.118089 -0.5223,2.227945 -1.24346,4.797658 -2.03586,7.172217 -0.71744,2.1497284 -1.25594,3.7668135 -1.61519,5.0594008 -0.35919,1.2925869 -0.53894,2.2619297 -0.54122,3.1186013 -0.001,0.8567137 0.17305,1.6006756 0.5264,2.44270213 0.35348,0.84202654 0.8858,1.78093947 1.59402,3.02954937 1.56467,2.7584264 4.51644,9.3674744 6.56008,14.6864434 1.09449,2.848538 2.09211,5.266022 3.01682,7.289608 0.92481,2.023589 1.77684,3.653988 2.57926,4.927856 0.80241,1.273868 1.55579,2.191438 2.2832,2.790775 0.72749,0.599299 1.42905,0.880327 2.12892,0.880327 0.67784,0 1.4378,0.107701 2.38472,0.370475 0.94694,0.262387 2.07975,0.678952 3.50732,1.295208 2.8551,1.232553 6.88328,3.264326 12.92989,6.459841 2.77823,1.468269 5.57759,2.823399 7.84758,3.822896 2.2699,0.999496 4.01052,1.643638 4.67637,1.691878 0.37719,0.02749 0.83334,-0.135151 1.35519,-0.471546 0.52175,-0.336409 1.11,-0.847195 1.7462,-1.51581 1.27242,-1.337194 2.74337,-3.30756 4.29165,-5.781866 1.34479,-2.149142 2.62283,-4.399911 3.83289,-6.737108 1.21004,-2.337199 2.35186,-4.761182 3.41852,-7.255187 1.06661,-2.494003 2.05998,-5.058538 2.97451,-7.678176 0.9146,-2.619598 1.74931,-5.294022 2.50312,-8.0080007 0.75386,-2.7140164 1.42609,-5.4676661 2.01049,-8.2448122 0.58444,-2.777146 1.08205,-5.5773999 1.48836,-8.3864641 0.40626,-2.809104 0.72124,-5.625253 0.9408,-8.435044 0.21967,-2.809791 0.34363,-5.613269 0.36778,-8.39254 l 0.072,-8.220514 -5.77362,-1.216283 c -1.58757,-0.334719 -4.43277,-0.544972 -7.73766,-0.613202 -3.30487,-0.06818 -7.06977,0.0051 -10.49655,0.236776 -3.97394,0.268065 -7.67895,0.327278 -10.91091,0.186178 -3.23192,-0.141109 -5.9902,-0.483555 -8.0695,-1.015931 -2.56857,-0.657623 -4.6267,-0.982386 -6.83705,-0.973424 z"
       style="opacity:1;vector-effect:none;fill:#ffffff;fill-opacity:0.96923062;stroke:#000000;stroke-width:0.35643876;stroke-linecap:butt;stroke-linejoin:round;stroke-miterlimit:3.79999995;stroke-dasharray:none;stroke-dashoffset:0;stroke-opacity:1" />
    <path
       inkscape:connector-curvature="0"
       id="70"
       d="m 29.123409,-62.845459 c -0.373103,0.02741 -0.664959,0.170198 -0.847747,0.453322 -0.341192,0.528626 -0.621633,3.333899 -0.830849,7.275423 -0.209054,3.941526 -0.346513,9.019611 -0.399696,14.093474 -0.05317,5.073868 -0.02455,10.143537 0.103503,14.069196 0.126817,3.925652 0.350195,6.707694 0.680752,7.204588 0.327693,0.492448 0.795953,0.953893 1.369927,1.378184 0.573974,0.424291 1.254112,0.810851 2.006292,1.155563 1.504319,0.689433 3.295544,1.209112 5.10346,1.511758 1.807914,0.302644 3.6306,0.387978 5.19645,0.212491 0.782944,-0.08774 1.502436,-0.24108 2.122557,-0.465042 0.620121,-0.224398 1.141524,-0.520006 1.530621,-0.892478 0.580567,-0.555759 1.00787,-1.429174 1.283278,-2.527676 0.27533,-1.098509 0.398466,-2.420523 0.371877,-3.873489 -0.02449,-1.452955 -0.201695,-3.037582 -0.526436,-4.656676 -0.324829,-1.61909 -0.798891,-3.274262 -1.418571,-4.871191 -0.920927,-2.3733 -1.867882,-5.343115 -2.835005,-8.878243 -0.967082,-3.53513 -1.953353,-7.634897 -2.949155,-12.268041 -0.220505,-1.025203 -0.915822,-2.208637 -1.85619,-3.371588 -0.94037,-1.162952 -2.125177,-2.304507 -3.329745,-3.248132 -1.204567,-0.943636 -2.428772,-1.688899 -3.441757,-2.056145 -0.506473,-0.183635 -0.960864,-0.272296 -1.334009,-0.244884 z"
       style="opacity:1;vector-effect:none;fill:#ffffff;fill-opacity:0.96923062;stroke:#000000;stroke-width:0.35643876;stroke-linecap:butt;stroke-linejoin:round;stroke-miterlimit:3.79999995;stroke-dasharray:none;stroke-dashoffset:0;stroke-opacity:1"
       inkscape:label="70">
      <title
         id="title883">70</title>
    </path>
    <path
       inkscape:connector-curvature="0"
       id="7"
       d="m 303.34647,-67.190476 c -0.23974,-0.229412 -1.06727,-0.06117 -2.19657,0.354146 -1.12928,0.415316 -2.56222,1.078305 -4.00833,1.837572 -1.4461,0.759267 -2.90709,1.613937 -4.09714,2.416369 -1.19005,0.802442 -2.10816,1.551788 -2.46927,2.096624 -0.3236,0.488375 -0.62123,1.78782 -0.84145,3.486934 -0.2201,1.699115 -0.36369,3.797528 -0.37433,5.887123 -0.009,2.089603 -0.261,4.751932 -0.6575,7.358394 -0.39643,2.606476 -0.93747,5.157422 -1.52852,7.022459 -0.65556,2.068758 -1.15686,4.053078 -1.50099,5.895216 -0.34405,1.842138 -0.53206,3.543136 -0.56236,5.043216 -0.0287,1.50008 0.0971,2.798517 0.3825,3.841096 0.28596,1.042585 0.73186,1.829352 1.3361,2.298998 1.07475,0.83525 2.51678,1.494043 4.12463,1.967095 1.60788,0.47304 3.38094,0.760142 5.11616,0.84998 1.73519,0.08985 3.43312,-0.01762 4.8899,-0.331898 0.7284,-0.157194 1.39612,-0.367224 1.97882,-0.629388 0.58271,-0.262191 1.07874,-0.577314 1.46506,-0.947129 h 10e-4 c 0.46225,-0.442473 0.8516,-1.473603 1.17337,-2.946598 0.32154,-1.472984 0.57552,-3.387972 0.76316,-5.597721 0.37518,-4.419487 0.48829,-10.017445 0.36576,-15.621414 -0.12233,-5.603971 -0.48177,-11.213368 -1.05072,-15.651773 -0.28431,-2.219208 -0.622,-4.144948 -1.00843,-5.63213 -0.3866,-1.487181 -0.82029,-2.535789 -1.30231,-2.99719 z"
       style="opacity:1;vector-effect:none;fill:#ffffff;fill-opacity:0.96923062;stroke:#000000;stroke-width:0.35643876;stroke-linecap:butt;stroke-linejoin:round;stroke-miterlimit:3.79999995;stroke-dasharray:none;stroke-dashoffset:0;stroke-opacity:1"
       inkscape:label="7">
      <title
         id="title866">7</title>
    </path>
    <path
       inkscape:connector-curvature="0"
       id="path874"
       d="m 171.99911,-79.21567 c -13.25092,-0.05513 -28.59605,0.06651 -38.84253,0.394634 -0.50177,0.01611 -0.98291,0.115828 -1.44394,0.30155 -0.46103,0.185667 -0.9014,0.456768 -1.32341,0.815573 -0.84406,0.717625 -1.61254,1.784638 -2.31074,3.215761 -0.69822,1.431119 -1.32604,3.226767 -1.8921,5.399395 -0.56614,2.172628 -1.07031,4.721849 -1.51794,7.663989 -0.46043,3.026154 -1.1003,6.197433 -1.76106,8.868118 -0.66073,2.670701 -1.34158,4.840949 -1.88368,5.866886 -0.7149,1.352995 -1.22424,2.711055 -1.52636,4.096102 -0.30232,1.385032 -0.39723,2.797976 -0.2831,4.255969 0.11366,1.457976 0.43738,2.961382 0.97034,4.533225 0.53299,1.571832 1.27507,3.211378 2.23041,4.93797 1.84944,3.342561 4.55869,9.185188 6.01887,12.984455 1.07311,2.792078 1.96866,4.949088 2.86673,6.5974655 0.44904,0.8241671 0.89721,1.5214114 1.36992,2.1067272 0.47273,0.5853586 0.96811,1.0589842 1.50948,1.4368628 0.54141,0.3779143 1.12929,0.6603133 1.7843,0.8621544 0.65507,0.201686 1.37869,0.3230895 2.19235,0.3802654 1.62729,0.1143616 3.61625,-0.027425 6.14783,-0.3035065 2.38267,-0.259646 6.33411,-0.4580822 10.78192,-0.5686748 4.44787,-0.1104301 9.39284,-0.1343262 13.75865,-0.042694 8.80667,0.1852376 15.16911,0.355984 19.80705,0.4168811 4.63792,0.060703 7.55006,0.011663 9.45221,-0.244764 0.95106,-0.1288434 1.65015,-0.3097725 2.18595,-0.5544968 0.53582,-0.244764 0.90965,-0.5539878 1.20929,-0.9390307 0.59924,-0.7700868 0.90489,-1.844383 1.6342,-3.3209896 0.71001,-1.437566 1.454,-3.477367 2.08026,-5.60584 0.62628,-2.128452 1.13398,-4.346219 1.3742,-6.138072 0.24012,-1.791831 0.77846,-3.92857 1.45027,-5.927596 0.67181,-1.99901 1.47666,-3.860741 2.25575,-5.101902 0.59104,-0.941574 1.04905,-1.739671 1.38051,-2.462914 0.3314,-0.723245 0.5363,-1.371656 0.62791,-2.015666 0.0915,-0.644006 0.0692,-1.283466 -0.0592,-1.987336 -0.12848,-0.703866 -0.36247,-1.471045 -0.69131,-2.373879 -0.43342,-1.190074 -0.82639,-3.042369 -1.11203,-5.06547 -0.28556,-2.023103 -0.46299,-4.21814 -0.46299,-6.097586 0,-1.640234 -0.19229,-3.652031 -0.51796,-5.808203 -0.32565,-2.156165 -0.78577,-4.456377 -1.32554,-6.670317 -0.53977,-2.213944 -1.15912,-4.342724 -1.80121,-6.156287 -0.64207,-1.813556 -1.30591,-3.311076 -1.93862,-4.266087 -0.33302,-0.502381 -1.18814,-1.071914 -2.29595,-1.58258 -1.10776,-0.510672 -2.46799,-0.964099 -3.81595,-1.236517 -1.87309,-0.378543 -13.03168,-0.608671 -26.28257,-0.663796 z"
       style="opacity:1;vector-effect:none;fill:#ffffff;fill-opacity:0.96923062;stroke:#000000;stroke-width:0.35643876;stroke-linecap:butt;stroke-linejoin:round;stroke-miterlimit:3.79999995;stroke-dasharray:none;stroke-dashoffset:0;stroke-opacity:1" />
    <path
       inkscape:connector-curvature="0"
       id="80"
       d="m 34.089452,-100.67967 c -0.351421,-0.0889 -0.681079,-0.0745 -0.98938,0.0425 -0.616684,0.23403 -1.148971,0.880073 -1.596162,1.938762 -0.447193,1.058698 -0.810151,2.529354 -1.090879,4.413838 -0.703987,4.725825 -1.229278,8.372909 -1.566545,11.256157 -0.337102,2.883248 -0.486955,5.003292 -0.439745,6.672338 0.04705,1.669054 0.292509,2.887397 0.742074,3.970624 0.449443,1.083224 1.102949,2.031289 1.97246,3.157064 1.004106,1.300111 1.927823,2.293163 2.767347,2.978979 0.839524,0.68582 1.596164,1.064528 2.264231,1.135329 0.668027,0.07082 1.248056,-0.167417 1.737795,-0.712364 0.489699,-0.544943 0.887841,-1.396616 1.192335,-2.558032 0.498782,-1.902261 0.998176,-8.300563 1.109903,-14.216922 0.07732,-4.105794 -0.02455,-7.017078 -0.387012,-9.258714 -0.182053,-1.120813 -0.430176,-2.074378 -0.754717,-2.926354 -0.324421,-0.851988 -0.725179,-1.600573 -1.213488,-2.31518 -0.96479,-1.411773 -1.840765,-2.413829 -2.629969,-3.003275 -0.394787,-0.29474 -0.767072,-0.48583 -1.11837,-0.57474 z"
       style="opacity:1;vector-effect:none;fill:#ffffff;fill-opacity:0.96923062;stroke:#000000;stroke-width:0.35643876;stroke-linecap:butt;stroke-linejoin:round;stroke-miterlimit:3.79999995;stroke-dasharray:none;stroke-dashoffset:0;stroke-opacity:1"
       inkscape:label="80">
      <title
         id="title885">80</title>
    </path>
    <path
       inkscape:connector-curvature="0"
       id="6"
       d="m 296.37206,-109.44054 -3.64053,3.26027 c -1.53439,1.37372 -2.70248,2.49861 -3.55379,3.63873 -0.85135,1.14012 -1.38666,2.29542 -1.65323,3.731815 -0.26676,1.436387 -0.26632,3.15304 -0.0466,5.41558 0.21969,2.262545 0.65853,5.071484 1.26635,8.690042 0.77083,4.58905 1.32288,7.977194 1.79278,10.440578 0.46986,2.463387 0.85757,4.002261 1.30231,4.891433 0.22212,0.444589 0.45942,0.725904 0.72722,0.880336 0.26795,0.15441 0.56771,0.182144 0.91543,0.115372 0.69538,-0.133575 1.5835,-0.641768 2.80541,-1.246635 1.12745,-0.558129 2.35533,-1.299652 3.42483,-2.043999 1.06952,-0.744347 1.98252,-1.490991 2.47774,-2.062215 0.46631,-0.537814 0.77292,-1.50697 0.93231,-2.788743 0.15953,-1.281778 0.1702,-2.876496 0.041,-4.662747 -0.13022,-1.786245 -0.39929,-3.765051 -0.80123,-5.816293 -0.40214,-2.051235 -0.9353,-4.17466 -1.59194,-6.251399 -0.72073,-2.279561 -2.00569,-6.856265 -2.85405,-10.169395 z"
       style="opacity:1;vector-effect:none;fill:#ffffff;fill-opacity:0.96923062;stroke:#000000;stroke-width:0.35643876;stroke-linecap:butt;stroke-linejoin:round;stroke-miterlimit:3.79999995;stroke-dasharray:none;stroke-dashoffset:0;stroke-opacity:1"
       inkscape:label="6">
      <title
         id="title864">6</title>
    </path>
    <path
       inkscape:connector-curvature="0"
       id="path868"
       d="m 54.951463,-114.66186 c -1.496338,0 -2.659633,0.02 -3.574965,0.10524 -0.915293,0.0854 -1.583439,0.23548 -2.088712,0.49379 -0.505297,0.25832 -0.847836,0.62479 -1.114125,1.14342 -0.266326,0.51863 -0.454971,1.18976 -0.65325,2.05615 -0.478332,2.0896 -1.21877,4.73114 -1.644817,5.87092 -0.425997,1.13979 -1.277138,12.020208 -1.889979,24.177891 -0.293738,5.826544 -0.409104,11.09641 -0.344466,15.831883 0.06422,4.735472 0.308464,8.937447 0.735733,12.622199 0.427113,3.684763 1.038389,6.85348 1.83291,9.527875 0.397235,1.337194 0.83981,2.550599 1.329798,3.642768 0.489988,1.092179 1.025504,2.062022 1.608848,2.914214 0.531948,0.777198 1.089733,1.370944 1.742016,1.784962 0.65227,0.414012 1.399291,0.649959 2.317046,0.710336 0.917743,0.06039 2.00558,-0.05427 3.333947,-0.337969 1.328365,-0.283692 2.897977,-0.737691 4.782119,-1.355916 1.492119,-0.48961 8.704709,-1.367708 17.079866,-2.18769 8.375145,-0.819982 17.912805,-1.582032 24.052208,-1.8396 5.55643,-0.233134 10.47112,-0.452868 10.92147,-0.489755 0.30724,-0.02507 0.78991,-0.873309 1.37206,-2.29089 0.58216,-1.417576 1.26402,-3.405346 1.96613,-5.707014 1.40425,-4.603322 2.89184,-10.466819 3.84559,-15.556654 0.4627,-2.469529 1.11043,-5.222414 1.77798,-7.668028 0.66751,-2.445619 1.35682,-4.583326 1.90693,-5.824387 0.74718,-1.685903 1.1579,-3.183719 1.25366,-4.806434 0.0956,-1.622715 -0.1241,-3.370337 -0.64272,-5.555229 -0.76399,-3.216778 -1.8984,-8.644631 -2.51999,-12.061617 -0.25079,-1.378915 -0.48291,-2.468035 -0.75898,-3.347305 -0.27613,-0.87926 -0.59602,-1.54755 -1.02534,-2.08852 -0.42931,-0.54096 -0.96804,-0.95347 -1.67861,-1.31747 -0.71059,-0.36401 -1.59249,-0.67969 -2.71242,-1.02807 -1.3876,-0.43163 -5.15191,-1.00694 -10.09907,-1.5846 -4.94722,-0.57767 -11.077673,-1.15801 -17.196158,-1.60281 -6.118536,-0.44481 -11.967417,-0.99582 -16.462588,-1.52593 -4.495156,-0.5301 -7.636314,-1.03892 -8.338044,-1.39841 -0.701705,-0.35952 -2.077433,-0.68792 -3.72926,-0.92487 -1.651851,-0.23692 -3.580089,-0.38249 -5.384641,-0.38249 z"
       style="opacity:1;vector-effect:none;fill:#ffffff;fill-opacity:0.96923062;stroke:#000000;stroke-width:0.35643876;stroke-linecap:butt;stroke-linejoin:round;stroke-miterlimit:3.79999995;stroke-dasharray:none;stroke-dashoffset:0;stroke-opacity:1" />
    <path
       inkscape:connector-curvature="0"
       id="path864"
       d="m 272.17819,-119.88315 c -1.65927,0.13761 -4.16463,0.82038 -8.42261,2.1209 -5.03748,1.5386 -10.56315,2.88614 -16.72046,4.07383 -6.15735,1.18769 -12.94681,2.21471 -20.509,3.10647 -2.97182,0.35047 -5.40047,0.72927 -7.37398,1.1839 -1.97352,0.45464 -3.49083,0.98491 -4.63623,1.64127 -1.14547,0.65637 -1.92039,1.43846 -2.40799,2.39411 -0.48757,0.95566 -0.68917,2.08589 -0.68917,3.43838 0,1.19647 -0.26348,3.184625 -0.68923,5.425702 -0.4257,2.241077 -1.0136,4.73366 -1.65957,6.937454 -0.5662,1.931658 -0.98853,3.416692 -1.25788,4.676912 -0.26918,1.260221 -0.38454,2.296678 -0.33628,3.331108 0.0483,1.034438 0.2602,2.066686 0.64692,3.320995 0.3866,1.25431 0.94761,2.730764 1.69341,4.650603 0.85089,2.190301 1.70317,5.191769 2.39316,8.263021 0.69001,3.071251 1.21624,6.212409 1.41225,8.681937 0.39192,4.939058 1.25039,10.844532 1.90691,13.124095 0.28965,1.00561 0.52454,1.767206 0.83082,2.337446 0.30642,0.570232 0.68483,0.949987 1.26424,1.191992 0.57948,0.241986 1.35803,0.345412 2.46715,0.366286 1.10916,0.02076 2.54848,-0.04256 4.44387,-0.135583 2.14824,-0.105453 4.83175,-0.07574 7.42475,0.05666 2.59304,0.132373 5.09544,0.367575 6.88145,0.67391 1.78598,0.306327 5.43142,0.562703 9.86653,0.728557 4.43508,0.165853 9.65904,0.240886 14.60213,0.186178 8.36374,-0.09255 12.89373,-0.193697 15.57461,-0.621297 1.34049,-0.213786 2.21948,-0.50856 2.88367,-0.92485 0.66413,-0.416303 1.11417,-0.953462 1.59825,-1.651391 0.39765,-0.573507 0.75329,-1.41786 1.06764,-2.485182 0.31419,-1.067325 0.58747,-2.358686 0.81606,-3.824914 0.45708,-2.932452 0.73978,-6.567055 0.83926,-10.52558 0.0994,-3.958527 0.0171,-8.241134 -0.26224,-12.466372 -0.27695,-4.22524 -0.74563,-8.393808 -1.41857,-12.12638 -1.24829,-6.924435 -2.27051,-14.431201 -2.27051,-16.683883 0,-1.285074 -0.2463,-2.969814 -0.65749,-4.814534 -0.41124,-1.84473 -0.98746,-3.84999 -1.64688,-5.77783 -0.65943,-1.92785 -1.40327,-3.77796 -2.14798,-5.31238 -0.74465,-1.53443 -1.4895,-2.75365 -2.15634,-3.41813 -0.43884,-0.43728 -0.86199,-0.75752 -1.38265,-0.95118 -0.52067,-0.19365 -1.13859,-0.26105 -1.96824,-0.19224 z"
       style="opacity:1;vector-effect:none;fill:#ffffff;fill-opacity:0.96923062;stroke:#000000;stroke-width:0.35643876;stroke-linecap:butt;stroke-linejoin:round;stroke-miterlimit:3.79999995;stroke-dasharray:none;stroke-dashoffset:0;stroke-opacity:1" />
    <path
       inkscape:connector-curvature="0"
       id="90"
       d="m 42.829199,-136.90299 c -0.347331,-0.0472 -0.747108,0.13233 -1.19659,0.56262 -0.463066,0.44325 -1.623206,3.56074 -2.993585,7.8279 -1.370379,4.26716 -2.950832,9.68447 -4.251458,14.73298 -0.187779,0.72876 -0.08917,1.72912 0.198824,2.8191 0.288011,1.08998 0.765274,2.27052 1.338221,3.35944 0.572995,1.08893 1.241677,2.08541 1.90905,2.81102 0.667414,0.72559 1.3336,1.17984 1.904832,1.17984 0.323193,0 0.778037,-0.81638 1.251536,-2.13102 0.473537,-1.31463 0.966139,-3.12752 1.361497,-5.12214 0.808269,-4.07814 1.391654,-7.92527 1.75682,-11.34723 0.365329,-3.42197 0.511011,-6.41919 0.443962,-8.79931 -0.0671,-2.38013 -0.346514,-4.14321 -0.835066,-5.09584 -0.244234,-0.47631 -0.540427,-0.75022 -0.887921,-0.79736 z"
       style="opacity:1;vector-effect:none;fill:#ffffff;fill-opacity:0.96923062;stroke:#000000;stroke-width:0.35643876;stroke-linecap:butt;stroke-linejoin:round;stroke-miterlimit:3.79999995;stroke-dasharray:none;stroke-dashoffset:0;stroke-opacity:1"
       inkscape:label="90">
      <title
         id="title887">90</title>
    </path>
    <path
       inkscape:connector-curvature="0"
       id="5"
       d="m 284.73808,-139.66542 c -0.45118,-0.0305 -0.92129,0.059 -1.41645,0.26512 -0.99025,0.41236 -2.07947,1.29125 -3.31913,2.60256 -0.48782,0.51597 -0.8822,1.03022 -1.18813,1.58056 -0.306,0.55034 -0.52275,1.13629 -0.66172,1.79102 -0.27779,1.30949 -0.23729,2.89799 0.0634,5.04524 0.25198,1.79891 0.81436,3.98299 1.55177,6.24938 0.73736,2.26639 1.65053,4.61542 2.60035,6.73913 0.94981,2.1237 1.93719,4.02249 2.82656,5.39333 0.44468,0.6854 0.86469,1.23824 1.24309,1.62103 0.37843,0.38281 0.71564,0.59514 0.99363,0.59903 0.46327,0.006 1.15306,-0.66453 1.89424,-1.75258 0.74114,-1.08805 1.53319,-2.5925 2.19444,-4.24991 0.57505,-1.44134 1.00415,-2.56533 1.27903,-3.58813 0.27492,-1.02277 0.39437,-1.94491 0.35099,-2.98099 -0.0433,-1.03608 -0.24833,-2.18581 -0.62783,-3.66705 -0.37924,-1.48125 -0.93226,-3.29409 -1.66594,-5.65236 -0.8311,-2.67141 -1.61563,-4.77967 -2.40163,-6.35867 -0.78599,-1.579 -1.57314,-2.62825 -2.4122,-3.17933 -0.41952,-0.27554 -0.85322,-0.42671 -1.3044,-0.45736 z"
       style="opacity:1;vector-effect:none;fill:#ffffff;fill-opacity:0.96923062;stroke:#000000;stroke-width:0.35643876;stroke-linecap:butt;stroke-linejoin:round;stroke-miterlimit:3.79999995;stroke-dasharray:none;stroke-dashoffset:0;stroke-opacity:1"
       inkscape:label="5">
      <title
         id="title862">5</title>
    </path>
    <path
       inkscape:connector-curvature="0"
       id="path854"
       d="m 136.21778,-141.82275 -2.79271,3.75408 c -0.76816,1.03268 -1.93877,3.29844 -3.205,6.11782 -1.26619,2.81939 -2.62915,6.1918 -3.78212,9.43681 -1.8373,5.17099 -2.82275,8.20556 -3.13103,10.2463 -0.15426,1.02036 -0.13775,1.79242 0.0246,2.45886 0.16328,0.66646 0.47337,1.22716 0.91115,1.82544 0.54944,0.75089 1.20424,2.48229 1.81602,4.66478 0.61178,2.18247 1.18141,4.816145 1.56019,7.376602 0.37883,2.560462 0.85266,5.012391 1.31288,6.899005 0.4602,1.886615 0.90674,3.209234 1.22621,3.511229 0.396,0.374351 1.26678,0.681289 2.86035,0.934978 1.59361,0.253692 3.90893,0.454419 7.19855,0.611177 6.57924,0.313533 17.04903,0.455836 33.40292,0.524154 l 27.87026,0.117367 2.07817,-3.84718 c 0.57151,-1.057946 1.09808,-2.611265 1.48624,-4.260013 0.38825,-1.648745 0.63791,-3.393199 0.65535,-4.836796 0.0204,-1.443587 0.24668,-3.325499 0.60041,-5.194993 0.35386,-1.86948 0.83123,-3.72724 1.35093,-5.12011 0.41856,-1.12184 0.72429,-2.06619 0.9027,-2.98302 0.17836,-0.91684 0.23154,-1.80502 0.1436,-2.81506 -0.1751,-2.0201 -0.90976,-4.52598 -2.30442,-8.70825 -1.79169,-5.37323 -3.57114,-9.81018 -5.23454,-13.10182 -0.83166,-1.64584 -1.63545,-3.00485 -2.39526,-4.05158 -0.75982,-1.04673 -1.47591,-1.78039 -2.13737,-2.17555 -0.49888,-0.29806 -4.24992,-0.58583 -9.88977,-0.80949 -5.63984,-0.22366 -13.16969,-0.38372 -21.22775,-0.425 z"
       style="opacity:1;vector-effect:none;fill:#ffffff;fill-opacity:0.96923062;stroke:#000000;stroke-width:0.35643876;stroke-linecap:butt;stroke-linejoin:round;stroke-miterlimit:3.79999995;stroke-dasharray:none;stroke-dashoffset:0;stroke-opacity:1" />
    <path
       inkscape:connector-curvature="0"
       id="100"
       d="m 54.36375,-172.93 c -0.38784,0.0841 -0.765521,0.29356 -1.147949,0.63749 -0.764867,0.68787 -1.545684,1.91757 -2.43758,3.77836 -0.891882,1.8608 -1.895382,4.3513 -3.11198,7.5628 -1.032487,2.72567 -1.821984,4.89605 -2.38679,6.69663 -0.564854,1.80059 -0.906208,3.2313 -1.044363,4.47656 -0.138283,1.24525 -0.072,2.30581 0.175505,3.36552 0.24751,1.0597 0.676407,2.11958 1.268468,3.36349 0.547096,1.14943 1.024763,2.00066 1.488325,2.54791 0.463513,0.54726 0.913736,0.79099 1.401638,0.72047 0.487942,-0.0705 1.013925,-0.4537 1.634195,-1.1576 0.620293,-0.70391 1.333892,-1.72929 2.19445,-3.08219 0.785428,-1.23476 1.870941,-3.40432 2.987239,-5.90534 1.116298,-2.50099 2.262927,-5.33279 3.171187,-7.89267 l 3.304331,-9.3093 -3.435416,-3.49908 c -1.103812,-1.12474 -2.022774,-1.88443 -2.858301,-2.19174 -0.417733,-0.15365 -0.815169,-0.19535 -1.202922,-0.11132 z"
       style="opacity:1;vector-effect:none;fill:#ffffff;fill-opacity:0.96923062;stroke:#000000;stroke-width:0.35643876;stroke-linecap:butt;stroke-linejoin:round;stroke-miterlimit:3.79999995;stroke-dasharray:none;stroke-dashoffset:0;stroke-opacity:1"
       inkscape:label="100">
      <title
         id="title889">100</title>
    </path>
    <path
       inkscape:connector-curvature="0"
       id="4"
       d="m 273.01329,-175.4334 c -0.46762,0.005 -1.25621,0.54688 -2.15221,1.41867 -0.89599,0.87178 -1.89877,2.07179 -2.79061,3.3898 l -3.24305,4.79429 4.09925,10.04192 c 2.25479,5.52303 4.50577,11.12852 5.00196,12.45827 0.31012,0.83098 0.77061,1.43702 1.31713,1.82138 0.54653,0.38437 1.18005,0.54806 1.83715,0.49582 0.65713,-0.0522 1.337,-0.32055 1.9788,-0.79939 0.64183,-0.47884 1.24564,-1.16879 1.74629,-2.06423 0.45779,-0.81888 0.79298,-2.27108 0.96613,-3.95848 0.17304,-1.6874 0.18286,-3.60999 -0.0126,-5.36701 -0.22008,-1.99972 -0.73548,-4.38949 -1.42063,-6.85044 -0.68517,-2.46095 -1.54,-4.99294 -2.43756,-7.2734 -0.8976,-2.28047 -1.83809,-4.30947 -2.69553,-5.76773 -0.42872,-0.72911 -0.83585,-1.31694 -1.20715,-1.72019 -0.37145,-0.40325 -0.70705,-0.6221 -0.98938,-0.61928 z"
       style="opacity:1;vector-effect:none;fill:#ffffff;fill-opacity:0.96923062;stroke:#000000;stroke-width:0.35643876;stroke-linecap:butt;stroke-linejoin:round;stroke-miterlimit:3.79999995;stroke-dasharray:none;stroke-dashoffset:0;stroke-opacity:1"
       inkscape:label="4">
      <title
         id="title860">4</title>
    </path>
    <path
       inkscape:connector-curvature="0"
       id="path846"
       d="m 113.46999,-198.13393 c -0.35592,-0.21061 -1.61252,-0.0954 -3.35087,0.26107 -1.73834,0.35641 -3.95938,0.95463 -6.24085,1.70602 -1.46304,0.48186 -2.86276,1.02908 -4.228219,1.66354 -1.365445,0.63447 -2.695721,1.35551 -4.023145,2.17957 -2.65485,1.64816 -5.293936,3.71202 -8.154109,6.34046 -4.460216,4.09882 -10.744564,9.85568 -13.965814,12.79221 -1.049103,0.95636 -2.023402,1.97212 -2.949146,3.08826 -0.925781,1.11613 -1.80327,2.33249 -2.655351,3.68728 -1.704112,2.70962 -3.309643,5.97497 -5.016757,10.11275 -1.310369,3.17622 -2.977593,6.79693 -4.608772,10.07226 -1.631141,3.27532 -3.226486,6.20466 -4.391012,7.9979 -1.377977,2.12199 -2.463905,4.28578 -3.228195,6.41532 -0.76434,2.12954 -1.207555,4.2258 -1.304441,6.21295 l -0.298239,6.10568 7.938472,0.85808 c 4.365769,0.47146 13.133414,1.55406 19.483624,2.40626 9.714489,1.30367 27.622914,3.29327 37.081434,4.12038 0.67204,0.0588 1.54028,-0.23627 2.39739,-0.76094 0.85718,-0.52468 1.70348,-1.27821 2.33192,-2.13304 0.62844,-0.85484 1.52103,-2.6603 2.45233,-4.88131 0.93135,-2.22101 1.90035,-4.8576 2.68491,-7.37257 0.78459,-2.51497 1.82318,-5.19679 2.86251,-7.48994 1.03938,-2.29316 2.08068,-4.19831 2.87307,-5.16261 0.9348,-1.13763 1.62784,-2.15342 2.07608,-3.16517 0.44827,-1.01174 0.6508,-2.01976 0.60251,-3.13683 -0.0482,-1.11708 -0.34776,-2.34298 -0.9027,-3.79658 -0.5548,-1.4536 -1.36417,-3.1332 -2.43544,-5.15452 -0.97036,-1.83081 -1.94997,-4.22264 -2.74624,-6.6015 -0.79633,-2.37888 -1.40903,-4.7461 -1.6469,-6.52462 -0.43825,-3.27692 -1.09118,-6.64301 -1.88155,-9.88406 -0.79044,-3.24102 -1.71924,-6.35709 -2.7082,-9.1312 -0.98891,-2.77411 -2.03799,-5.20697 -3.07182,-7.08318 -0.51685,-0.93809 -1.02917,-1.737 -1.5285,-2.36981 -0.49933,-0.63282 -0.98568,-1.09848 -1.44813,-1.37211 z"
       style="opacity:1;vector-effect:none;fill:#ffffff;fill-opacity:0.96923062;stroke:#000000;stroke-width:0.35643876;stroke-linecap:butt;stroke-linejoin:round;stroke-miterlimit:3.79999995;stroke-dasharray:none;stroke-dashoffset:0;stroke-opacity:1" />
    <path
       inkscape:connector-curvature="0"
       id="path844"
       d="m 216.98516,-201.58243 c -1.01479,0.0847 -1.75422,0.4292 -2.30646,1.04023 -0.55224,0.61103 -0.91717,1.48938 -1.17759,2.641 -1.0086,4.461 -3.44005,12.8291 -6.02731,21.06534 -2.58723,8.23624 -5.33,16.34107 -6.95755,20.27203 -1.94122,4.68872 -3.52844,8.79944 -3.52844,9.13526 0,0.33581 1.90998,2.91235 4.24517,5.72522 1.02443,1.23399 2.01521,2.64175 2.95127,4.18109 0.93606,1.53933 1.81826,3.20933 2.62571,4.96631 0.80745,1.75698 1.53902,3.60148 2.17756,5.48844 0.6385,1.88696 1.18379,3.81621 1.61305,5.74546 0.26593,1.19487 0.68124,2.29648 1.21773,3.27444 0.53646,0.97797 1.19296,1.83262 1.94077,2.53781 0.7478,0.70517 1.58626,1.26071 2.48616,1.63722 0.8999,0.3765 1.86136,0.57468 2.85403,0.56665 1.72929,-0.0141 8.34075,-0.90751 14.69096,-1.98531 8.24012,-1.39856 14.12484,-2.51464 18.97622,-3.65694 4.8514,-1.14229 8.66796,-2.31054 12.77342,-3.81884 1.17259,-0.43078 2.20635,-0.85677 3.10143,-1.3033 0.89505,-0.44653 1.65295,-0.91428 2.27688,-1.42676 0.62392,-0.51246 1.11228,-1.07136 1.47144,-1.69995 0.35917,-0.62859 0.58845,-1.32601 0.68917,-2.1209 0.10057,-0.79489 0.0731,-1.68629 -0.0782,-2.69768 -0.15139,-1.01138 -0.42749,-2.14413 -0.82448,-3.42217 -0.79402,-2.55611 -2.07314,-5.69509 -3.81175,-9.61895 -2.86182,-6.45876 -6.12638,-14.609 -7.25564,-18.11065 -0.45589,-1.41372 -1.15698,-2.96831 -2.05701,-4.6162 -0.90001,-1.64788 -1.99905,-3.38741 -3.24936,-5.1707 -2.50062,-3.56655 -5.608,-7.30554 -8.9469,-10.82107 -3.33893,-3.5155 -6.90915,-6.80901 -10.3359,-9.48334 -1.71337,-1.33715 -3.39044,-2.51835 -4.98505,-3.49705 -1.59467,-0.97871 -3.10619,-1.75526 -4.48824,-2.27672 -2.45222,-0.92526 -4.45954,-1.60446 -6.10765,-2.03186 -1.64816,-0.42743 -2.93862,-0.60279 -3.95339,-0.51811 z"
       style="opacity:1;vector-effect:none;fill:#ffffff;fill-opacity:0.96923062;stroke:#000000;stroke-width:0.35643876;stroke-linecap:butt;stroke-linejoin:round;stroke-miterlimit:3.79999995;stroke-dasharray:none;stroke-dashoffset:0;stroke-opacity:1" />
    <path
       inkscape:connector-curvature="0"
       id="200"
       d="m 78.466682,-209.29902 -5.3233,5.792 c -5.298607,5.7628 -9.335703,10.41515 -12.048313,13.87896 -1.356312,1.73191 -2.381527,3.16758 -3.067583,4.29443 -0.686043,1.12686 -1.033768,1.94513 -1.033768,2.44672 0,0.90714 0.270835,1.99848 0.714541,3.1247 0.443681,1.12621 1.059214,2.28711 1.750519,3.33515 0.691269,1.04805 1.457919,1.98253 2.20077,2.65517 0.742824,0.67265 1.462916,1.08475 2.061243,1.08475 0.638896,0 2.576792,-1.1806 5.185886,-3.08219 2.60917,-1.90159 5.889285,-4.52586 9.20909,-7.41101 3.31983,-2.88517 6.338128,-5.77105 8.526188,-8.0991 1.094016,-1.16402 1.980949,-2.18924 2.594009,-3.00325 0.613022,-0.81402 0.951327,-1.41691 0.951327,-1.74046 0,-0.64703 -0.658701,-1.85003 -1.720867,-3.26635 -1.06219,-1.41631 -2.527858,-3.04554 -4.139418,-4.54739 z"
       style="opacity:1;vector-effect:none;fill:#ffffff;fill-opacity:0.96923062;stroke:#000000;stroke-width:0.35643876;stroke-linecap:butt;stroke-linejoin:round;stroke-miterlimit:3.79999995;stroke-dasharray:none;stroke-dashoffset:0;stroke-opacity:1"
       inkscape:label="200">
      <title
         id="title891">200</title>
    </path>
    <path
       inkscape:connector-curvature="0"
       id="3"
       d="m 247.16827,-211.37136 c -0.3248,0 -0.6866,0.20376 -1.0676,0.56464 -0.38086,0.36086 -0.78154,0.87956 -1.1839,1.50972 -0.8047,1.26035 -1.6172,2.96761 -2.29802,4.75585 -0.68086,1.78823 -1.22928,3.65586 -1.5074,5.23951 -0.13908,0.79184 -0.21067,1.5135 -0.19678,2.11687 0.0126,0.60334 0.11328,1.08926 0.31502,1.41257 0.88472,1.41788 6.22505,7.17049 11.47327,12.57363 5.24819,5.40314 10.40448,10.45628 10.91512,10.475 0.26469,0.01 0.78317,-0.67811 1.4059,-1.79508 0.6227,-1.11696 1.34958,-2.66291 2.02956,-4.36728 l 2.47135,-6.19675 -4.87934,-7.84613 c -1.46395,-2.35378 -3.0959,-4.68203 -4.76944,-6.85244 -1.67346,-2.17044 -3.3875,-4.18227 -5.01463,-5.89928 -1.62719,-1.71701 -3.16762,-3.13898 -4.49252,-4.13252 -1.32484,-0.99353 -2.43407,-1.55831 -3.20074,-1.55831 z"
       style="opacity:1;vector-effect:none;fill:#ffffff;fill-opacity:0.96923062;stroke:#000000;stroke-width:0.35643876;stroke-linecap:butt;stroke-linejoin:round;stroke-miterlimit:3.79999995;stroke-dasharray:none;stroke-dashoffset:0;stroke-opacity:1"
       inkscape:label="3">
      <title
         id="title858">3</title>
    </path>
    <path
       inkscape:connector-curvature="0"
       id="path836"
       d="m 164.31216,-211.84289 -9.83481,4.58584 c -2.23726,1.04334 -4.03724,1.85037 -5.65311,2.47101 -1.61585,0.62068 -3.04801,1.05421 -4.54326,1.35188 -1.49518,0.29767 -3.05474,0.45992 -4.93006,0.53429 -1.87534,0.0743 -4.06605,0.0615 -6.82224,0.0128 -4.41656,-0.079 -7.49462,-0.0121 -9.53463,0.24284 -1.01999,0.12669 -1.78054,0.30027 -2.31918,0.52416 -0.53861,0.22392 -0.8548,0.49733 -0.9873,0.82773 -0.19961,0.49845 0.0369,1.85825 0.57931,3.64478 0.54189,1.78654 1.3881,4.00082 2.41006,6.21296 1.022,2.21215 2.08861,5.25367 2.983,8.37028 0.89438,3.1166 1.61634,6.30914 1.95135,8.82561 0.33506,2.51649 1.05791,5.70125 1.95132,8.80742 0.8934,3.10617 1.95827,6.13349 2.97876,8.3298 1.27879,2.75223 2.42046,4.88213 3.77792,6.52058 0.6787,0.8192 1.41112,1.5159 2.24096,2.1047 0.82981,0.58878 1.75804,1.0708 2.82654,1.46115 1.06853,0.39038 2.27736,0.68878 3.67222,0.91271 1.39484,0.22393 2.97545,0.37392 4.78422,0.46344 3.61755,0.17906 8.14994,0.12001 13.94886,-0.0466 4.96112,-0.14245 9.99547,-0.38108 14.10959,-0.65164 4.11409,-0.27053 7.30862,-0.57184 8.58961,-0.83984 1.28099,-0.26804 2.59187,-0.688 3.6722,-1.14748 1.08033,-0.45948 1.92932,-0.95919 2.28747,-1.38832 0.81687,-0.9788 2.21968,-4.15248 3.87092,-8.48157 1.65126,-4.32911 3.55238,-9.81297 5.36561,-15.41501 1.81321,-5.60203 3.53845,-11.32164 4.84129,-16.11925 1.30284,-4.79763 2.18221,-8.6745 2.30228,-10.59035 0.0368,-0.59357 -0.0329,-1.1465 -0.21148,-1.65949 -0.1788,-0.51299 -0.46628,-0.98639 -0.86679,-1.42067 -0.40051,-0.4343 -0.91325,-0.82848 -1.54116,-1.18592 -0.62795,-0.35749 -1.37145,-0.67677 -2.23254,-0.95927 -1.72213,-0.56501 -3.91547,-0.98235 -6.60445,-1.25879 -2.68903,-0.27644 -5.87317,-0.41198 -9.5748,-0.41486 -2.7832,-0.002 -6.00405,-0.25752 -9.0061,-0.67391 -3.00206,-0.41639 -5.78619,-0.99492 -7.69324,-1.6433 z"
       style="opacity:1;vector-effect:none;fill:#ffffff;fill-opacity:0.96923062;stroke:#000000;stroke-width:0.35643876;stroke-linecap:butt;stroke-linejoin:round;stroke-miterlimit:3.79999995;stroke-dasharray:none;stroke-dashoffset:0;stroke-opacity:1" />
    <path
       inkscape:connector-curvature="0"
       id="path832"
       d="m 164.48977,-225.41627 c -0.38416,0.0301 -0.78578,0.45392 -1.12471,1.26687 -0.33876,0.81298 -0.61462,2.01462 -0.75052,3.59827 -0.1682,1.96282 -0.15783,3.25372 0.0695,3.99894 0.11417,0.37263 0.28228,0.60963 0.5095,0.72451 0.22747,0.11482 0.51242,0.10761 0.86256,-0.004 0.52256,-0.16677 0.99806,-0.80927 1.34248,-1.71211 0.34447,-0.90285 0.5581,-2.06528 0.5581,-3.26837 0,-1.57304 -0.1751,-2.7398 -0.44603,-3.50516 -0.27083,-0.76536 -0.63719,-1.12886 -1.02114,-1.0989 z"
       style="opacity:1;vector-effect:none;fill:#ffffff;fill-opacity:0.96923062;stroke:#000000;stroke-width:0.35643876;stroke-linecap:butt;stroke-linejoin:round;stroke-miterlimit:3.79999995;stroke-dasharray:none;stroke-dashoffset:0;stroke-opacity:1" />
    <path
       inkscape:connector-curvature="0"
       id="2"
       d="m 215.74843,-228.26977 c -2.90356,-0.16624 -4.51363,-0.18483 -5.33814,0.14573 -0.41225,0.16526 -0.62703,0.41723 -0.71033,0.78319 -0.0834,0.36598 -0.0329,0.84552 0.0848,1.46318 0.29129,1.51972 0.83482,6.33857 1.20926,10.70773 0.16074,1.87649 0.29867,3.31045 0.46933,4.40776 0.1706,1.09731 0.37395,1.85772 0.67228,2.38399 0.29825,0.52626 0.69089,0.81819 1.23463,0.98153 0.54377,0.16336 1.23862,0.19788 2.14586,0.20641 1.05618,0.01 2.66543,0.31609 4.40789,0.8014 1.74246,0.48535 3.61954,1.14964 5.20704,1.87605 2.18112,0.99797 3.95973,1.69708 5.44807,2.06018 0.74416,0.18155 1.4146,0.27885 2.02743,0.28738 0.61286,0.009 1.1671,-0.0709 1.67652,-0.24489 0.50938,-0.17399 0.97412,-0.44138 1.40795,-0.80748 0.43387,-0.36607 0.83787,-0.83072 1.22409,-1.39842 0.77245,-1.13538 1.47679,-2.68395 2.22615,-4.68298 0.71211,-1.89963 1.28865,-3.80586 1.64477,-5.34679 0.35632,-1.54092 0.49102,-2.71672 0.3191,-3.15503 -0.13908,-0.35519 -0.53375,-0.77994 -1.13314,-1.2507 -0.59943,-0.47074 -1.40208,-0.98763 -2.35514,-1.52996 -1.90609,-1.08463 -4.41354,-2.26865 -7.09492,-3.37563 -2.68139,-1.10697 -5.53723,-2.13683 -8.14144,-2.91421 -2.60417,-0.77738 -4.95742,-1.30257 -6.63196,-1.39844 z"
       style="opacity:1;vector-effect:none;fill:#ffffff;fill-opacity:0.96923062;stroke:#000000;stroke-width:0.35643876;stroke-linecap:butt;stroke-linejoin:round;stroke-miterlimit:3.79999995;stroke-dasharray:none;stroke-dashoffset:0;stroke-opacity:1"
       inkscape:label="2">
      <title
         id="title884">2</title>
    </path>
    <path
       inkscape:connector-curvature="0"
       id="300"
       d="m 111.07046,-228.91737 c -1.09289,0.004 -2.41862,0.20465 -3.89207,0.56058 -1.47343,0.35591 -3.09345,0.86763 -4.77576,1.49354 -1.68233,0.62593 -3.426166,1.367 -5.145749,2.18161 -3.439162,1.62925 -6.781824,3.55386 -9.340127,5.44999 -1.279159,0.94808 -2.361218,1.88984 -3.162709,2.78269 -0.801466,0.89283 -1.321396,1.737 -1.473544,2.49327 -0.09207,0.45665 0.529174,1.61596 1.543312,3.09838 1.014164,1.48241 2.420537,3.28782 3.902633,5.04118 1.482108,1.75338 3.038833,3.45397 4.350847,4.72347 1.311989,1.26949 2.379719,2.10832 2.883634,2.13912 0.396851,0.0243 4.733583,-1.30587 9.638233,-2.95469 l 8.91945,-2.9972 0.46296,-10.95461 c 0.16448,-3.88624 0.14406,-6.73355 -0.0846,-8.74064 -0.11417,-1.00355 -0.28231,-1.79546 -0.50318,-2.40424 -0.2209,-0.60877 -0.49526,-1.03323 -0.82872,-1.29723 -0.5407,-0.42805 -1.40176,-0.61981 -2.49463,-0.61522 z"
       style="opacity:1;vector-effect:none;fill:#ffffff;fill-opacity:0.96923062;stroke:#000000;stroke-width:0.35643876;stroke-linecap:butt;stroke-linejoin:round;stroke-miterlimit:3.79999995;stroke-dasharray:none;stroke-dashoffset:0;stroke-opacity:1"
       inkscape:label="300">
      <title
         id="title888">300</title>
    </path>
    <path
       inkscape:connector-curvature="0"
       id="400"
       d="m 122.75304,-230.02235 -2.7758,7.31185 c -0.88106,2.32176 -1.44517,4.33619 -1.68495,6.0632 -0.23974,1.72703 -0.15513,3.1682 0.26223,4.34504 0.20866,0.58837 0.50154,1.10919 0.87737,1.56839 0.37596,0.45921 0.83547,0.85643 1.38049,1.19199 1.09005,0.67115 2.51929,1.09941 4.29796,1.30937 2.75642,0.32542 5.26369,0.53892 7.56219,0.63749 2.29852,0.0986 4.38997,0.0833 6.31273,-0.0507 1.92275,-0.13396 3.67733,-0.38672 5.30642,-0.75889 1.62905,-0.3722 3.13202,-0.8632 4.54952,-1.47939 1.12105,-0.48727 2.08104,-0.96923 2.90903,-1.47126 0.82799,-0.50204 1.52356,-1.02418 2.11835,-1.59876 0.59478,-0.57461 1.08802,-1.20148 1.50946,-1.9064 0.42142,-0.70492 0.77031,-1.48889 1.0782,-2.38197 0.45129,-1.30905 0.7595,-2.75341 0.89214,-4.02728 0.13247,-1.27389 0.0915,-2.37749 -0.15868,-3.00127 -0.30234,-0.75402 -1.01229,-1.43159 -2.12468,-2.03182 -1.11245,-0.60027 -2.6274,-1.1235 -4.54325,-1.56844 -1.91583,-0.44493 -4.2323,-0.81085 -6.94484,-1.0989 -2.71252,-0.28803 -5.82286,-0.49778 -9.32533,-0.62735 z"
       style="opacity:1;vector-effect:none;fill:#ffffff;fill-opacity:0.96923062;stroke:#000000;stroke-width:0.35643876;stroke-linecap:butt;stroke-linejoin:round;stroke-miterlimit:3.79999995;stroke-dasharray:none;stroke-dashoffset:0;stroke-opacity:1"
       inkscape:label="400">
      <title
         id="title886">400</title>
    </path>
    <path
       inkscape:connector-curvature="0"
       id="1"
       d="m 195.15278,-230.60316 c -1.67872,0.0305 -4.17799,0.31867 -6.85395,0.75687 -2.67592,0.43822 -5.52755,1.02705 -7.90884,1.66154 -1.98273,0.52824 -3.51725,0.95868 -4.71023,1.36603 -1.19299,0.40734 -2.04406,0.79125 -2.65958,1.2284 -0.61547,0.43718 -0.99496,0.92644 -1.24523,1.54415 -0.25035,0.61771 -0.37225,1.36415 -0.46931,2.31316 -0.20211,1.97374 -0.16855,3.55962 0.24097,4.84083 0.20495,0.64062 0.50388,1.20563 0.9154,1.70401 0.41153,0.49839 0.93591,0.93058 1.58985,1.30735 0.65389,0.37678 1.43784,0.69767 2.36989,0.97342 0.93206,0.2758 2.01185,0.50688 3.25786,0.70225 2.49194,0.39077 5.64636,0.64096 9.60862,0.83379 3.90297,0.18999 7.65421,0.22683 10.55363,0.13356 2.89935,-0.0933 4.94766,-0.31613 5.44384,-0.64759 0.49608,-0.33148 0.9478,-1.00974 1.27475,-1.83354 0.32688,-0.8238 0.52854,-1.7934 0.52854,-2.71184 0,-0.91843 -0.32771,-2.36959 -0.85619,-3.96656 -0.52852,-1.597 -1.25734,-3.34032 -2.05914,-4.84489 -0.68088,-1.27752 -1.22896,-2.25716 -1.7568,-3.00732 -0.52793,-0.75017 -1.03539,-1.26997 -1.63633,-1.62711 -0.60098,-0.35714 -1.29437,-0.55112 -2.19446,-0.64963 -0.90017,-0.0986 -2.00797,-0.10279 -3.43334,-0.0769 z"
       style="opacity:1;vector-effect:none;fill:#ffffff;fill-opacity:0.96923062;stroke:#000000;stroke-width:0.35643876;stroke-linecap:butt;stroke-linejoin:round;stroke-miterlimit:3.79999995;stroke-dasharray:none;stroke-dashoffset:0;stroke-opacity:1"
       inkscape:label="1">
      <title
         id="title882">1</title>
    </path>
    <text
       xml:space="preserve"
       style="font-style:normal;font-weight:normal;font-size:10.58333302px;line-height:0;font-family:sans-serif;letter-spacing:0px;word-spacing:0px;fill:#000000;fill-opacity:1;stroke:none;stroke-width:0.26458332"
       x="185.75171"
       y="-229.99071"
       id="text875"><tspan
         sodipodi:role="line"
         id="tspan873"
         x="185.75171"
         y="-229.99071"
         style="stroke-width:0.26458332">1</tspan></text>
    <text
       xml:space="preserve"
       style="font-style:normal;font-weight:normal;font-size:10.58333302px;line-height:0;font-family:sans-serif;letter-spacing:0px;word-spacing:0px;fill:#000000;fill-opacity:1;stroke:none;stroke-width:0.26458332"
       x="226.5152"
       y="-225.8468"
       id="text875-3"><tspan
         sodipodi:role="line"
         id="tspan873-6"
         x="226.5152"
         y="-225.8468"
         style="stroke-width:0.26458332">2</tspan></text>
    <text
       xml:space="preserve"
       style="font-style:normal;font-weight:normal;font-size:10.58333302px;line-height:0;font-family:sans-serif;letter-spacing:0px;word-spacing:0px;fill:#000000;fill-opacity:1;stroke:none;stroke-width:0.26458332"
       x="259.0791"
       y="-200.50856"
       id="text935"><tspan
         sodipodi:role="line"
         id="tspan933"
         x="259.0791"
         y="-200.50856"
         style="stroke-width:0.26458332">3</tspan></text>
    <text
       xml:space="preserve"
       style="font-style:normal;font-weight:normal;font-size:10.58333302px;line-height:0;font-family:sans-serif;letter-spacing:0px;word-spacing:0px;fill:#000000;fill-opacity:1;stroke:none;stroke-width:0.26458332"
       x="279.34897"
       y="-161.5659"
       id="text939"><tspan
         sodipodi:role="line"
         id="tspan937"
         x="279.34897"
         y="-161.5659"
         style="stroke-width:0.26458332">4</tspan></text>
    <text
       xml:space="preserve"
       style="font-style:normal;font-weight:normal;font-size:10.58333302px;line-height:0;font-family:sans-serif;letter-spacing:0px;word-spacing:0px;fill:#000000;fill-opacity:1;stroke:none;stroke-width:0.26458332"
       x="289.99716"
       y="-127.39147"
       id="text943"><tspan
         sodipodi:role="line"
         id="tspan941"
         x="289.99716"
         y="-127.39147"
         style="stroke-width:0.26458332">5</tspan></text>
    <text
       xml:space="preserve"
       style="font-style:normal;font-weight:normal;font-size:10.58333302px;line-height:0;font-family:sans-serif;letter-spacing:0px;word-spacing:0px;fill:#000000;fill-opacity:1;stroke:none;stroke-width:0.26458332"
       x="300.51562"
       y="-90.884338"
       id="text947"><tspan
         sodipodi:role="line"
         id="tspan945"
         x="300.51562"
         y="-90.884338"
         style="stroke-width:0.26458332">6</tspan></text>
    <text
       xml:space="preserve"
       style="font-style:normal;font-weight:normal;font-size:10.58333302px;line-height:0;font-family:sans-serif;letter-spacing:0px;word-spacing:0px;fill:#000000;fill-opacity:1;stroke:none;stroke-width:0.26458332"
       x="306.08243"
       y="-38.070526"
       id="text951"><tspan
         sodipodi:role="line"
         id="tspan949"
         x="306.08243"
         y="-38.070526"
         style="stroke-width:0.26458332">7</tspan></text>
    <text
       xml:space="preserve"
       style="font-style:normal;font-weight:normal;font-size:10.58333302px;line-height:0;font-family:sans-serif;letter-spacing:0px;word-spacing:0px;fill:#000000;fill-opacity:1;stroke:none;stroke-width:0.26458332"
       x="298.58777"
       y="18.393358"
       id="text955"><tspan
         sodipodi:role="line"
         id="tspan953"
         x="298.58777"
         y="18.393358"
         style="stroke-width:0.26458332">8</tspan></text>
    <text
       xml:space="preserve"
       style="font-style:normal;font-weight:normal;font-size:10.58333302px;line-height:0;font-family:sans-serif;letter-spacing:0px;word-spacing:0px;fill:#000000;fill-opacity:1;stroke:none;stroke-width:0.26458332"
       x="280.28836"
       y="67.114296"
       id="text959"><tspan
         sodipodi:role="line"
         id="tspan957"
         x="280.28836"
         y="67.114296"
         style="stroke-width:0.26458332">9</tspan></text>
    <text
       xml:space="preserve"
       style="font-style:normal;font-weight:normal;font-size:10.58333302px;line-height:0;font-family:sans-serif;letter-spacing:0px;word-spacing:0px;fill:#000000;fill-opacity:1;stroke:none;stroke-width:0.26458332"
       x="250.20683"
       y="101.66669"
       id="text963"><tspan
         sodipodi:role="line"
         id="tspan961"
         x="250.20683"
         y="101.66669"
         style="stroke-width:0.26458332">10</tspan></text>
    <text
       xml:space="preserve"
       style="font-style:normal;font-weight:normal;font-size:10.58333302px;line-height:0;font-family:sans-serif;letter-spacing:0px;word-spacing:0px;fill:#000000;fill-opacity:1;stroke:none;stroke-width:0.26458332"
       x="219.12106"
       y="123.30306"
       id="text967"><tspan
         sodipodi:role="line"
         id="tspan965"
         x="219.12106"
         y="123.30306"
         style="stroke-width:0.26458332">20</tspan></text>
    <text
       xml:space="preserve"
       style="font-style:normal;font-weight:normal;font-size:10.58333302px;line-height:0;font-family:sans-serif;letter-spacing:0px;word-spacing:0px;fill:#000000;fill-opacity:1;stroke:none;stroke-width:0.26458332"
       x="100.59963"
       y="114.33447"
       id="text971"><tspan
         sodipodi:role="line"
         id="tspan969"
         x="100.59963"
         y="114.33447"
         style="stroke-width:0.26458332">30</tspan></text>
    <text
       xml:space="preserve"
       style="font-style:normal;font-weight:normal;font-size:10.58333302px;line-height:0;font-family:sans-serif;letter-spacing:0px;word-spacing:0px;fill:#000000;fill-opacity:1;stroke:none;stroke-width:0.26458332"
       x="66.398338"
       y="92.78981"
       id="text975"><tspan
         sodipodi:role="line"
         id="tspan973"
         x="66.398338"
         y="92.78981"
         style="stroke-width:0.26458332">40</tspan></text>
    <text
       xml:space="preserve"
       style="font-style:normal;font-weight:normal;font-size:10.58333302px;line-height:0;font-family:sans-serif;letter-spacing:0px;word-spacing:0px;fill:#000000;fill-opacity:1;stroke:none;stroke-width:0.26458332"
       x="38.622665"
       y="62.708313"
       id="text979"><tspan
         sodipodi:role="line"
         id="tspan977"
         x="38.622665"
         y="62.708313"
         style="stroke-width:0.26458332">50</tspan></text>
    <text
       xml:space="preserve"
       style="font-style:normal;font-weight:normal;font-size:10.58333302px;line-height:0;font-family:sans-serif;letter-spacing:0px;word-spacing:0px;fill:#000000;fill-opacity:1;stroke:none;stroke-width:0.26458332"
       x="21.041204"
       y="17.389137"
       id="text983"><tspan
         sodipodi:role="line"
         id="tspan981"
         x="21.041204"
         y="17.389137"
         style="stroke-width:0.26458332">60</tspan></text>
    <text
       xml:space="preserve"
       style="font-style:normal;font-weight:normal;font-size:10.58333302px;line-height:0;font-family:sans-serif;letter-spacing:0px;word-spacing:0px;fill:#000000;fill-opacity:1;stroke:none;stroke-width:0.26458332"
       x="14.615609"
       y="-32.935417"
       id="text987"><tspan
         sodipodi:role="line"
         id="tspan985"
         x="14.615609"
         y="-32.935417"
         style="stroke-width:0.26458332">70</tspan></text>
    <text
       xml:space="preserve"
       style="font-style:normal;font-weight:normal;font-size:10.58333302px;line-height:0;font-family:sans-serif;letter-spacing:0px;word-spacing:0px;fill:#000000;fill-opacity:1;stroke:none;stroke-width:0.26458332"
       x="15.528124"
       y="-81.408073"
       id="text991"><tspan
         sodipodi:role="line"
         id="tspan989"
         x="15.528124"
         y="-81.408073"
         style="stroke-width:0.26458332">80</tspan></text>
    <text
       xml:space="preserve"
       style="font-style:normal;font-weight:normal;font-size:10.58333302px;line-height:0;font-family:sans-serif;letter-spacing:0px;word-spacing:0px;fill:#000000;fill-opacity:1;stroke:none;stroke-width:0.26458332"
       x="23.271069"
       y="-119.96165"
       id="text995"><tspan
         sodipodi:role="line"
         id="tspan993"
         x="23.271069"
         y="-119.96165"
         style="stroke-width:0.26458332">90</tspan></text>
    <text
       xml:space="preserve"
       style="font-style:normal;font-weight:normal;font-size:10.58333302px;line-height:0;font-family:sans-serif;letter-spacing:0px;word-spacing:0px;fill:#000000;fill-opacity:1;stroke:none;stroke-width:0.26458332"
       x="26.932261"
       y="-157.62958"
       id="text999"><tspan
         sodipodi:role="line"
         id="tspan997"
         x="26.932261"
         y="-157.62958"
         style="stroke-width:0.26458332">100</tspan></text>
    <text
       xml:space="preserve"
       style="font-style:normal;font-weight:normal;font-size:10.58333302px;line-height:0;font-family:sans-serif;letter-spacing:0px;word-spacing:0px;fill:#000000;fill-opacity:1;stroke:none;stroke-width:0.26458332"
       x="49.481133"
       y="-197.21423"
       id="text1003"><tspan
         sodipodi:role="line"
         id="tspan1001"
         x="49.481133"
         y="-197.21423"
         style="stroke-width:0.26458332">200</tspan></text>
    <text
       xml:space="preserve"
       style="font-style:normal;font-weight:normal;font-size:10.58333302px;line-height:0;font-family:sans-serif;letter-spacing:0px;word-spacing:0px;fill:#000000;fill-opacity:1;stroke:none;stroke-width:0.26458332"
       x="83.487854"
       y="-226.90666"
       id="text1007"><tspan
         sodipodi:role="line"
         id="tspan1005"
         x="83.487854"
         y="-226.90666"
         style="stroke-width:0.26458332">300</tspan></text>
    <text
       xml:space="preserve"
       style="font-style:normal;font-weight:normal;font-size:10.58333302px;line-height:0;font-family:sans-serif;letter-spacing:0px;word-spacing:0px;fill:#000000;fill-opacity:1;stroke:none;stroke-width:0.26458332"
       x="125.87492"
       y="-230.43814"
       id="text1011"><tspan
         sodipodi:role="line"
         id="tspan1009"
         x="125.87492"
         y="-230.43814"
         style="stroke-width:0.26458332">400</tspan></text>
  </g>
</svg>
